<svg id="Camada_2" data-name="Camada 2" xmlns="http://www.w3.org/2000/svg" width="97.526" height="34.594" viewBox="0 0 97.526 34.594">
  <g id="Layer_1" data-name="Layer 1" transform="translate(0 0)">
    <ellipse id="Ellipse_2183" data-name="Ellipse 2183" cx="2.744" cy="2.744" rx="2.744" ry="2.744" transform="translate(52.57 0)" fill="#fff"/>
    <path id="Path_9216" data-name="Path 9216" d="M880.011,50.772h-3.551a.148.148,0,0,0-.143.167l-.167,1.488a.167.167,0,0,1-.273.13,9.8,9.8,0,0,0-2.079-1.4,9.175,9.175,0,0,0-3.46-.751h-.153a9.238,9.238,0,0,0-3.356.637,9.486,9.486,0,0,0-3.014,2.084,9.187,9.187,0,0,0-2.032,2.968,9.063,9.063,0,0,0,2.032,10.034,9.575,9.575,0,0,0,3.016,2.088,9.281,9.281,0,0,0,3.509.632,9.183,9.183,0,0,0,3.46-.75,9.589,9.589,0,0,0,2.054-1.4.169.169,0,0,1,.17-.024.166.166,0,0,1,.1.138l.138,1.347a.167.167,0,0,0,.167.15h3.584a.167.167,0,0,0,.167-.167V50.94a.168.168,0,0,0-.169-.168Zm-9.555,14.149a5.348,5.348,0,1,1,5.363-5.351A5.348,5.348,0,0,1,870.455,64.921Z" transform="translate(-782.653 -45.819)" fill="#fff"/>
    <path id="Path_9217" data-name="Path 9217" d="M659.927,52.668a9.11,9.11,0,0,0-2.849-1.961,8.684,8.684,0,0,0-6.629.069,9.311,9.311,0,0,0-1.405.87.168.168,0,0,1-.26-.128l-.1-.9a.167.167,0,0,0-.166-.141h-3.474a.168.168,0,0,0-.167.167V67.853a.167.167,0,0,0,.167.167h3.7a.167.167,0,0,0,.167-.167s-.007-10.515,0-10.533a4.546,4.546,0,0,1,1.168-1.86,5.191,5.191,0,0,1,3.674-1.435,4.7,4.7,0,0,1,3.382,1.548,4.989,4.989,0,0,1,1.4,3.551v8.733a.163.163,0,0,0,.167.162h3.7c.091,0,.167-.111.167-.2v-9a8.729,8.729,0,0,0-2.634-6.154Z" transform="translate(-586.155 -45.523)" fill="#fff"/>
    <path id="Path_9218" data-name="Path 9218" d="M9.278,53.986a5.416,5.416,0,0,1,4.23,2.022.164.164,0,0,0,.223.028L16.6,54a.165.165,0,0,0,.067-.11.17.17,0,0,0-.035-.131,9.245,9.245,0,1,0,0,11.27.173.173,0,0,0,.035-.132.165.165,0,0,0-.067-.11l-2.868-2.034a.166.166,0,0,0-.223.029,5.305,5.305,0,0,1-4.23,1.9A5.172,5.172,0,0,1,4.03,59.4,5.273,5.273,0,0,1,9.278,53.986Z" transform="translate(0 -45.583)" fill="#fff"/>
    <path id="Path_9219" data-name="Path 9219" d="M430.27,66.2a7.008,7.008,0,0,0,4.27-6.846c0-4.473-2.937-9.288-9.38-9.288-4.571,0-9.491,2.907-9.491,9.288a9.074,9.074,0,0,0,2.591,6.753,9.722,9.722,0,0,0,6.9,2.459c3.241,0,5.328,1.433,5.328,3.835,0,2.344-2.623,3.723-5.4,3.723s-5.27-1.44-5.358-4.109a.168.168,0,0,0-.167-.166H415.9a.166.166,0,0,0-.168.162,7.657,7.657,0,0,0,2.094,5.6c1.628,1.63,4.139,2.492,7.261,2.492,4.553,0,9.455-2.41,9.455-7.7a5.986,5.986,0,0,0-4.257-5.895.167.167,0,0,1-.013-.306Zm-5.114-1.628a5.157,5.157,0,0,1-5.464-5.31c0-3.248,2.145-5.347,5.464-5.347a5.175,5.175,0,0,1,5.355,5.347,5.1,5.1,0,0,1-5.355,5.31Z" transform="translate(-377.818 -45.51)" fill="#fff"/>
    <path id="Path_9220" data-name="Path 9220" d="M199.108,50.15a9.245,9.245,0,1,0,9.278,9.246A9.272,9.272,0,0,0,199.108,50.15Zm0,14.479a5.245,5.245,0,0,1-5.25-5.23,5.252,5.252,0,1,1,10.5,0,5.245,5.245,0,0,1-5.249,5.226Z" transform="translate(-172.543 -45.583)" fill="#fff"/>
    <path id="Path_9221" data-name="Path 9221" d="M647.88,290.93h2.834v.4h-2.391v1.34h2.142v.4h-2.142v1.374h2.422v.4H647.88Z" transform="translate(-588.882 -264.437)" fill="#fff"/>
    <path id="Path_9222" data-name="Path 9222" d="M697.75,290.93h1.366a1.956,1.956,0,0,1,2.085,1.951v.011a1.965,1.965,0,0,1-2.085,1.962H697.75Zm1.366,3.515a1.519,1.519,0,0,0,1.626-1.542v-.011a1.53,1.53,0,0,0-1.626-1.554h-.92v3.106Z" transform="translate(-634.21 -264.437)" fill="#fff"/>
    <path id="Path_9223" data-name="Path 9223" d="M753.85,293.213V290.93h.443v2.254c0,.847.449,1.323,1.2,1.323.723,0,1.184-.437,1.184-1.295V290.93h.443v2.248a1.548,1.548,0,0,1-1.639,1.738A1.53,1.53,0,0,1,753.85,293.213Z" transform="translate(-685.202 -264.437)" fill="#fff"/>
    <path id="Path_9224" data-name="Path 9224" d="M808,292.231v-.011a1.977,1.977,0,0,1,1.984-2.03,2.041,2.041,0,0,1,1.531.623l-.3.325a1.705,1.705,0,0,0-1.234-.538,1.538,1.538,0,0,0-1.519,1.609v.011a1.547,1.547,0,0,0,1.519,1.62,1.7,1.7,0,0,0,1.268-.566l.291.287a2.045,2.045,0,0,1-1.57.689A1.955,1.955,0,0,1,808,292.231Z" transform="translate(-734.421 -263.764)" fill="#fff"/>
    <path id="Path_9225" data-name="Path 9225" d="M862.02,290.62h.414l1.789,3.95h-.476l-.46-1.037h-2.136l-.465,1.037h-.455Zm1.093,2.518-.891-2-.9,2Z" transform="translate(-781.894 -264.155)" fill="#fff"/>
    <path id="Path_9226" data-name="Path 9226" d="M918.037,294.842l.432-.628a1.961,1.961,0,0,1-1.7-2V292.2a1.977,1.977,0,0,1,1.984-2.03,2.041,2.041,0,0,1,1.531.623l-.3.325a1.706,1.706,0,0,0-1.234-.538,1.538,1.538,0,0,0-1.519,1.609v.011a1.547,1.547,0,0,0,1.519,1.62,1.7,1.7,0,0,0,1.268-.566l.291.287a2.038,2.038,0,0,1-1.481.684l-.37.807Z" transform="translate(-833.286 -263.746)" fill="#fff"/>
    <path id="Path_9227" data-name="Path 9227" d="M970.792,280.44h.415L973,284.39h-.476l-.455-1.037h-2.141l-.468,1.037H969Zm-.7-.4c.112-.387.263-.572.527-.572.246,0,.566.219.751.219.146,0,.207-.078.291-.263l.273.078c-.112.387-.263.566-.526.566-.247,0-.566-.219-.751-.219-.146,0-.208.078-.292.269Zm1.794,2.921-.892-2-.9,2Z" transform="translate(-880.759 -253.975)" fill="#fff"/>
    <path id="Path_9228" data-name="Path 9228" d="M1025.57,292.231v-.011a2,2,0,1,1,4-.011v.011a2,2,0,1,1-4,.011Zm3.543,0v-.011a1.56,1.56,0,0,0-1.548-1.62,1.541,1.541,0,0,0-1.536,1.609v.011a1.56,1.56,0,0,0,1.548,1.62A1.541,1.541,0,0,0,1029.113,292.231Z" transform="translate(-932.178 -263.764)" fill="#fff"/>
  </g>
</svg>
