<svg xmlns="http://www.w3.org/2000/svg" width="89.304" height="19.172" viewBox="0 0 89.304 19.172">
  <g id="logo-nova-marisa" style="mix-blend-mode: normal;isolation: isolate">
    <path id="Path_9245" data-name="Path 9245" d="M36.949,7.039a7.674,7.674,0,0,0-9.906.207l-.107.1-.106-.1a7.293,7.293,0,0,0-4.992-1.918,7.345,7.345,0,0,0-4.914,1.71A5.13,5.13,0,0,0,15,11.393v12.79h3.478V11.393a3.16,3.16,0,0,1,3.359-3,3.16,3.16,0,0,1,3.359,3v12.79h3.479V11.393a3.16,3.16,0,0,1,3.358-3,3.16,3.16,0,0,1,3.359,3v12.79h3.478V11.393a5.133,5.133,0,0,0-1.926-4.354" transform="translate(-15 -5.316)" fill="#dedede"/>
    <path id="Path_9246" data-name="Path 9246" d="M196.146,7.021a6.892,6.892,0,0,0-4.828-1.691,8.222,8.222,0,0,0-6.077,2.785l1.433,2.518.007-.008a6.111,6.111,0,0,1,6.441-1.907l.015.006a2.241,2.241,0,0,1,1.465,2.1v.008a4.193,4.193,0,0,1,.026.473v.987l-3.742.744a10.027,10.027,0,0,0-4.315,1.8,4.932,4.932,0,0,0-2,4.028,5.1,5.1,0,0,0,2.072,4.207,7.625,7.625,0,0,0,4.6,1.419,7.109,7.109,0,0,0,4.641-1.637,5.628,5.628,0,0,0,2-4.333V11.3a5.351,5.351,0,0,0-1.749-4.279m-1.518,11.5a3.138,3.138,0,0,1-.868,2.218,3.455,3.455,0,0,1-2.541.964,3.725,3.725,0,0,1-2.854-1.091,2.4,2.4,0,0,1-.235-2.668c.835-1.516,2.742-2.088,4.5-2.447l.194-.04c.389-.079,1.3-.263,1.622-.331l.185-.039v3.434Z" transform="translate(-158.308 -5.317)" fill="#dedede"/>
    <path id="Path_9247" data-name="Path 9247" d="M300.005,6.77a7.034,7.034,0,0,0-.875-.66,5.258,5.258,0,0,0-2.135-.816,7.238,7.238,0,0,0-4.265.853,5.652,5.652,0,0,0-1.1.8,5.025,5.025,0,0,0-1.749,4.279V24.113h3.266V11.931c0-.292,0-.584,0-.875a3.179,3.179,0,0,1,.088-.88,2.471,2.471,0,0,1,.823-1.225,2.609,2.609,0,0,1,.579-.358,3.418,3.418,0,0,1,3.749.822c1.456-1.356,2-1.865,2.213-2.058-.173-.192-.525-.523-.6-.586" transform="translate(-247.303 -5.246)" fill="#dedede"/>
    <path id="Path_9248" data-name="Path 9248" d="M512.277,5.329A8.222,8.222,0,0,0,506.2,8.114l1.434,2.518.007-.008a6.112,6.112,0,0,1,6.441-1.907l.014.006a2.242,2.242,0,0,1,1.465,2.1v.008a4.245,4.245,0,0,1,.026.473v.987l-3.741.744a10.024,10.024,0,0,0-4.315,1.8,4.932,4.932,0,0,0-2,4.028,5.1,5.1,0,0,0,2.072,4.207,7.626,7.626,0,0,0,4.6,1.419,7.11,7.11,0,0,0,4.641-1.637,5.628,5.628,0,0,0,2-4.333V11.3a5.694,5.694,0,0,0-1.749-4.279,6.9,6.9,0,0,0-4.829-1.691m3.31,13.19a3.138,3.138,0,0,1-.868,2.218,3.454,3.454,0,0,1-2.542.964,3.726,3.726,0,0,1-2.854-1.091,2.4,2.4,0,0,1-.234-2.668c.835-1.516,2.742-2.088,4.5-2.447l.188-.038c.39-.079,1.3-.264,1.628-.332l.185-.039v3.434Z" transform="translate(-429.55 -5.316)" fill="#dedede"/>
    <path id="Path_9249" data-name="Path 9249" d="M417,14.116a20.549,20.549,0,0,0-2.694-1.133l-.143-.052a17.141,17.141,0,0,1-1.881-.768,2.3,2.3,0,0,1-1.332-1.32l0-.016a1.526,1.526,0,0,1,.292-1.371,2.768,2.768,0,0,1,1.358-.824,4.777,4.777,0,0,1,.839-.177,5.6,5.6,0,0,1,3.106.54,7.149,7.149,0,0,1,1.853,1.309c.027.026.259.258.313.321l.008.008,0-.008,1.429-2.51a8.222,8.222,0,0,0-6.077-2.785,7.323,7.323,0,0,0-5.063,1.784,4.612,4.612,0,0,0-1.252,4.568,5.36,5.36,0,0,0,2.8,3.142,21.118,21.118,0,0,0,2.779,1.17l.11.039a11.679,11.679,0,0,1,2.232.982,2.251,2.251,0,0,1,1.224,1.942,2.644,2.644,0,0,1-1.833,2.252,4.993,4.993,0,0,1-3.384-.013,8.653,8.653,0,0,1-3-1.966L407.213,21.7a8.221,8.221,0,0,0,6.075,2.784c.267,0,.539-.012.81-.036l.167-.015v0h.006a7.543,7.543,0,0,0,3.8-1.418,5.141,5.141,0,0,0,1.157-7.092A6.481,6.481,0,0,0,417,14.116" transform="translate(-346.459 -5.315)" fill="#dedede"/>
    <rect id="Rectangle_7920" data-name="Rectangle 7920" width="3.266" height="18.541" transform="translate(55.094 0.325)" fill="#dedede"/>
  </g>
</svg>
