<svg xmlns="http://www.w3.org/2000/svg" xmlns:xlink="http://www.w3.org/1999/xlink" width="311.147" height="303.235" viewBox="0 0 311.147 303.235">
  <defs>
    <filter id="Elipse_2180">
      <feOffset input="SourceAlpha"/>
      <feGaussianBlur stdDeviation="20" result="blur"/>
      <feFlood flood-color="#742698" result="color"/>
      <feComposite operator="out" in="SourceGraphic" in2="blur"/>
      <feComposite operator="in" in="color"/>
      <feComposite operator="in" in2="SourceGraphic"/>
    </filter>
    <filter id="Elipse_2179">
      <feOffset input="SourceAlpha"/>
      <feGaussianBlur stdDeviation="20" result="blur-2"/>
      <feFlood flood-color="#742698" result="color-2"/>
      <feComposite operator="out" in="SourceGraphic" in2="blur-2"/>
      <feComposite operator="in" in="color-2"/>
      <feComposite operator="in" in2="SourceGraphic"/>
    </filter>
    <filter id="Elipse_2178">
      <feOffset input="SourceAlpha"/>
      <feGaussianBlur stdDeviation="20" result="blur-3"/>
      <feFlood flood-color="#742698" result="color-3"/>
      <feComposite operator="out" in="SourceGraphic" in2="blur-3"/>
      <feComposite operator="in" in="color-3"/>
      <feComposite operator="in" in2="SourceGraphic"/>
    </filter>
    <filter id="Elipse_2177">
      <feOffset input="SourceAlpha"/>
      <feGaussianBlur stdDeviation="20" result="blur-4"/>
      <feFlood flood-color="#ff0070" result="color-4"/>
      <feComposite operator="out" in="SourceGraphic" in2="blur-4"/>
      <feComposite operator="in" in="color-4"/>
      <feComposite operator="in" in2="SourceGraphic"/>
    </filter>
    <radialGradient id="radial-gradient" cx="0.5" cy="0.5" r="0.5" gradientUnits="objectBoundingBox">
      <stop offset="0" stop-color="#af39e6"/>
      <stop offset="1" stop-color="#0b1617" stop-opacity="0"/>
    </radialGradient>
  </defs>
  <g id="Grupo_24182" data-name="Grupo 24182" transform="translate(-586.112 -78.916)" style="isolation: isolate">
    <g id="Grupo_23769" data-name="Grupo 23769" transform="translate(586.112 216.698)">
      <g data-type="innerShadowGroup">
        <ellipse id="Elipse_2180-2" data-name="Elipse 2180" cx="115.841" cy="82.727" rx="115.841" ry="82.727" transform="translate(0 0)" fill="#0b1617"/>
        <g transform="matrix(1, 0, 0, 1, 0, -137.78)" filter="url(#Elipse_2180)">
          <ellipse id="Elipse_2180-3" data-name="Elipse 2180" cx="115.841" cy="82.727" rx="115.841" ry="82.727" transform="translate(0 137.78)" fill="#fff"/>
        </g>
        <g id="Elipse_2180-4" data-name="Elipse 2180" transform="translate(0 0)" fill="none" stroke="#af39e6" stroke-width="1">
          <ellipse cx="115.841" cy="82.727" rx="115.841" ry="82.727" stroke="none"/>
          <ellipse cx="115.841" cy="82.727" rx="115.341" ry="82.227" fill="none"/>
        </g>
      </g>
      <g data-type="innerShadowGroup">
        <ellipse id="Elipse_2179-2" data-name="Elipse 2179" cx="93.691" cy="63.908" rx="93.691" ry="63.908" transform="translate(11.789 35.155)" fill="#0b1617"/>
        <g transform="matrix(1, 0, 0, 1, 0, -137.78)" filter="url(#Elipse_2179)">
          <ellipse id="Elipse_2179-3" data-name="Elipse 2179" cx="93.691" cy="63.908" rx="93.691" ry="63.908" transform="translate(11.79 172.94)" fill="#fff"/>
        </g>
        <g id="Elipse_2179-4" data-name="Elipse 2179" transform="translate(11.789 35.155)" fill="none" stroke="#af39e6" stroke-width="1">
          <ellipse cx="93.691" cy="63.908" rx="93.691" ry="63.908" stroke="none"/>
          <ellipse cx="93.691" cy="63.908" rx="93.191" ry="63.408" fill="none"/>
        </g>
      </g>
      <g data-type="innerShadowGroup">
        <ellipse id="Elipse_2178-2" data-name="Elipse 2178" cx="72.284" cy="45.604" rx="72.284" ry="45.604" transform="translate(22.337 69.281)" fill="#0b1617"/>
        <g transform="matrix(1, 0, 0, 1, 0, -137.78)" filter="url(#Elipse_2178)">
          <ellipse id="Elipse_2178-3" data-name="Elipse 2178" cx="72.284" cy="45.604" rx="72.284" ry="45.604" transform="translate(22.34 207.06)" fill="#fff"/>
        </g>
        <g id="Elipse_2178-4" data-name="Elipse 2178" transform="translate(22.337 69.281)" fill="none" stroke="#af39e6" stroke-width="1">
          <ellipse cx="72.284" cy="45.604" rx="72.284" ry="45.604" stroke="none"/>
          <ellipse cx="72.284" cy="45.604" rx="71.784" ry="45.104" fill="none"/>
        </g>
      </g>
      <g data-type="innerShadowGroup">
        <ellipse id="Elipse_2177-2" data-name="Elipse 2177" cx="51.809" cy="24.508" rx="51.809" ry="24.508" transform="translate(31.644 107.129)" fill="#0b1617"/>
        <g transform="matrix(1, 0, 0, 1, 0, -137.78)" filter="url(#Elipse_2177)">
          <ellipse id="Elipse_2177-3" data-name="Elipse 2177" cx="51.809" cy="24.508" rx="51.809" ry="24.508" transform="translate(31.64 244.91)" fill="#fff"/>
        </g>
        <g id="Elipse_2177-4" data-name="Elipse 2177" transform="translate(31.644 107.129)" fill="none" stroke="#ff0070" stroke-width="1">
          <ellipse cx="51.809" cy="24.508" rx="51.809" ry="24.508" stroke="none"/>
          <ellipse cx="51.809" cy="24.508" rx="51.309" ry="24.008" fill="none"/>
        </g>
      </g>
      <path id="Caminho_9570" data-name="Caminho 9570" d="M-21.1.09c1.224,0,2.142-.63,2.142-1.719,0-1.152-.864-1.53-1.827-1.764l-.675-.162c-.657-.162-1.071-.351-1.071-.882,0-.459.414-.729.99-.729A1.771,1.771,0,0,1-19.818-4.1l.765-.729a2.581,2.581,0,0,0-2.421-1.287c-1.134,0-2.115.612-2.115,1.746s.909,1.53,1.764,1.71l.567.126c.783.171,1.269.333,1.269.918,0,.549-.486.765-1.089.765A2.034,2.034,0,0,1-23.049-2.07l-.72.729A2.74,2.74,0,0,0-21.1.09ZM-12.87,0V-.9h-3.249V-2.628h2.691v-.9h-2.691v-1.6h3.249v-.9h-4.266V0Zm2.7,0V-2.34h.738a1.067,1.067,0,0,1,1.1.549L-7.29,0h1.17L-7.146-1.737a1.368,1.368,0,0,0-.819-.711,1.677,1.677,0,0,0,1.638-1.71c0-1.242-.918-1.872-2.142-1.872h-2.718V0Zm1.6-5.13c.639,0,1.188.234,1.188,1,0,.729-.549.963-1.188.963h-1.6V-5.13ZM-1.881,0,.324-6.03H-.783l-1.2,3.519L-2.439-.774l-.45-1.737-1.2-3.519H-5.247L-3.042,0ZM2.646,0V-6.03H1.629V0ZM7.3,1.692c.5,0,.837-.27.837-.693,0-.333-.252-.585-.729-.576L7.65.063a2.637,2.637,0,0,0,2.421-1.854l-.882-.648A1.736,1.736,0,0,1,7.407-.891c-1.242,0-1.827-.891-1.827-2.133s.585-2.133,1.827-2.133A1.729,1.729,0,0,1,9.189-3.609l.882-.648A2.658,2.658,0,0,0,7.4-6.12a2.836,2.836,0,0,0-2.9,3.1A2.832,2.832,0,0,0,7.083.054l-.315.54.18.216A1.834,1.834,0,0,1,7.236.783c.171,0,.288.054.288.207,0,.126-.09.2-.252.2A.9.9,0,0,1,6.633.873l-.189.522A1.256,1.256,0,0,0,7.3,1.692ZM14.445.081a2.945,2.945,0,0,0,2.97-3.105,2.943,2.943,0,0,0-2.97-3.1,2.937,2.937,0,0,0-2.97,3.1A2.94,2.94,0,0,0,14.445.081Zm.009-.972a1.872,1.872,0,0,1-1.908-2.133,1.876,1.876,0,0,1,1.908-2.133c1.26,0,1.9.891,1.9,2.133S15.714-.891,14.454-.891ZM21.645.09c1.224,0,2.142-.63,2.142-1.719,0-1.152-.864-1.53-1.827-1.764l-.675-.162c-.657-.162-1.071-.351-1.071-.882,0-.459.414-.729.99-.729A1.771,1.771,0,0,1,22.923-4.1l.765-.729a2.581,2.581,0,0,0-2.421-1.287c-1.134,0-2.115.612-2.115,1.746s.909,1.53,1.764,1.71l.567.126c.783.171,1.269.333,1.269.918,0,.549-.486.765-1.089.765A2.034,2.034,0,0,1,19.692-2.07l-.72.729A2.74,2.74,0,0,0,21.645.09ZM-17.365,10a2.683,2.683,0,0,0,2.871-3.015A2.687,2.687,0,0,0-17.365,3.97h-2.277V10Zm-.126-5.13c1.251,0,1.935.6,1.935,2.115S-16.24,9.1-17.483,9.1h-1.143V4.87ZM-11.623,10V3.97h-1.017V10Zm4.329.072a2.147,2.147,0,0,0,2.151-2.34L-4.865,10h.648V6.877H-6.971v.855h1.737A1.587,1.587,0,0,1-6.917,9.118c-1.188,0-1.773-.864-1.773-2.142,0-1.251.576-2.133,1.836-2.133A1.677,1.677,0,0,1-5.126,6.211l.882-.63a2.614,2.614,0,0,0-2.619-1.7,2.815,2.815,0,0,0-2.907,3.1C-9.77,8.893-8.843,10.072-7.295,10.072ZM-1.166,10V3.97H-2.183V10Zm4.185,0V4.87H4.873v-.9H.157v.9H2V10ZM6.16,10l.576-1.521H9.283L9.859,10h1.116L8.617,3.97H7.447L5.089,10ZM7.69,5.968l.324-1.089.324,1.089L8.95,7.6H7.069ZM13.3,10V3.97H12.28V10Zm4.428.09c1.224,0,2.142-.63,2.142-1.719,0-1.152-.864-1.53-1.827-1.764l-.675-.162c-.657-.162-1.071-.351-1.071-.882,0-.459.414-.729.99-.729A1.771,1.771,0,0,1,19,5.9l.765-.729a2.581,2.581,0,0,0-2.421-1.287c-1.134,0-2.115.612-2.115,1.746s.909,1.53,1.764,1.71l.567.126c.783.171,1.269.333,1.269.918,0,.549-.486.765-1.089.765A2.034,2.034,0,0,1,15.773,7.93l-.72.729A2.74,2.74,0,0,0,17.726,10.09Z" transform="translate(93.717 85.949)" fill="#e3e3e3"/>
      <path id="Caminho_9571" data-name="Caminho 9571" d="M-33.669.072A2.668,2.668,0,0,0-31-1.791l-.882-.648A1.736,1.736,0,0,1-33.66-.891c-1.242,0-1.827-.891-1.827-2.133s.585-2.133,1.827-2.133a1.729,1.729,0,0,1,1.782,1.548L-31-4.257A2.658,2.658,0,0,0-33.669-6.12a2.836,2.836,0,0,0-2.9,3.1A2.836,2.836,0,0,0-33.669.072Zm7.047.009a2.945,2.945,0,0,0,2.97-3.105,2.943,2.943,0,0,0-2.97-3.1,2.937,2.937,0,0,0-2.97,3.1A2.94,2.94,0,0,0-26.622.081Zm.009-.972a1.872,1.872,0,0,1-1.908-2.133,1.876,1.876,0,0,1,1.908-2.133c1.26,0,1.9.891,1.9,2.133S-25.353-.891-26.613-.891ZM-20.781,0V-2.835l-.144-1.989.711,1.728,1.044,2.079h1.026L-17.1-3.1l.693-1.728-.126,1.989V0h1.017V-6.03h-1.242l-1.3,2.646-.6,1.539-.594-1.539-1.3-2.646H-21.8V0Zm8.532,0V-1.908H-10.8A1.992,1.992,0,0,0-8.541-3.942,2,2,0,0,0-10.8-6.03h-2.466V0Zm1.35-5.13c.693,0,1.305.252,1.305,1.188,0,.873-.612,1.134-1.305,1.134h-1.35V-5.13ZM-4.1.081a2.945,2.945,0,0,0,2.97-3.105A2.943,2.943,0,0,0-4.1-6.12a2.937,2.937,0,0,0-2.97,3.1A2.94,2.94,0,0,0-4.1.081Zm.009-.972A1.872,1.872,0,0,1-5.994-3.024,1.876,1.876,0,0,1-4.086-5.157c1.26,0,1.9.891,1.9,2.133S-2.826-.891-4.086-.891ZM1.746,0V-3.321l-.072-1.1.549.855L4.725,0h.936V-6.03H4.644v3.312l.063,1.143L4.113-2.52,1.674-6.03H.729V0ZM12.177,0V-.9H8.928V-2.628h2.691v-.9H8.928v-1.6h3.249v-.9H7.911V0Zm2.7,0V-3.321l-.072-1.1.549.855L17.856,0h.936V-6.03H17.775v3.312l.063,1.143-.594-.945L14.8-6.03H13.86V0Zm8.1,0V-5.13h1.854v-.9H20.115v.9H21.96V0Zm7.434,0V-.9H27.162V-2.628h2.691v-.9H27.162v-1.6h3.249v-.9H26.145V0Zm4.041.09c1.224,0,2.142-.63,2.142-1.719,0-1.152-.864-1.53-1.827-1.764l-.675-.162c-.657-.162-1.071-.351-1.071-.882,0-.459.414-.729.99-.729A1.771,1.771,0,0,1,35.73-4.1l.765-.729a2.581,2.581,0,0,0-2.421-1.287c-1.134,0-2.115.612-2.115,1.746s.909,1.53,1.764,1.71l.567.126c.783.171,1.269.333,1.269.918,0,.549-.486.765-1.089.765A2.034,2.034,0,0,1,32.5-2.07l-.72.729A2.74,2.74,0,0,0,34.452.09ZM-39.771,10A2.683,2.683,0,0,0-36.9,6.985,2.687,2.687,0,0,0-39.771,3.97h-2.277V10ZM-39.9,4.87c1.251,0,1.935.6,1.935,2.115S-38.646,9.1-39.888,9.1h-1.143V4.87ZM-30.78,10V9.1h-3.249V7.372h2.691v-.9h-2.691V4.87h3.249v-.9h-4.266V10Zm7.3.072a2.668,2.668,0,0,0,2.673-1.863l-.882-.648a1.736,1.736,0,0,1-1.782,1.548c-1.242,0-1.827-.891-1.827-2.133s.585-2.133,1.827-2.133A1.729,1.729,0,0,1-21.69,6.391l.882-.648A2.658,2.658,0,0,0-23.481,3.88a2.836,2.836,0,0,0-2.9,3.1A2.836,2.836,0,0,0-23.481,10.072Zm5.4-.072V7.66h.738a1.067,1.067,0,0,1,1.1.549L-15.2,10h1.17l-1.026-1.737a1.368,1.368,0,0,0-.819-.711,1.677,1.677,0,0,0,1.638-1.71c0-1.242-.918-1.872-2.142-1.872H-19.1V10Zm1.6-5.13c.639,0,1.188.234,1.188,1,0,.729-.549.963-1.188.963h-1.6V4.87ZM-8.253,10V9.1H-11.5V7.372h2.691v-.9H-11.5V4.87h3.249v-.9h-4.266V10Zm4.041.09c1.224,0,2.142-.63,2.142-1.719,0-1.152-.864-1.53-1.827-1.764l-.675-.162c-.657-.162-1.071-.351-1.071-.882,0-.459.414-.729.99-.729A1.771,1.771,0,0,1-2.934,5.9l.765-.729A2.581,2.581,0,0,0-4.59,3.889C-5.724,3.889-6.7,4.5-6.7,5.635s.909,1.53,1.764,1.71l.567.126c.783.171,1.269.333,1.269.918,0,.549-.486.765-1.089.765A2.034,2.034,0,0,1-6.165,7.93l-.72.729A2.74,2.74,0,0,0-4.212,10.09Zm6.552-.018A2.668,2.668,0,0,0,5.013,8.209l-.882-.648A1.736,1.736,0,0,1,2.349,9.109C1.107,9.109.522,8.218.522,6.976s.585-2.133,1.827-2.133A1.729,1.729,0,0,1,4.131,6.391l.882-.648A2.658,2.658,0,0,0,2.34,3.88a2.836,2.836,0,0,0-2.9,3.1A2.836,2.836,0,0,0,2.34,10.072ZM7.74,10V3.97H6.723V10Zm3.267,0V7.165l-.144-1.989L11.574,6.9l1.044,2.079h1.026L14.688,6.9l.693-1.728-.126,1.989V10h1.017V3.97H15.03l-1.3,2.646-.6,1.539-.594-1.539-1.3-2.646H9.99V10Zm11.781,0V9.1H19.539V7.372H22.23v-.9H19.539V4.87h3.249v-.9H18.522V10Zm2.7,0V6.679l-.072-1.1.549.855L28.467,10H29.4V3.97H28.386V7.282l.063,1.143-.594-.945L25.416,3.97h-.945V10Zm8.1,0V4.87h1.854v-.9H30.726v.9h1.845V10Zm5.688.081a2.945,2.945,0,0,0,2.97-3.105,2.973,2.973,0,1,0-5.94,0A2.94,2.94,0,0,0,39.276,10.081Zm.009-.972a1.872,1.872,0,0,1-1.908-2.133,1.876,1.876,0,0,1,1.908-2.133c1.26,0,1.9.891,1.9,2.133S40.545,9.109,39.285,9.109Z" transform="translate(103.508 51.903)" fill="#e3e3e3"/>
      <path id="Caminho_9572" data-name="Caminho 9572" d="M-52.893,0V-1.908h1.449a1.992,1.992,0,0,0,2.259-2.034A2,2,0,0,0-51.444-6.03H-53.91V0Zm1.35-5.13c.693,0,1.305.252,1.305,1.188,0,.873-.612,1.134-1.305,1.134h-1.35V-5.13Zm6.8,5.211a2.945,2.945,0,0,0,2.97-3.105,2.943,2.943,0,0,0-2.97-3.1,2.937,2.937,0,0,0-2.97,3.1A2.94,2.94,0,0,0-44.739.081Zm.009-.972a1.872,1.872,0,0,1-1.908-2.133A1.876,1.876,0,0,1-44.73-5.157c1.26,0,1.9.891,1.9,2.133S-43.47-.891-44.73-.891ZM-38.9,0V-3.321l-.072-1.1.549.855L-35.919,0h.936V-6.03H-36v3.312l.063,1.143-.594-.945L-38.97-6.03h-.945V0Zm8.1,0V-5.13h1.854v-.9H-33.66v.9h1.845V0Zm5.688.081a2.945,2.945,0,0,0,2.97-3.105,2.943,2.943,0,0,0-2.97-3.1,2.937,2.937,0,0,0-2.97,3.1A2.94,2.94,0,0,0-25.11.081Zm.009-.972a1.872,1.872,0,0,1-1.908-2.133A1.876,1.876,0,0,1-25.1-5.157c1.26,0,1.9.891,1.9,2.133S-23.841-.891-25.1-.891ZM-17.91.09c1.224,0,2.142-.63,2.142-1.719,0-1.152-.864-1.53-1.827-1.764l-.675-.162c-.657-.162-1.071-.351-1.071-.882,0-.459.414-.729.99-.729A1.771,1.771,0,0,1-16.632-4.1l.765-.729a2.581,2.581,0,0,0-2.421-1.287c-1.134,0-2.115.612-2.115,1.746s.909,1.53,1.764,1.71l.567.126c.783.171,1.269.333,1.269.918,0,.549-.486.765-1.089.765A2.034,2.034,0,0,1-19.863-2.07l-.72.729A2.74,2.74,0,0,0-17.91.09ZM-8.856,0A2.683,2.683,0,0,0-5.985-3.015,2.687,2.687,0,0,0-8.856-6.03h-2.277V0Zm-.126-5.13c1.251,0,1.935.6,1.935,2.115S-7.731-.9-8.973-.9h-1.143V-5.13ZM.135,0V-.9H-3.114V-2.628H-.423v-.9H-3.114v-1.6H.135v-.9H-4.131V0ZM9,0V-.9H5.751V-2.628H8.442v-.9H5.751v-1.6H9v-.9H4.734V0Zm2.331,0,1.548-2.466L14.463,0h1.278L13.626-3.06l1.98-2.97H14.391L12.924-3.672,11.484-6.03H10.2l1.989,2.916L10.062,0Zm8.181,0V-5.13h1.854v-.9H16.65v.9H18.5V0Zm7.434,0V-.9H23.7V-2.628h2.691v-.9H23.7v-1.6h3.249v-.9H22.68V0Zm2.7,0V-3.321l-.072-1.1.549.855L32.625,0h.936V-6.03H32.544v3.312l.063,1.143-.594-.945L29.574-6.03h-.945V0Zm8.343.09c1.224,0,2.142-.63,2.142-1.719,0-1.152-.864-1.53-1.827-1.764l-.675-.162c-.657-.162-1.071-.351-1.071-.882,0-.459.414-.729.99-.729A1.771,1.771,0,0,1,39.267-4.1l.765-.729a2.581,2.581,0,0,0-2.421-1.287c-1.134,0-2.115.612-2.115,1.746s.909,1.53,1.764,1.71l.567.126c.783.171,1.269.333,1.269.918,0,.549-.486.765-1.089.765A2.034,2.034,0,0,1,36.036-2.07l-.72.729A2.74,2.74,0,0,0,37.989.09ZM43.74-6.6A.739.739,0,0,1,43.56-7a.111.111,0,0,1,.117-.126.819.819,0,0,1,.387.207,1.3,1.3,0,0,0,.756.333.5.5,0,0,0,.522-.567,1.011,1.011,0,0,0-.153-.531H44.6a.686.686,0,0,1,.189.387.116.116,0,0,1-.117.126.726.726,0,0,1-.378-.207A1.216,1.216,0,0,0,43.56-7.7a.541.541,0,0,0-.585.576,1.035,1.035,0,0,0,.153.531ZM42.291,0l.576-1.521h2.547L45.99,0h1.116L44.748-6.03h-1.17L41.22,0Zm1.53-4.032.324-1.089.324,1.089L45.081-2.4H43.2ZM51.138.081a2.945,2.945,0,0,0,2.97-3.105,2.943,2.943,0,0,0-2.97-3.1,2.937,2.937,0,0,0-2.97,3.1A2.94,2.94,0,0,0,51.138.081Zm.009-.972a1.872,1.872,0,0,1-1.908-2.133,1.876,1.876,0,0,1,1.908-2.133c1.26,0,1.9.891,1.9,2.133S52.407-.891,51.147-.891ZM-35.163,10V9.1h-3.249V7.372h2.691v-.9h-2.691V4.87h3.249v-.9h-4.266V10Zm5.616,0V7.624h2.619v-.9h-2.619V4.87h3.168v-.9h-4.185V10Zm8.82,0V9.1h-3.087V3.97h-1.017V10Zm5.679,0V9.1H-18.3V7.372h2.691v-.9H-18.3V4.87h3.249v-.9h-4.266V10Zm2.331,0,1.548-2.466L-9.585,10h1.278l-2.115-3.06,1.98-2.97H-9.657l-1.467,2.358-1.44-2.358h-1.287l1.989,2.916L-13.986,10Zm6.777,0V3.97H-6.957V10ZM-1,10c1.3,0,2.1-.531,2.1-1.6,0-.81-.486-1.422-1.854-1.53.972-.081,1.6-.558,1.6-1.359,0-.891-.576-1.539-1.8-1.539H-3.69V10ZM-1.26,4.87c.63,0,1.053.2,1.053.81s-.414.8-1.017.8H-2.673V4.87Zm.135,2.466c.7,0,1.179.27,1.179.882S-.324,9.1-1.152,9.1H-2.673V7.336ZM3.987,10V3.97H2.97V10Zm6.354,0V9.1H7.254V3.97H6.237V10Zm2.43,0V3.97H11.754V10ZM17.3,10a2.683,2.683,0,0,0,2.871-3.015A2.687,2.687,0,0,0,17.3,3.97H15.021V10Zm-.126-5.13c1.251,0,1.935.6,1.935,2.115S18.423,9.1,17.181,9.1H16.038V4.87ZM22.3,10l.576-1.521h2.547L26,10h1.116L24.759,3.97h-1.17L21.231,10Zm1.53-4.032.324-1.089.324,1.089L25.092,7.6H23.211ZM30.7,10A2.683,2.683,0,0,0,33.57,6.985,2.687,2.687,0,0,0,30.7,3.97H28.422V10Zm-.126-5.13c1.251,0,1.935.6,1.935,2.115S31.824,9.1,30.582,9.1H29.439V4.87ZM39.69,10V9.1H36.441V7.372h2.691v-.9H36.441V4.87H39.69v-.9H35.424V10Z" transform="translate(113.306 19.4)" fill="#e3e3e3"/>
      <path id="Caminho_9569" data-name="Caminho 9569" d="M-33.417,0V-1.908h1.449a1.992,1.992,0,0,0,2.259-2.034A2,2,0,0,0-31.968-6.03h-2.466V0Zm1.35-5.13c.693,0,1.305.252,1.305,1.188,0,.873-.612,1.134-1.305,1.134h-1.35V-5.13ZM-27.036,0V-2.34h.738a1.067,1.067,0,0,1,1.1.549L-24.156,0h1.17l-1.026-1.737a1.368,1.368,0,0,0-.819-.711,1.677,1.677,0,0,0,1.638-1.71c0-1.242-.918-1.872-2.142-1.872h-2.718V0Zm1.6-5.13c.639,0,1.188.234,1.188,1,0,.729-.549.963-1.188.963h-1.6V-5.13ZM-18.756.081a2.945,2.945,0,0,0,2.97-3.105,2.943,2.943,0,0,0-2.97-3.1,2.937,2.937,0,0,0-2.97,3.1A2.94,2.94,0,0,0-18.756.081Zm.009-.972a1.872,1.872,0,0,1-1.908-2.133,1.876,1.876,0,0,1,1.908-2.133c1.26,0,1.9.891,1.9,2.133S-17.487-.891-18.747-.891ZM-12.915,0V-1.908h1.449A1.992,1.992,0,0,0-9.207-3.942,2,2,0,0,0-11.466-6.03h-2.466V0Zm1.35-5.13c.693,0,1.305.252,1.305,1.188,0,.873-.612,1.134-1.305,1.134h-1.35V-5.13Zm6.8,5.211a2.945,2.945,0,0,0,2.97-3.105,2.943,2.943,0,0,0-2.97-3.1,2.937,2.937,0,0,0-2.97,3.1A2.94,2.94,0,0,0-4.761.081Zm.009-.972A1.872,1.872,0,0,1-6.66-3.024,1.876,1.876,0,0,1-4.752-5.157c1.26,0,1.9.891,1.9,2.133S-3.492-.891-4.752-.891ZM2.439.09c1.224,0,2.142-.63,2.142-1.719,0-1.152-.864-1.53-1.827-1.764l-.675-.162c-.657-.162-1.071-.351-1.071-.882,0-.459.414-.729.99-.729A1.771,1.771,0,0,1,3.717-4.1l.765-.729A2.581,2.581,0,0,0,2.061-6.111C.927-6.111-.054-5.5-.054-4.365s.909,1.53,1.764,1.71l.567.126c.783.171,1.269.333,1.269.918,0,.549-.486.765-1.089.765A2.034,2.034,0,0,1,.486-2.07l-.72.729A2.74,2.74,0,0,0,2.439.09ZM8.388,0V-5.13h1.854v-.9H5.526v.9H7.371V0Zm3.141,0L12.1-1.521h2.547L15.228,0h1.116L13.986-6.03h-1.17L10.458,0Zm1.53-4.032.324-1.089.324,1.089L14.319-2.4H12.438ZM22.932,0A2.683,2.683,0,0,0,25.8-3.015,2.687,2.687,0,0,0,22.932-6.03H20.655V0Zm-.126-5.13c1.251,0,1.935.6,1.935,2.115S24.057-.9,22.815-.9H21.672V-5.13ZM31.923,0V-.9H28.674V-2.628h2.691v-.9H28.674v-1.6h3.249v-.9H27.657V0ZM-35.41,10l2.205-6.03h-1.107l-1.2,3.519-.459,1.737-.45-1.737-1.2-3.519h-1.161L-36.571,10Zm3.717,0,.576-1.521h2.547L-27.994,10h1.116l-2.358-6.03h-1.17L-32.764,10Zm1.53-4.032.324-1.089.324,1.089L-28.9,7.6h-1.881ZM-21.469,10V9.1h-3.087V3.97h-1.017V10Zm3.87.081a2.945,2.945,0,0,0,2.97-3.105,2.943,2.943,0,0,0-2.97-3.1,2.937,2.937,0,0,0-2.97,3.1A2.94,2.94,0,0,0-17.6,10.081Zm.009-.972A1.872,1.872,0,0,1-19.5,6.976,1.876,1.876,0,0,1-17.59,4.843c1.26,0,1.9.891,1.9,2.133S-16.33,9.109-17.59,9.109Zm5.832.891V7.66h.738a1.067,1.067,0,0,1,1.1.549L-8.878,10h1.17L-8.734,8.263a1.368,1.368,0,0,0-.819-.711,1.677,1.677,0,0,0,1.638-1.71c0-1.242-.918-1.872-2.142-1.872h-2.718V10Zm1.6-5.13c.639,0,1.188.234,1.188,1,0,.729-.549.963-1.188.963h-1.6V4.87ZM.967,10V9.1H-2.282V7.372H.409v-.9H-2.282V4.87H.967v-.9H-3.3V10Zm5.787,0V9.1H3.667V3.97H2.65V10Zm5.679,0V9.1H9.184V7.372h2.691v-.9H9.184V4.87h3.249v-.9H8.167V10Zm4.41,0,2.205-6.03H17.941l-1.2,3.519-.459,1.737-.45-1.737-1.2-3.519H13.477l2.2,6.03Zm3.717,0,.576-1.521h2.547L24.26,10h1.116L23.017,3.97h-1.17L19.49,10Zm1.53-4.032.324-1.089.324,1.089L23.351,7.6H21.469ZM28.957,10a2.683,2.683,0,0,0,2.871-3.015A2.687,2.687,0,0,0,28.957,3.97H26.68V10Zm-.126-5.13c1.251,0,1.935.6,1.935,2.115S30.082,9.1,28.84,9.1H27.7V4.87ZM33.962,10l.576-1.521h2.547L37.66,10h1.116L36.419,3.97h-1.17L32.89,10Zm1.53-4.032.324-1.089.324,1.089L36.752,7.6H34.871Z" transform="translate(82.117 129.418)" fill="#e3e3e3"/>
    </g>
    <path id="Caminho_9576" data-name="Caminho 9576" d="M-11.38,0V-.9h-3.249V-2.628h2.691v-.9h-2.691v-1.6h3.249v-.9h-4.266V0Zm2.7,0V-2.376h2.619v-.9H-8.68V-5.13h3.168v-.9H-9.7V0ZM.3,0V-.9H-2.947V-2.628H-.256v-.9H-2.947v-1.6H.3v-.9H-3.964V0ZM3,0V-6.03H1.985V0ZM7.187,0V-5.13H9.041v-.9H4.325v.9H6.17V0Zm5.688.081a2.945,2.945,0,0,0,2.97-3.105,2.943,2.943,0,0,0-2.97-3.1,2.937,2.937,0,0,0-2.97,3.1A2.94,2.94,0,0,0,12.874.081Zm.009-.972a1.872,1.872,0,0,1-1.908-2.133,1.876,1.876,0,0,1,1.908-2.133c1.26,0,1.9.891,1.9,2.133S14.143-.891,12.883-.891ZM-16.047,10V9.1H-19.3V7.372H-16.6v-.9H-19.3V4.87h3.249v-.9h-4.266V10Zm2.7,0V7.165l-.144-1.989L-12.78,6.9l1.044,2.079h1.026L-9.666,6.9l.693-1.728L-9.1,7.165V10h1.017V3.97H-9.324l-1.3,2.646-.6,1.539-.594-1.539-1.3-2.646h-1.251V10ZM-2.2,10V7.66h.738a1.067,1.067,0,0,1,1.1.549L.675,10h1.17L.819,8.263A1.368,1.368,0,0,0,0,7.552a1.677,1.677,0,0,0,1.638-1.71C1.638,4.6.72,3.97-.5,3.97H-3.222V10ZM-.6,4.87c.639,0,1.188.234,1.188,1,0,.729-.549.963-1.188.963H-2.2V4.87ZM7.623,10V9.1H4.374V7.372H7.065v-.9H4.374V4.87H7.623v-.9H3.357V10Zm3.96,0a2.683,2.683,0,0,0,2.871-3.015A2.687,2.687,0,0,0,11.583,3.97H9.306V10Zm-.126-5.13c1.251,0,1.935.6,1.935,2.115S12.708,9.1,11.466,9.1H10.323V4.87ZM20.574,10V9.1H17.325V7.372h2.691v-.9H17.325V4.87h3.249v-.9H16.308V10Z" transform="translate(865.189 120.669)" fill="#e3e3e3"/>
    <path id="Caminho_9574" data-name="Caminho 9574" d="M-26.491,0V-6.03h-1.017V0Zm3.267,0V-3.321l-.072-1.1.549.855L-20.245,0h.936V-6.03h-1.017v3.312l.063,1.143-.594-.945L-23.3-6.03h-.945V0Zm8.739.081a2.945,2.945,0,0,0,2.97-3.105,2.943,2.943,0,0,0-2.97-3.1,2.937,2.937,0,0,0-2.97,3.1A2.94,2.94,0,0,0-14.485.081Zm.009-.972a1.872,1.872,0,0,1-1.908-2.133,1.876,1.876,0,0,1,1.908-2.133c1.26,0,1.9.891,1.9,2.133S-13.216-.891-14.476-.891Zm7.4.891,2.2-6.03H-5.98l-1.2,3.519L-7.637-.774l-.45-1.737-1.2-3.519h-1.161L-8.24,0Zm3.717,0,.576-1.521H-.238L.338,0H1.454L-.9-6.03h-1.17L-4.432,0Zm1.53-4.032.324-1.089.324,1.089L-.571-2.4H-2.452ZM5.315,1.692c.5,0,.837-.27.837-.693,0-.333-.252-.585-.729-.576l.243-.36A2.637,2.637,0,0,0,8.087-1.791L7.2-2.439A1.736,1.736,0,0,1,5.423-.891C4.181-.891,3.6-1.782,3.6-3.024s.585-2.133,1.827-2.133A1.729,1.729,0,0,1,7.2-3.609l.882-.648A2.658,2.658,0,0,0,5.414-6.12a2.836,2.836,0,0,0-2.9,3.1A2.832,2.832,0,0,0,5.1.054l-.315.54.18.216A1.834,1.834,0,0,1,5.252.783c.171,0,.288.054.288.207,0,.126-.09.2-.252.2A.9.9,0,0,1,4.649.873l-.189.522A1.256,1.256,0,0,0,5.315,1.692ZM12.038-6.6A.739.739,0,0,1,11.858-7a.111.111,0,0,1,.117-.126.819.819,0,0,1,.387.207,1.3,1.3,0,0,0,.756.333.5.5,0,0,0,.522-.567,1.011,1.011,0,0,0-.153-.531h-.594a.686.686,0,0,1,.189.387.116.116,0,0,1-.117.126.726.726,0,0,1-.378-.207,1.216,1.216,0,0,0-.729-.324.541.541,0,0,0-.585.576,1.035,1.035,0,0,0,.153.531ZM12.46.081a2.945,2.945,0,0,0,2.97-3.105,2.943,2.943,0,0,0-2.97-3.1,2.937,2.937,0,0,0-2.97,3.1A2.94,2.94,0,0,0,12.46.081Zm.009-.972a1.872,1.872,0,0,1-1.908-2.133,1.876,1.876,0,0,1,1.908-2.133c1.26,0,1.9.891,1.9,2.133S13.729-.891,12.469-.891ZM21.551,0V-.9H18.3V-2.628h2.691v-.9H18.3v-1.6h3.249v-.9H17.285V0Zm4.041.09c1.224,0,2.142-.63,2.142-1.719,0-1.152-.864-1.53-1.827-1.764l-.675-.162c-.657-.162-1.071-.351-1.071-.882,0-.459.414-.729.99-.729A1.771,1.771,0,0,1,26.869-4.1l.765-.729a2.581,2.581,0,0,0-2.421-1.287c-1.134,0-2.115.612-2.115,1.746s.909,1.53,1.764,1.71l.567.126c.783.171,1.269.333,1.269.918,0,.549-.486.765-1.089.765A2.034,2.034,0,0,1,23.639-2.07l-.72.729A2.74,2.74,0,0,0,25.591.09ZM-26.883,10V9.1h-3.249V7.372h2.691v-.9h-2.691V4.87h3.249v-.9h-4.266V10Zm2.7,0V7.165l-.144-1.989.711,1.728,1.044,2.079h1.026L-20.5,6.9l.693-1.728-.126,1.989V10h1.017V3.97H-20.16l-1.3,2.646-.6,1.539-.594-1.539-1.3-2.646H-25.2V10Zm11.988.09c1.476,0,2.187-.675,2.187-2.421V3.97h-1.017V7.525c0,1.2-.3,1.593-1.17,1.593-.927,0-1.368-.693-1.485-1.656l-.882.648A2.324,2.324,0,0,0-12.195,10.09Zm6.966-.009a2.945,2.945,0,0,0,2.97-3.105,2.943,2.943,0,0,0-2.97-3.1,2.937,2.937,0,0,0-2.97,3.1A2.94,2.94,0,0,0-5.229,10.081Zm.009-.972A1.872,1.872,0,0,1-7.128,6.976,1.876,1.876,0,0,1-5.22,4.843c1.26,0,1.9.891,1.9,2.133S-3.96,9.109-5.22,9.109ZM.612,10V7.66H1.35a1.067,1.067,0,0,1,1.1.549L3.492,10h1.17L3.636,8.263a1.368,1.368,0,0,0-.819-.711,1.677,1.677,0,0,0,1.638-1.71c0-1.242-.918-1.872-2.142-1.872H-.4V10Zm1.6-5.13c.639,0,1.188.234,1.188,1,0,.729-.549.963-1.188.963H.612V4.87ZM7.191,10V6.679l-.072-1.1.549.855L10.17,10h.936V3.97H10.089V7.282l.063,1.143L9.558,7.48,7.119,3.97H6.174V10Zm6.291,0,.576-1.521h2.547L17.181,10H18.3L15.939,3.97h-1.17L12.411,10Zm1.53-4.032.324-1.089.324,1.089L16.272,7.6H14.391ZM21.879,10A2.683,2.683,0,0,0,24.75,6.985,2.687,2.687,0,0,0,21.879,3.97H19.6V10Zm-.126-5.13c1.251,0,1.935.6,1.935,2.115S23,9.1,21.762,9.1H20.619V4.87ZM26.883,10l.576-1.521h2.547L30.582,10H31.7L29.34,3.97H28.17L25.812,10Zm1.53-4.032.324-1.089.324,1.089L29.673,7.6H27.792Z" transform="translate(757.166 182.81)" fill="#e3e3e3"/>
    <path id="Caminho_9573" data-name="Caminho 9573" d="M-42.178,0V-1.908h1.449A1.992,1.992,0,0,0-38.47-3.942,2,2,0,0,0-40.729-6.03H-43.2V0Zm1.35-5.13c.693,0,1.305.252,1.305,1.188,0,.873-.612,1.134-1.305,1.134h-1.35V-5.13ZM-32.548,0V-.9H-35.8V-2.628h2.691v-.9H-35.8v-1.6h3.249v-.9h-4.266V0Zm2.7,0V-2.34h.738a1.067,1.067,0,0,1,1.1.549L-26.968,0h1.17l-1.026-1.737a1.368,1.368,0,0,0-.819-.711,1.677,1.677,0,0,0,1.638-1.71c0-1.242-.918-1.872-2.142-1.872h-2.718V0Zm1.6-5.13c.639,0,1.188.234,1.188,1,0,.729-.549.963-1.188.963h-1.6V-5.13Zm6.4,5.22c1.224,0,2.142-.63,2.142-1.719,0-1.152-.864-1.53-1.827-1.764l-.675-.162c-.657-.162-1.071-.351-1.071-.882,0-.459.414-.729.99-.729A1.771,1.771,0,0,1-20.569-4.1l.765-.729a2.581,2.581,0,0,0-2.421-1.287c-1.134,0-2.115.612-2.115,1.746s.909,1.53,1.764,1.71l.567.126c.783.171,1.269.333,1.269.918,0,.549-.486.765-1.089.765A2.034,2.034,0,0,1-23.8-2.07l-.72.729A2.74,2.74,0,0,0-21.847.09Zm6.624-.009a2.945,2.945,0,0,0,2.97-3.105,2.943,2.943,0,0,0-2.97-3.1,2.937,2.937,0,0,0-2.97,3.1A2.94,2.94,0,0,0-15.223.081Zm.009-.972a1.872,1.872,0,0,1-1.908-2.133,1.876,1.876,0,0,1,1.908-2.133c1.26,0,1.9.891,1.9,2.133S-13.954-.891-15.214-.891ZM-9.382,0V-3.321l-.072-1.1.549.855L-6.4,0h.936V-6.03H-6.484v3.312l.063,1.143-.594-.945L-9.454-6.03H-10.4V0Zm6.291,0,.576-1.521H.032L.608,0H1.724L-.634-6.03H-1.8L-4.162,0Zm1.53-4.032.324-1.089.324,1.089L-.3-2.4H-2.182ZM7.133,0V-.9H4.046V-6.03H3.029V0Zm2.43,0V-6.03H8.546V0Zm6.372,0V-.9H13.01l-.693.045.711-.837,2.727-3.537v-.8h-4.4v.9h2.412l.855-.045L13.73-4.122,11.174-.8V0ZM18,0l.576-1.521h2.547L21.7,0H22.82L20.462-6.03h-1.17L16.934,0Zm1.53-4.032.324-1.089.324,1.089L20.795-2.4H18.914Zm7.146,5.724c.5,0,.837-.27.837-.693,0-.333-.252-.585-.729-.576l.243-.36a2.637,2.637,0,0,0,2.421-1.854l-.882-.648A1.736,1.736,0,0,1,26.788-.891c-1.242,0-1.827-.891-1.827-2.133s.585-2.133,1.827-2.133A1.729,1.729,0,0,1,28.57-3.609l.882-.648A2.658,2.658,0,0,0,26.78-6.12a2.836,2.836,0,0,0-2.9,3.1A2.832,2.832,0,0,0,26.465.054l-.315.54.18.216a1.834,1.834,0,0,1,.288-.027c.171,0,.288.054.288.207,0,.126-.09.2-.252.2a.9.9,0,0,1-.639-.315l-.189.522A1.256,1.256,0,0,0,26.681,1.692ZM33.025-6.6A.739.739,0,0,1,32.845-7a.111.111,0,0,1,.117-.126.819.819,0,0,1,.387.207,1.3,1.3,0,0,0,.756.333.5.5,0,0,0,.522-.567,1.011,1.011,0,0,0-.153-.531h-.594a.686.686,0,0,1,.189.387.116.116,0,0,1-.117.126.726.726,0,0,1-.378-.207,1.216,1.216,0,0,0-.729-.324.541.541,0,0,0-.585.576,1.035,1.035,0,0,0,.153.531ZM31.576,0l.576-1.521H34.7L35.275,0h1.116L34.034-6.03h-1.17L30.505,0Zm1.53-4.032.324-1.089.324,1.089L34.367-2.4H32.486ZM40.424.081a2.945,2.945,0,0,0,2.97-3.105,2.943,2.943,0,0,0-2.97-3.1,2.937,2.937,0,0,0-2.97,3.1A2.94,2.94,0,0,0,40.424.081Zm.009-.972a1.872,1.872,0,0,1-1.908-2.133,1.876,1.876,0,0,1,1.908-2.133c1.26,0,1.9.891,1.9,2.133S41.692-.891,40.432-.891ZM-26.869,10V8.092h1.449a1.992,1.992,0,0,0,2.259-2.034A2,2,0,0,0-25.42,3.97h-2.466V10Zm1.35-5.13c.693,0,1.305.252,1.305,1.188,0,.873-.612,1.134-1.305,1.134h-1.35V4.87Zm6.8,5.211a2.945,2.945,0,0,0,2.97-3.105,2.943,2.943,0,0,0-2.97-3.1,2.937,2.937,0,0,0-2.97,3.1A2.94,2.94,0,0,0-18.715,10.081Zm.009-.972a1.872,1.872,0,0,1-1.908-2.133,1.876,1.876,0,0,1,1.908-2.133c1.26,0,1.9.891,1.9,2.133S-17.446,9.109-18.706,9.109Zm5.832.891V7.66h.738a1.067,1.067,0,0,1,1.1.549L-9.994,10h1.17L-9.85,8.263a1.368,1.368,0,0,0-.819-.711,1.677,1.677,0,0,0,1.638-1.71c0-1.242-.918-1.872-2.142-1.872h-2.718V10Zm1.6-5.13c.639,0,1.188.234,1.188,1,0,.729-.549.963-1.188.963h-1.6V4.87ZM-2.137,10A2.683,2.683,0,0,0,.734,6.985,2.687,2.687,0,0,0-2.137,3.97H-4.414V10Zm-.126-5.13c1.251,0,1.935.6,1.935,2.115S-1.012,9.1-2.254,9.1H-3.4V4.87ZM2.867,10l.576-1.521H5.99L6.566,10H7.682L5.324,3.97H4.154L1.8,10ZM4.4,5.968l.324-1.089.324,1.089L5.657,7.6H3.776ZM11.264,10a2.683,2.683,0,0,0,2.871-3.015A2.687,2.687,0,0,0,11.264,3.97H8.986V10Zm-.126-5.13c1.251,0,1.935.6,1.935,2.115S12.389,9.1,11.146,9.1H10V4.87Zm7.632,5.211a2.945,2.945,0,0,0,2.97-3.105,2.973,2.973,0,1,0-5.94,0A2.94,2.94,0,0,0,18.769,10.081Zm.009-.972A1.872,1.872,0,0,1,16.87,6.976a1.876,1.876,0,0,1,1.908-2.133c1.26,0,1.9.891,1.9,2.133S20.038,9.109,18.778,9.109Zm7.191.981c1.224,0,2.142-.63,2.142-1.719,0-1.152-.864-1.53-1.827-1.764l-.675-.162c-.657-.162-1.071-.351-1.071-.882,0-.459.414-.729.99-.729A1.771,1.771,0,0,1,27.247,5.9l.765-.729a2.581,2.581,0,0,0-2.421-1.287c-1.134,0-2.115.612-2.115,1.746s.909,1.53,1.764,1.71l.567.126c.783.171,1.269.333,1.269.918,0,.549-.486.765-1.089.765A2.034,2.034,0,0,1,24.016,7.93l-.72.729A2.74,2.74,0,0,0,25.969,10.09Z" transform="translate(846.379 196.587)" fill="#e3e3e3"/>
    <path id="Caminho_9575" data-name="Caminho 9575" d="M-31.414.072a2.668,2.668,0,0,0,2.673-1.863l-.882-.648A1.736,1.736,0,0,1-31.406-.891c-1.242,0-1.827-.891-1.827-2.133s.585-2.133,1.827-2.133a1.729,1.729,0,0,1,1.782,1.548l.882-.648A2.658,2.658,0,0,0-31.414-6.12a2.836,2.836,0,0,0-2.9,3.1A2.836,2.836,0,0,0-31.414.072Zm5.4-.072V-2.34h.738a1.067,1.067,0,0,1,1.1.549L-23.134,0h1.17L-22.99-1.737a1.368,1.368,0,0,0-.819-.711,1.677,1.677,0,0,0,1.638-1.71c0-1.242-.918-1.872-2.142-1.872h-2.718V0Zm1.6-5.13c.639,0,1.188.234,1.188,1,0,.729-.549.963-1.188.963h-1.6V-5.13ZM-16.187,0V-.9h-3.249V-2.628h2.691v-.9h-2.691v-1.6h3.249v-.9h-4.266V0Zm4.041.09C-10.921.09-10-.54-10-1.629c0-1.152-.864-1.53-1.827-1.764l-.675-.162c-.657-.162-1.071-.351-1.071-.882,0-.459.414-.729.99-.729A1.771,1.771,0,0,1-10.867-4.1l.765-.729a2.581,2.581,0,0,0-2.421-1.287c-1.134,0-2.115.612-2.115,1.746s.909,1.53,1.764,1.71l.567.126c.783.171,1.269.333,1.269.918,0,.549-.486.765-1.089.765A2.034,2.034,0,0,1-14.1-2.07l-.72.729A2.74,2.74,0,0,0-12.146.09ZM-5.594.072A2.668,2.668,0,0,0-2.921-1.791L-3.8-2.439A1.736,1.736,0,0,1-5.585-.891c-1.242,0-1.827-.891-1.827-2.133s.585-2.133,1.827-2.133A1.729,1.729,0,0,1-3.8-3.609l.882-.648A2.658,2.658,0,0,0-5.594-6.12a2.836,2.836,0,0,0-2.9,3.1A2.836,2.836,0,0,0-5.594.072ZM-.194,0V-6.03H-1.211V0ZM3.073,0V-2.835L2.929-4.824,3.64-3.1,4.684-1.017H5.71L6.754-3.1l.693-1.728L7.321-2.835V0H8.338V-6.03H7.1L5.8-3.384,5.2-1.845,4.6-3.384,3.307-6.03H2.056V0ZM14.854,0V-.9H11.605V-2.628H14.3v-.9H11.605v-1.6h3.249v-.9H10.588V0Zm2.7,0V-3.321l-.072-1.1.549.855L20.533,0h.936V-6.03H20.452v3.312l.063,1.143-.594-.945L17.482-6.03h-.945V0Zm8.1,0V-5.13h1.854v-.9H22.792v.9h1.845V0Zm5.688.081a2.945,2.945,0,0,0,2.97-3.105,2.943,2.943,0,0,0-2.97-3.1,2.937,2.937,0,0,0-2.97,3.1A2.94,2.94,0,0,0,31.342.081Zm.009-.972a1.872,1.872,0,0,1-1.908-2.133,1.876,1.876,0,0,1,1.908-2.133c1.26,0,1.9.891,1.9,2.133S32.611-.891,31.351-.891ZM-29.529,10a2.683,2.683,0,0,0,2.871-3.015A2.687,2.687,0,0,0-29.529,3.97h-2.277V10Zm-.126-5.13c1.251,0,1.935.6,1.935,2.115S-28.4,9.1-29.646,9.1h-1.143V4.87ZM-20.538,10V9.1h-3.249V7.372H-21.1v-.9h-2.691V4.87h3.249v-.9H-24.8V10Zm6.921.09c1.647,0,2.412-.837,2.412-2.664V3.97h-1.008V7.435c0,1.2-.387,1.683-1.395,1.683-.99,0-1.4-.486-1.4-1.683V3.97h-1.008V7.426C-16.011,9.253-15.228,10.09-13.617,10.09Zm6.768,0c1.224,0,2.142-.63,2.142-1.719,0-1.152-.864-1.53-1.827-1.764l-.675-.162c-.657-.162-1.071-.351-1.071-.882,0-.459.414-.729.99-.729A1.771,1.771,0,0,1-5.571,5.9l.765-.729A2.581,2.581,0,0,0-7.227,3.889c-1.134,0-2.115.612-2.115,1.746s.909,1.53,1.764,1.71l.567.126c.783.171,1.269.333,1.269.918,0,.549-.486.765-1.089.765A2.034,2.034,0,0,1-8.8,7.93l-.72.729A2.74,2.74,0,0,0-6.849,10.09Zm6.282,0c1.647,0,2.412-.837,2.412-2.664V3.97H.837V7.435c0,1.2-.387,1.683-1.395,1.683-.99,0-1.4-.486-1.4-1.683V3.97H-2.961V7.426C-2.961,9.253-2.178,10.09-.567,10.09ZM6.318,3.4,7.4,2.359H6.147L5.436,3.4ZM4.149,10l.576-1.521H7.272L7.848,10H8.964L6.606,3.97H5.436L3.078,10Zm1.53-4.032L6,4.879l.324,1.089L6.939,7.6H5.058ZM11.286,10V7.66h.738a1.067,1.067,0,0,1,1.1.549L14.166,10h1.17L14.31,8.263a1.368,1.368,0,0,0-.819-.711,1.677,1.677,0,0,0,1.638-1.71c0-1.242-.918-1.872-2.142-1.872H10.269V10Zm1.6-5.13c.639,0,1.188.234,1.188,1,0,.729-.549.963-1.188.963h-1.6V4.87ZM17.865,10V3.97H16.848V10Zm4.824.081a2.945,2.945,0,0,0,2.97-3.105,2.973,2.973,0,1,0-5.94,0A2.94,2.94,0,0,0,22.689,10.081Zm.009-.972A1.872,1.872,0,0,1,20.79,6.976,1.876,1.876,0,0,1,22.7,4.843c1.26,0,1.9.891,1.9,2.133S23.958,9.109,22.7,9.109Zm7.191.981c1.224,0,2.142-.63,2.142-1.719,0-1.152-.864-1.53-1.827-1.764l-.675-.162c-.657-.162-1.071-.351-1.071-.882,0-.459.414-.729.99-.729A1.771,1.771,0,0,1,31.167,5.9l.765-.729a2.581,2.581,0,0,0-2.421-1.287c-1.134,0-2.115.612-2.115,1.746s.909,1.53,1.764,1.71l.567.126C30.51,7.642,31,7.8,31,8.389c0,.549-.486.765-1.089.765A2.034,2.034,0,0,1,27.936,7.93l-.72.729A2.74,2.74,0,0,0,29.889,10.09Z" transform="translate(785.99 105.188)" fill="#e3e3e3"/>
    <g id="Grupo_23750" data-name="Grupo 23750" transform="translate(741.461 139.931) rotate(-30)">
      <path id="Caminho_9203" data-name="Caminho 9203" d="M0,29.495S.5,4.156,25.493,0" transform="translate(0 3.685)" fill="none" stroke="#ff0070" stroke-width="1"/>
      <path id="Polígono_6" data-name="Polígono 6" d="M2.472,1.248a1,1,0,0,1,1.664,0L5.572,3.4A1,1,0,0,1,4.74,4.956H1.869A1,1,0,0,1,1.036,3.4Z" transform="translate(30.425 0) rotate(90)" fill="#ff0070"/>
    </g>
    <g id="Grupo_23751" data-name="Grupo 23751" transform="matrix(-0.839, 0.545, -0.545, -0.839, 898.578, 170.093)">
      <path id="Caminho_9203-2" data-name="Caminho 9203" d="M0,29.495S.5,4.156,25.493,0" transform="translate(0 3.685)" fill="none" stroke="#ff0070" stroke-width="1"/>
      <path id="Polígono_6-2" data-name="Polígono 6" d="M2.472,1.248a1,1,0,0,1,1.664,0L5.572,3.4A1,1,0,0,1,4.74,4.956H1.869A1,1,0,0,1,1.036,3.4Z" transform="translate(30.425 0) rotate(90)" fill="#ff0070"/>
    </g>
    <g id="Grupo_23752" data-name="Grupo 23752" transform="translate(848.465 77.806) rotate(61)">
      <path id="Caminho_9203-3" data-name="Caminho 9203" d="M0,29.495S.5,4.156,25.493,0" transform="translate(0 3.685)" fill="none" stroke="#ff0070" stroke-width="1"/>
      <path id="Polígono_6-3" data-name="Polígono 6" d="M2.472,1.248a1,1,0,0,1,1.664,0L5.572,3.4A1,1,0,0,1,4.74,4.956H1.869A1,1,0,0,1,1.036,3.4Z" transform="translate(30.425 0) rotate(90)" fill="#ff0070"/>
    </g>
    <g id="Grupo_23753" data-name="Grupo 23753" transform="matrix(-0.53, -0.848, 0.848, -0.53, 794.827, 229.44)">
      <path id="Caminho_9203-4" data-name="Caminho 9203" d="M0,29.495S.5,4.156,25.493,0" transform="translate(0 3.685)" fill="none" stroke="#ff0070" stroke-width="1"/>
      <path id="Polígono_6-4" data-name="Polígono 6" d="M2.472,1.248a1,1,0,0,1,1.664,0L5.572,3.4A1,1,0,0,1,4.74,4.956H1.869A1,1,0,0,1,1.036,3.4Z" transform="translate(30.425 0) rotate(90)" fill="#ff0070"/>
    </g>
    <ellipse id="Elipse_2176" data-name="Elipse 2176" cx="51.3" cy="47.307" rx="51.3" ry="47.307" transform="matrix(0.951, 0.309, -0.309, 0.951, 785.276, 93.012)" opacity="0.5" fill="url(#radial-gradient)" style="mix-blend-mode: screen;isolation: isolate"/>
    <ellipse id="Elipse_2181" data-name="Elipse 2181" cx="2.478" cy="2.478" rx="2.478" ry="2.478" transform="translate(817.794 151.378)" fill="#af39e6"/>
  </g>
</svg>
