<svg xmlns="http://www.w3.org/2000/svg" xmlns:xlink="http://www.w3.org/1999/xlink" width="361.1" height="538.205" viewBox="0 0 361.1 538.205">
  <defs>
    <style>
      .cls-1, .cls-2 {
        fill: #ff0070;
      }

      .cls-1 {
        stroke: #ff0070;
        stroke-width: 0.5px;
      }

      .cls-3, .cls-4 {
        fill: #fff;
      }

      .cls-3 {
        font-size: 10px;
        font-family: CabinetGrotesk-Bold, Cabinet Grotesk;
        font-weight: 700;
        letter-spacing: 0.08em;
      }

      .cls-5, .cls-9 {
        fill: none;
      }

      .cls-5 {
        stroke: #000;
        stroke-width: 1.5px;
      }

      .cls-6 {
        clip-path: url(#clip-path);
      }

      .cls-7 {
        clip-path: url(#clip-path-2);
      }

      .cls-8 {
        stroke: none;
      }

      .cls-10 {
        filter: url(#Retângulo_4404);
      }

      .cls-11 {
        filter: url(#Retângulo_4406);
      }

      .cls-12 {
        filter: url(#Retângulo_4405);
      }

      .cls-13 {
        filter: url(#Retângulo_4407);
      }

      .cls-14 {
        filter: url(#Retângulo_4411);
      }

      .cls-15 {
        filter: url(#Retângulo_4412);
      }

      .cls-16 {
        filter: url(#Retângulo_4408);
      }

      .cls-17 {
        filter: url(#Retângulo_4410);
      }

      .cls-18 {
        filter: url(#Retângulo_4409);
      }

      .cls-19 {
        filter: url(#Retângulo_4355);
      }
    </style>
    <filter id="Retângulo_4355">
      <feOffset input="SourceAlpha"/>
      <feGaussianBlur stdDeviation="10" result="blur"/>
      <feFlood flood-color="#ad7cc4" result="color"/>
      <feComposite operator="out" in="SourceGraphic" in2="blur"/>
      <feComposite operator="in" in="color"/>
      <feComposite operator="in" in2="SourceGraphic"/>
    </filter>
    <filter id="Retângulo_4409">
      <feOffset input="SourceAlpha"/>
      <feGaussianBlur stdDeviation="10" result="blur-2"/>
      <feFlood flood-color="#ad7cc4" result="color-2"/>
      <feComposite operator="out" in="SourceGraphic" in2="blur-2"/>
      <feComposite operator="in" in="color-2"/>
      <feComposite operator="in" in2="SourceGraphic"/>
    </filter>
    <clipPath id="clip-path">
      <rect id="Retângulo_4376" data-name="Retângulo 4376" class="cls-1" width="59.393" height="36.528"/>
    </clipPath>
    <filter id="Retângulo_4410">
      <feOffset input="SourceAlpha"/>
      <feGaussianBlur stdDeviation="10" result="blur-3"/>
      <feFlood flood-color="#ad7cc4" result="color-3"/>
      <feComposite operator="out" in="SourceGraphic" in2="blur-3"/>
      <feComposite operator="in" in="color-3"/>
      <feComposite operator="in" in2="SourceGraphic"/>
    </filter>
    <filter id="Retângulo_4408">
      <feOffset input="SourceAlpha"/>
      <feGaussianBlur stdDeviation="10" result="blur-4"/>
      <feFlood flood-color="#ad7cc4" result="color-4"/>
      <feComposite operator="out" in="SourceGraphic" in2="blur-4"/>
      <feComposite operator="in" in="color-4"/>
      <feComposite operator="in" in2="SourceGraphic"/>
    </filter>
    <filter id="Retângulo_4412">
      <feOffset input="SourceAlpha"/>
      <feGaussianBlur stdDeviation="10" result="blur-5"/>
      <feFlood flood-color="#ad7cc4" result="color-5"/>
      <feComposite operator="out" in="SourceGraphic" in2="blur-5"/>
      <feComposite operator="in" in="color-5"/>
      <feComposite operator="in" in2="SourceGraphic"/>
    </filter>
    <filter id="Retângulo_4411">
      <feOffset input="SourceAlpha"/>
      <feGaussianBlur stdDeviation="10" result="blur-6"/>
      <feFlood flood-color="#ad7cc4" result="color-6"/>
      <feComposite operator="out" in="SourceGraphic" in2="blur-6"/>
      <feComposite operator="in" in="color-6"/>
      <feComposite operator="in" in2="SourceGraphic"/>
    </filter>
    <filter id="Retângulo_4407">
      <feOffset input="SourceAlpha"/>
      <feGaussianBlur stdDeviation="10" result="blur-7"/>
      <feFlood flood-color="#ad7cc4" result="color-7"/>
      <feComposite operator="out" in="SourceGraphic" in2="blur-7"/>
      <feComposite operator="in" in="color-7"/>
      <feComposite operator="in" in2="SourceGraphic"/>
    </filter>
    <filter id="Retângulo_4405">
      <feOffset input="SourceAlpha"/>
      <feGaussianBlur stdDeviation="10" result="blur-8"/>
      <feFlood flood-color="#ad7cc4" result="color-8"/>
      <feComposite operator="out" in="SourceGraphic" in2="blur-8"/>
      <feComposite operator="in" in="color-8"/>
      <feComposite operator="in" in2="SourceGraphic"/>
    </filter>
    <filter id="Retângulo_4406">
      <feOffset input="SourceAlpha"/>
      <feGaussianBlur stdDeviation="10" result="blur-9"/>
      <feFlood flood-color="#ad7cc4" result="color-9"/>
      <feComposite operator="out" in="SourceGraphic" in2="blur-9"/>
      <feComposite operator="in" in="color-9"/>
      <feComposite operator="in" in2="SourceGraphic"/>
    </filter>
    <filter id="Retângulo_4404">
      <feOffset input="SourceAlpha"/>
      <feGaussianBlur stdDeviation="10" result="blur-10"/>
      <feFlood flood-color="#ad7cc4" result="color-10"/>
      <feComposite operator="out" in="SourceGraphic" in2="blur-10"/>
      <feComposite operator="in" in="color-10"/>
      <feComposite operator="in" in2="SourceGraphic"/>
    </filter>
    <clipPath id="clip-path-2">
      <rect id="Retângulo_4377" data-name="Retângulo 4377" class="cls-2" width="51.718" height="42.949"/>
    </clipPath>
  </defs>
  <g id="Grupo_23962" data-name="Grupo 23962" transform="translate(8585.033 4046.341)">
    <text id="Otimizadores_de_nova_geração" data-name="Otimizadores de 
nova geração" class="cls-3" transform="translate(-8402.961 -3829.742)"><tspan x="-49.2" y="0">OTIMIZADORES DE </tspan><tspan x="-41.545" y="14">NOVA GERAÇÃO</tspan></text>
    <text id="Linguagem_natural_aplicada" data-name="Linguagem 
natural 
aplicada" class="cls-3" transform="translate(-8527.18 -3965.419)"><tspan x="-32.35" y="0">LINGUAGEM </tspan><tspan x="-24.915" y="14">NATURAL </tspan><tspan x="-25.945" y="28">APLICADA</tspan></text>
    <text id="Raciocinadores_digitais" data-name="Raciocinadores 
digitais" class="cls-3" transform="translate(-8525.138 -3829.713)"><tspan x="-48.61" y="0">RACIOCINADORES </tspan><tspan x="-21.785" y="14">DIGITAIS</tspan></text>
    <g id="noun-natural-language-processing-2985136" transform="translate(-8552.569 -4028.466)">
      <path id="Caminho_9032" data-name="Caminho 9032" class="cls-2" d="M128.672,436.939a.6.6,0,0,0-.6.6v4.84a1.817,1.817,0,0,1-1.815,1.815H108.908a1.8,1.8,0,0,0-1.283.532l-4.36,4.36v-3.077a1.817,1.817,0,0,0-1.815-1.815H99.03a1.817,1.817,0,0,1-1.815-1.815V423.025a1.817,1.817,0,0,1,1.815-1.815h12.7a.6.6,0,0,0,0-1.21H99.03a3.028,3.028,0,0,0-3.025,3.025v19.358a3.028,3.028,0,0,0,3.025,3.025h2.42a.606.606,0,0,1,.6.6v4.537a.6.6,0,0,0,1.033.428l5.393-5.393a.6.6,0,0,1,.428-.177h17.344a3.028,3.028,0,0,0,3.025-3.025v-4.84a.6.6,0,0,0-.6-.6Z" transform="translate(-96.005 -410.321)"/>
      <path id="Caminho_9033" data-name="Caminho 9033" class="cls-2" d="M474.247,228H447.025A3.028,3.028,0,0,0,444,231.025v4.84a.6.6,0,0,0,1.21,0v-4.84a1.817,1.817,0,0,1,1.815-1.815h27.223a1.817,1.817,0,0,1,1.815,1.815v19.358a1.817,1.817,0,0,1-1.815,1.815h-2.42a1.817,1.817,0,0,0-1.815,1.815v3.077l-4.36-4.36a1.8,1.8,0,0,0-1.283-.532h-2.826a.6.6,0,0,0,0,1.21h2.826a.6.6,0,0,1,.428.177l5.393,5.393a.605.605,0,0,0,1.033-.428v-4.537a.606.606,0,0,1,.6-.6h2.42a3.028,3.028,0,0,0,3.025-3.025V231.025A3.028,3.028,0,0,0,474.248,228Z" transform="translate(-426.457 -228)"/>
      <path id="Caminho_9034" data-name="Caminho 9034" class="cls-2" d="M534.654,504H528.6a.6.6,0,0,0-.6.6v6.049a.6.6,0,0,0,.6.6h6.049a.6.6,0,0,0,.6-.6v-6.049A.6.6,0,0,0,534.654,504Z" transform="translate(-506.222 -490.086)"/>
      <path id="Caminho_9035" data-name="Caminho 9035" class="cls-2" d="M416.568,386.519a.6.6,0,0,0-.6-.6h-1.815v-3.025h1.815a.6.6,0,1,0,0-1.21h-1.815v-3.025h1.815a.6.6,0,0,0,0-1.21h-1.815a3.028,3.028,0,0,0-3.025-3.025V372.6a.6.6,0,1,0-1.21,0v1.815h-3.025V372.6a.6.6,0,1,0-1.21,0v1.815h-3.025V372.6a.6.6,0,1,0-1.21,0v1.815a3.028,3.028,0,0,0-3.025,3.025H396.6a.6.6,0,0,0,0,1.21h1.815v3.025H396.6a.6.6,0,0,0,0,1.21h1.815v3.025H396.6a.6.6,0,0,0,0,1.21h1.815a3.028,3.028,0,0,0,3.025,3.025v1.815a.6.6,0,1,0,1.21,0v-1.815h3.025v1.815a.6.6,0,1,0,1.21,0v-1.815h3.025v1.815a.6.6,0,1,0,1.21,0v-1.815a3.028,3.028,0,0,0,3.025-3.025h1.815A.6.6,0,0,0,416.568,386.519Zm-3.63.6a1.817,1.817,0,0,1-1.815,1.815h-9.679a1.817,1.817,0,0,1-1.815-1.815v-9.679a1.817,1.817,0,0,1,1.815-1.815h9.679a1.817,1.817,0,0,1,1.815,1.815Z" transform="translate(-380.876 -364.74)"/>
    </g>
    <g id="noun-artificial-intelligence-2985130" transform="translate(-8546.648 -3894.406)">
      <path id="Caminho_9038" data-name="Caminho 9038" class="cls-2" d="M645.553,653.832a2.338,2.338,0,0,1-2.722-.055,2.347,2.347,0,0,0-1.671.692.531.531,0,0,0,.751.751,1.332,1.332,0,0,1,1.84,0,1.3,1.3,0,0,1,0,1.84.531.531,0,1,0,.751.751,2.33,2.33,0,0,0,.423-2.744,1.334,1.334,0,0,1,1.548.208.531.531,0,1,0,.751-.751A2.347,2.347,0,0,0,645.553,653.832Z" transform="translate(-617.954 -630.162)"/>
      <path id="Caminho_9039" data-name="Caminho 9039" class="cls-2" d="M358.1,348.581a3.867,3.867,0,0,0-.419-.379,2.568,2.568,0,0,0-.749-4.557,4.008,4.008,0,0,0-.132-2.593,3.77,3.77,0,0,0-2.236-2.167,4.032,4.032,0,0,0-2.455-.1,2.7,2.7,0,0,0-.2-1.259,2.447,2.447,0,0,0-1.443-1.373,2.608,2.608,0,0,0-2.408.308,2.573,2.573,0,0,0-.561.548,2.57,2.57,0,0,0-.561-.548,2.607,2.607,0,0,0-2.408-.309,2.448,2.448,0,0,0-1.443,1.373,2.7,2.7,0,0,0-.2,1.259,4.028,4.028,0,0,0-2.455.1,3.77,3.77,0,0,0-2.236,2.167,4.009,4.009,0,0,0-.131,2.593,2.568,2.568,0,0,0-.749,4.557,3.886,3.886,0,0,0-.419.379h0a3.9,3.9,0,0,0,1.558,6.4,3.137,3.137,0,0,0,.213,1.98,2.973,2.973,0,0,0,1.577,1.532,6.267,6.267,0,0,1,4.628.865,3.379,3.379,0,0,0,1.23-.236,2.973,2.973,0,0,0,1.4-1.144,2.974,2.974,0,0,0,1.4,1.143,3.385,3.385,0,0,0,1.23.236,6.266,6.266,0,0,1,4.628-.865,2.974,2.974,0,0,0,1.578-1.532,3.136,3.136,0,0,0,.213-1.981,3.9,3.9,0,0,0,1.558-6.4s0,0,0,0Zm-12.386,9.548a2.093,2.093,0,0,1-2.479-.636.531.531,0,0,0-.694-.122,2.013,2.013,0,0,1-1.9.136,1.9,1.9,0,0,1-1.011-.979,2.061,2.061,0,0,1-.018-1.709.531.531,0,0,0-.394-.738,2.842,2.842,0,0,1-1.564-4.766,2.885,2.885,0,0,1,1.038-.691.531.531,0,0,0-.113-1.021,1.5,1.5,0,0,1-1.294-1.491A1.518,1.518,0,0,1,338.8,344.6a.531.531,0,0,0,.472-.77,2.869,2.869,0,0,1-.088-2.391,2.7,2.7,0,0,1,1.6-1.55,2.882,2.882,0,0,1,2.8.434.531.531,0,0,0,.731-.763,1.52,1.52,0,0,1-.243-1.623,1.4,1.4,0,0,1,.816-.777,1.557,1.557,0,0,1,1.44.175,1.519,1.519,0,0,1,.643,1.24V352.9a2.724,2.724,0,0,0-1.69-.6,2.755,2.755,0,0,0-2.752,2.752.531.531,0,0,0,1.062,0,1.69,1.69,0,0,1,3.38,0V356.2A2.056,2.056,0,0,1,345.715,358.129Zm10.055-4.048a.531.531,0,0,0-.394.738,2.059,2.059,0,0,1-.018,1.709,1.9,1.9,0,0,1-1.011.979,2.013,2.013,0,0,1-1.9-.136.532.532,0,0,0-.695.121,2.093,2.093,0,0,1-2.479.636,2.056,2.056,0,0,1-1.251-1.933V345.586a2.723,2.723,0,0,0,1.69.6,2.755,2.755,0,0,0,2.752-2.752.531.531,0,0,0-1.062,0,1.69,1.69,0,1,1-3.38,0v-4.856a1.512,1.512,0,0,1,1.517-1.515,1.683,1.683,0,0,1,.566.1,1.4,1.4,0,0,1,.816.777,1.52,1.52,0,0,1-.243,1.623.531.531,0,0,0,.731.763,2.882,2.882,0,0,1,2.8-.434,2.7,2.7,0,0,1,1.6,1.55,2.87,2.87,0,0,1-.088,2.391.531.531,0,0,0,.472.77,1.518,1.518,0,0,1,1.509,1.515,1.5,1.5,0,0,1-1.294,1.491.531.531,0,0,0-.113,1.021,2.883,2.883,0,0,1,1.038.691,2.842,2.842,0,0,1-1.564,4.765Z" transform="translate(-326.26 -326.44)"/>
      <path id="Caminho_9040" data-name="Caminho 9040" class="cls-2" d="M434.8,482.08a.531.531,0,1,0,1.062,0,2.359,2.359,0,0,0-1.085-1.982l.008-.007a2.366,2.366,0,0,0,0-3.342.531.531,0,0,0-.751.751,1.3,1.3,0,1,1-1.84,1.84.531.531,0,0,0-.751.751,2.355,2.355,0,0,0,1.671.691,2.407,2.407,0,0,0,.271-.026.516.516,0,0,0,.113.023A1.3,1.3,0,0,1,434.8,482.08Z" transform="translate(-417.515 -460.817)"/>
      <path id="Caminho_9041" data-name="Caminho 9041" class="cls-2" d="M161.942,141.767a.531.531,0,1,0,0-1.062h-4.778v-7.433h2.767a1.327,1.327,0,1,0,0-1.062h-2.767v-4.247a2.658,2.658,0,0,0-2.655-2.655h-4.245v-4.778a.531.531,0,0,0-1.062,0v4.778H141.77v-4.778a.531.531,0,0,0-1.062,0v4.778h-7.433v-2.767a1.327,1.327,0,1,0-1.062,0v2.767h-4.25a2.658,2.658,0,0,0-2.655,2.655v4.247h-4.778a.531.531,0,0,0,0,1.062h4.778v7.433h-4.778a.531.531,0,0,0,0,1.062h4.778V149.2h-2.767a1.327,1.327,0,1,0,0,1.062h2.767v4.247a2.658,2.658,0,0,0,2.655,2.655h4.247v2.772a1.327,1.327,0,1,0,1.062,0v-2.77h7.433v4.778a.531.531,0,1,0,1.062,0v-4.778H149.2v4.778a.531.531,0,1,0,1.062,0v-4.778h4.247a2.658,2.658,0,0,0,2.655-2.655v-4.247h4.778a.531.531,0,1,0,0-1.062h-4.778v-7.433Zm-5.84,12.742a1.594,1.594,0,0,1-1.593,1.593H127.964a1.594,1.594,0,0,1-1.593-1.593V127.964a1.594,1.594,0,0,1,1.593-1.593h26.546a1.594,1.594,0,0,1,1.593,1.593Z" transform="translate(-120 -120)"/>
    </g>
    <text id="Grafos_de_conhecimento_em_big_data" data-name="Grafos de 
conhecimento 
em big data" class="cls-3" transform="translate(-8403.215 -3965.419)"><tspan x="-31.265" y="0">GRAFOS DE </tspan><tspan x="-43.835" y="14">CONHECIMENTO </tspan><tspan x="-32.72" y="28">EM BIG DATA</tspan></text>
    <path id="noun-deep-learning-2985132" class="cls-2" d="M155.776,147.924l-.764-6.5a1.3,1.3,0,0,0-1.16-2.32l-4.062-3.874a1.3,1.3,0,0,0-2.164-1.337l-5-1.8a1.3,1.3,0,0,0-2.5-.4l-5.527.15a1.3,1.3,0,0,0-2.383.726c0,.009,0,.018,0,.027l-4.741,2.985a1.272,1.272,0,0,0-2.021,1.213l-5.323,3.042a1.3,1.3,0,0,0-1.9,1.744l-2.846,5.247c-.036,0-.071-.011-.108-.011a1.3,1.3,0,1,0,.285,2.572l4.323,5.9a1.289,1.289,0,0,0-.18.65,1.3,1.3,0,0,0,2.495.521h8.035a1.3,1.3,0,0,0,1.192.781,1.287,1.287,0,0,0,.4-.069l10.924,12.289a1.3,1.3,0,1,0,1.7-.649v-6.992a1.264,1.264,0,0,0,.761-1.4l5.29-3.4a1.3,1.3,0,0,0,1.79-1.826l2.921-4.746a1.288,1.288,0,0,0,.179.018,1.3,1.3,0,0,0,.379-2.542Zm-1.314.336-6.886-2.558c0-.037-.006-.073-.011-.109l6.1-4.184a1.292,1.292,0,0,0,.308.138l.764,6.5a1.3,1.3,0,0,0-.28.216ZM143,159.719l-10.275-3.853a1.322,1.322,0,0,0-.017-.165l6.676-4.513a1.291,1.291,0,0,0,.613.2l3.037,8.3-.034.033ZM128.76,148.978a1.3,1.3,0,0,0,.119-.154L138.7,150.4l-6.572,4.442a1.293,1.293,0,0,0-.694-.2c-.011,0-.021,0-.031,0Zm-1.2-11.311,9.352,3.262a1.321,1.321,0,0,0,.016.156l-8.467,5.927a1.288,1.288,0,0,0-.264-.121l-.827-9.1a1.285,1.285,0,0,0,.191-.128Zm20.242-1.829.013.011-1.8,8.654a1.3,1.3,0,0,0-.478.208L139.49,141a.809.809,0,0,0,0-.324Zm-10.273,6.1a1.29,1.29,0,0,0,.4.164l1.4,6.924a1.307,1.307,0,0,0-.346.362l-9.85-1.576Zm3.239,7.05a1.293,1.293,0,0,0-.413-.17l-1.4-6.919L145,145.6a1.279,1.279,0,0,0-.018.176,1.3,1.3,0,0,0,.038.3Zm.591.858,4.285-2.937a1.289,1.289,0,0,0,.635.172c.018,0,.034,0,.052-.005l3.733,7.663-8.69-4.558c0-.03.009-.059.009-.09a1.306,1.306,0,0,0-.025-.244Zm11.717-9.294-6.039,4.139,1.8-8.627a1.29,1.29,0,0,0,.238-.074l4.063,3.874a1.287,1.287,0,0,0-.083.443,1.305,1.305,0,0,0,.025.244Zm-5.8-5.616-8.112,4.728,2.181-6.179a1.294,1.294,0,0,0,.925-.407l5,1.8c0,.02,0,.04.006.059Zm-6.893-1.858-2.279,6.458-.025,0-3.478-6.256a1.29,1.29,0,0,0,.172-.4l5.379-.146a1.3,1.3,0,0,0,.232.341Zm-6.872.8a1.31,1.31,0,0,0,.214-.022l3.355,6.034-9.046-3.156c0-.024.007-.046.007-.07a1.308,1.308,0,0,0-.019-.192l4.637-2.92a1.292,1.292,0,0,0,.853.325Zm-7.184,4.016.817,8.982-6.584-5.761a1.3,1.3,0,0,0,.033-.283c0-.018,0-.035-.005-.053l5.378-3.073a1.287,1.287,0,0,0,.362.187Zm-7.037,4.24a1.289,1.289,0,0,0,.648-.179L126.4,147.6h-9.924a1.293,1.293,0,0,0-.168-.275l2.827-5.212a1.26,1.26,0,0,0,.161.016Zm-2.82,6.512h10.118c.006.013.014.024.02.037L121.4,154.7a1.2,1.2,0,0,0-.668-.031l-4.323-5.9a1.328,1.328,0,0,0,.07-.129Zm5.711,6.736,5.216-6.018a1.289,1.289,0,0,0,.384.064c.011,0,.021,0,.031,0l2.641,5.659a1.3,1.3,0,0,0-.218.335h-8.034c-.006-.013-.014-.024-.02-.037ZM142.64,160.7a1.3,1.3,0,0,0,.774,1.122v6.815L133.22,157.164Zm1.377-1.365-2.982-8.153,8.9,4.669c0,.03-.009.059-.009.09a1.289,1.289,0,0,0,.021.2l-5.29,3.4a1.3,1.3,0,0,0-.64-.211Zm7.212-4.7c-.018,0-.034,0-.052.005l-3.859-7.92,6.783,2.52a1.292,1.292,0,0,0,.227.667l-2.921,4.746a1.293,1.293,0,0,0-.179-.018Z" transform="translate(-8538.692 -4158.937)"/>
    <g id="noun-quantum-computing-4116531" transform="translate(-8428.152 -3891.967)">
      <path id="Caminho_9047" data-name="Caminho 9047" class="cls-2" d="M144.431,106.224V82.53a2.554,2.554,0,0,0-2.551-2.551h-6.159c-.01.064-.018.126-.029.191-.034.2-.072.412-.114.623q.306.1.6.213c.138.052.271.1.4.157h5.3a1.368,1.368,0,0,1,1.366,1.366v23.693H127.377V107.6h-8.217v-1.376H103.292V82.53a1.368,1.368,0,0,1,1.366-1.366h5.3c.132-.053.266-.106.4-.157q.291-.109.6-.213-.062-.317-.114-.623c-.011-.065-.019-.127-.029-.191h-6.159a2.554,2.554,0,0,0-2.551,2.551v23.693H98v3.335a4.123,4.123,0,0,0,4.118,4.118h42.3a4.123,4.123,0,0,0,4.118-4.118v-3.335h-4.109Zm2.924,3.335a2.937,2.937,0,0,1-2.934,2.934h-42.3a2.937,2.937,0,0,1-2.934-2.934v-2.15h18.792v1.376h10.585v-1.376h18.792v2.15ZM126.047,83.891l-1.3.8-.254-.1L124.14,83.1H122.4l-.355,1.481-.254.1-1.3-.8-1.233,1.233.8,1.3-.105.254-1.481.354v1.743l1.481.355.105.254-.8,1.3,1.233,1.233,1.3-.8.254.1L122.4,92.7h1.743l.355-1.481.254-.1,1.3.8,1.233-1.233-.8-1.3.1-.254,1.481-.355V87.03l-1.481-.354-.1-.254.8-1.3Zm.575,4.011-.9.215-.568,1.37.482.786-.786-.482-1.37.568-.215.9-.215-.9-1.37-.568-.786.482.482-.786-.568-1.37-.9-.215.9-.215.568-1.37-.482-.786.786.482,1.37-.568.215-.9.215.9,1.37.568.786-.482-.482.786.568,1.37Zm-2.59-.763a1.079,1.079,0,1,1-1.527,0A1.08,1.08,0,0,1,124.032,87.139ZM105.7,87.9a4.25,4.25,0,0,0,2,3.29,2.433,2.433,0,0,0,4.3,2.08c.42.135.853.264,1.3.383-.214.792-.387,1.563-.51,2.3-.609,3.638-.009,6.182,1.689,7.163a3.235,3.235,0,0,0,1.645.42c1.514,0,3.371-.863,5.4-2.538.579-.477,1.159-1.013,1.738-1.593.579.581,1.16,1.116,1.738,1.593,2.032,1.675,3.889,2.538,5.4,2.538a3.234,3.234,0,0,0,1.645-.42,3.987,3.987,0,0,0,1.773-2.89,2.435,2.435,0,0,0-.173-4.761q-.17-.884-.422-1.814c.793-.211,1.546-.447,2.249-.709,3.455-1.292,5.358-3.084,5.358-5.045s-1.9-3.752-5.358-5.045c-.7-.263-1.457-.5-2.249-.709.214-.792.387-1.563.51-2.3.609-3.638.009-6.182-1.689-7.163a4.288,4.288,0,0,0-3.916.117,2.436,2.436,0,0,0-3.988,2.749q-.441.4-.882.846c-.579-.581-1.16-1.116-1.738-1.593-2.846-2.346-5.349-3.1-7.048-2.118s-2.3,3.524-1.689,7.163c.123.74.3,1.51.51,2.3-.793.211-1.546.447-2.249.709C107.6,84.149,105.7,85.94,105.7,87.9Zm4.357,5.166a1.253,1.253,0,1,1,1.254-1.254A1.255,1.255,0,0,1,110.054,93.067Zm5.021,9.026c-1.488-.859-1.781-3.934-.634-8.159a37.366,37.366,0,0,0,4.918.74,37.52,37.52,0,0,0,3.1,3.888c-3.086,3.107-5.9,4.39-7.383,3.531ZM130.42,86.528q-.536-1.049-1.139-2.1T128.034,82.4a34.908,34.908,0,0,1,3.73.6,35.134,35.134,0,0,1-1.345,3.531Zm0,2.746a35,35,0,0,1,1.345,3.532,34.939,34.939,0,0,1-3.73.6q.641-.989,1.247-2.035c.4-.7.781-1.4,1.139-2.1Zm-2.165-4.252c.566.979,1.072,1.94,1.528,2.879q-.683,1.407-1.528,2.879c-.566.979-1.145,1.9-1.729,2.763-1.04.074-2.126.116-3.257.116s-2.217-.041-3.257-.116q-.877-1.3-1.729-2.763c-.566-.979-1.073-1.941-1.528-2.879q.683-1.407,1.528-2.879c.554-.959,1.133-1.883,1.731-2.763,1.04-.074,2.124-.116,3.255-.116s2.216.041,3.255.116c.6.881,1.177,1.8,1.731,2.763Zm-11-.592q-.6,1.046-1.139,2.1A34.9,34.9,0,0,1,114.774,83a34.9,34.9,0,0,1,3.73-.6q-.641.99-1.247,2.036Zm0,6.942q.6,1.046,1.247,2.035a34.9,34.9,0,0,1-3.73-.6,34.89,34.89,0,0,1,1.345-3.532c.357.7.736,1.4,1.139,2.1Zm3.626,3.409q1.177.061,2.386.062t2.386-.062a35.112,35.112,0,0,1-2.386,2.93A35.179,35.179,0,0,1,120.883,94.78Zm10.58,7.313c-1.487.859-4.3-.425-7.383-3.531a37.421,37.421,0,0,0,3.1-3.888,37.572,37.572,0,0,0,4.918-.74q.229.841.38,1.618a2.435,2.435,0,0,0,.143,4.672,2.755,2.755,0,0,1-1.157,1.869Zm3.026-4.225a1.254,1.254,0,1,1-1.253-1.253A1.255,1.255,0,0,1,134.489,97.868Zm5.168-9.967c0,1.718-2.516,3.51-6.749,4.629A37.4,37.4,0,0,0,131.09,87.9a37.526,37.526,0,0,0,1.818-4.629C137.141,84.391,139.657,86.183,139.657,87.9ZM126.3,73.137a1.253,1.253,0,1,1-1.253,1.253A1.255,1.255,0,0,1,126.3,73.137Zm-1.344,3.285a2.433,2.433,0,0,0,3.721-2.565,3.153,3.153,0,0,1,2.79-.148c1.488.859,1.781,3.934.634,8.159a37.363,37.363,0,0,0-4.918-.74,37.45,37.45,0,0,0-3.091-3.879q.432-.434.863-.827Zm.7,4.6c-.782-.04-1.577-.062-2.38-.062s-1.6.022-2.38.062a35.006,35.006,0,0,1,2.38-2.914A35.325,35.325,0,0,1,125.65,81.022Zm-10.574-7.313a2.1,2.1,0,0,1,1.066-.262c1.212,0,2.833.783,4.636,2.269.556.458,1.115.974,1.672,1.534a37.5,37.5,0,0,0-3.091,3.879,37.574,37.574,0,0,0-4.918.74c-1.147-4.226-.853-7.3.634-8.16Zm-1.444,9.563a37.389,37.389,0,0,0,1.818,4.629,37.5,37.5,0,0,0-1.818,4.629c-.407-.108-.8-.223-1.17-.342a2.4,2.4,0,0,0,.032-.374,2.434,2.434,0,0,0-4.213-1.665,3.063,3.063,0,0,1-1.4-2.247c0-1.719,2.516-3.511,6.749-4.63Z" transform="translate(-97.999 -71.951)"/>
    </g>
    <g data-type="innerShadowGroup">
      <g class="cls-19" transform="matrix(1, 0, 0, 1, -8585.03, -4046.34)">
        <rect id="Retângulo_4355-2" data-name="Retângulo 4355" class="cls-4" width="115.647" height="129.159" rx="12" transform="translate(0.24)"/>
      </g>
      <g id="Retângulo_4355-3" data-name="Retângulo 4355" class="cls-5" transform="translate(-8584.797 -4046.341)">
        <rect class="cls-8" width="115.647" height="129.159" rx="12"/>
        <rect class="cls-9" x="0.75" y="0.75" width="114.147" height="127.659" rx="11.25"/>
      </g>
    </g>
    <g data-type="innerShadowGroup">
      <g class="cls-18" transform="matrix(1, 0, 0, 1, -8585.03, -4046.34)">
        <rect id="Retângulo_4409-2" data-name="Retângulo 4409" class="cls-4" width="115.647" height="129.159" rx="12" transform="translate(122.73 135.97)"/>
      </g>
      <g id="Retângulo_4409-3" data-name="Retângulo 4409" class="cls-5" transform="translate(-8462.308 -3910.375)">
        <rect class="cls-8" width="115.647" height="129.159" rx="12"/>
        <rect class="cls-9" x="0.75" y="0.75" width="114.147" height="127.659" rx="11.25"/>
      </g>
    </g>
    <g id="Grupo_23925" data-name="Grupo 23925" transform="translate(-8339.708 -3637.295)">
      <text id="METAVERSO" class="cls-3" transform="translate(59.763 81)"><tspan x="-31.215" y="0">METAVERSO</tspan></text>
      <g id="Grupo_8109" data-name="Grupo 8109" transform="translate(29.723 22.278)">
        <g id="Grupo_8109-2" data-name="Grupo 8109" class="cls-6">
          <path id="Caminho_9065" data-name="Caminho 9065" class="cls-1" d="M45.293,31.967a.29.29,0,0,0-.2-.1c-2.683-1.3-9.189-1.986-15.4-1.986-5.839,0-11.942.608-14.881,1.759a.291.291,0,0,0-.163.067c-1.028.428-1.63.927-1.63,1.5,0,.927,1.588,1.671,4.038,2.218a.293.293,0,0,0,.121.028,41.108,41.108,0,0,0,4.2.653c.007,0,.012.007.018.007s.008,0,.013,0c1.523.165,3.161.283,4.835.351a.388.388,0,0,0,.043,0l.012,0c1.126.045,2.266.069,3.4.069,1.82,0,3.665-.059,5.433-.176l.008,0c.007,0,.013,0,.019,0,1.407-.093,2.765-.222,4.02-.386l.009,0s.01,0,.014,0a31.463,31.463,0,0,0,4.118-.782h0a.291.291,0,0,0,.14-.041c1.8-.511,2.912-1.158,2.912-1.934,0-.458-.392-.871-1.08-1.238Zm-1.042.167c-2.891.908-8.242,1.483-14.036,1.483-6.2,0-11.84-.656-14.545-1.66,2.58-.8,7.471-1.486,14.027-1.486,7.036,0,12.152.794,14.553,1.663M39.31,35.356l-1.2-1.528c1.19-.121,2.294-.27,3.3-.441l1.339,1.337A33.846,33.846,0,0,1,39.31,35.356Zm-3.988.4-.749-1.664c.979-.05,1.927-.118,2.835-.2l1.223,1.552c-1.009.124-2.115.23-3.309.312Zm-1.38-1.633L34.7,35.8c-1.122.067-2.319.112-3.583.132l-.3-1.728C31.874,34.193,32.923,34.168,33.942,34.123ZM21.961,35.578l1.311-1.664c1.009.088,2.064.159,3.157.207l-.376,1.744c-1.482-.062-2.848-.161-4.092-.287Zm-4.169-.6,1.589-1.534c.977.159,2.047.295,3.193.407L21.27,35.5c-1.317-.15-2.481-.33-3.479-.528Zm-4.181-1.771c0-.3.427-.631,1.231-.957a16.451,16.451,0,0,0,3.819,1.07L17.1,34.829c-2.255-.508-3.488-1.111-3.488-1.623Zm13.039,2.682.376-1.744c1.039.038,2.1.061,3.188.061l.3,1.732c-.271,0-.544,0-.82,0Q28.1,35.941,26.649,35.888ZM43.4,34.551l-1.293-1.291a18.46,18.46,0,0,0,2.95-.781c.476.249.727.5.727.727C45.784,33.627,44.95,34.109,43.4,34.551ZM59.236,4.824c0-.017,0-.033,0-.049,0-1.97-6-3.132-11.03-3.761h0A156.181,156.181,0,0,0,29.625,0a156.239,156.239,0,0,0-18.44,1C6.082,1.622,0,2.784,0,4.774V29.7a.28.28,0,0,0,.022.107A.949.949,0,0,0,0,29.98c0,1.992,6.078,3.159,11.178,3.786l.036,0a.294.294,0,0,0,.294-.294V26.762c2.023-.228,5.613-.423,8.52-.581.722-.039,1.394-.075,1.978-.109a.259.259,0,0,0,.032-.008,12.124,12.124,0,0,0,15.34-.024.285.285,0,0,0,.126.039l1.742.1c2.786.153,6.553.359,8.629.6v6.682a.293.293,0,0,0,.294.294.213.213,0,0,0,.036,0c5.032-.629,11.031-1.793,11.031-3.768,0-.011,0-.021,0-.031a.29.29,0,0,0,.156-.255V5.08a.29.29,0,0,0-.157-.256ZM48.467,26.255V8.509c4.166-.532,8.9-1.43,10.338-2.847V29.1c-1.433-1.414-6.171-2.311-10.338-2.843ZM10.923,33.141C3.306,32.176.592,30.84.592,29.981a.49.49,0,0,1,.037-.174c.174-.419,1.429-1.858,10.294-2.973ZM.588,28.955V5.8C2.2,7.147,6.833,8.008,10.923,8.524V26.24c-4.018.5-8.718,1.358-10.335,2.715ZM18.137,16.888h4.438a26.738,26.738,0,0,0,.624,5.59A10.3,10.3,0,0,0,20.707,23.9a11.513,11.513,0,0,1-2.571-7.011ZM41.253,16.3H36.818a26.6,26.6,0,0,0-.662-5.689A10.394,10.394,0,0,0,38.6,9.244,11.51,11.51,0,0,1,41.253,16.3ZM34.408,27.186a15.109,15.109,0,0,0,1.65-4.128,9.861,9.861,0,0,1,2.24,1.284,11.644,11.644,0,0,1-3.891,2.845m-8.493.333a13.22,13.22,0,0,1-2.031-4.681,16.956,16.956,0,0,1,5.518-.966v6.311a11.5,11.5,0,0,1-3.468-.626A.247.247,0,0,0,25.916,27.519Zm-2.127-16.7a17.572,17.572,0,0,0,5.615.966V16.3h-6.24a26.087,26.087,0,0,1,.625-5.478ZM36.23,16.3H29.99V11.788a17.579,17.579,0,0,0,5.615-.966A26.149,26.149,0,0,1,36.23,16.3Zm-.586,5.964a17.609,17.609,0,0,0-5.653-.979v-4.4h6.24a26.33,26.33,0,0,1-.587,5.376ZM29.4,16.887v4.4a17.588,17.588,0,0,0-5.653.978,26.321,26.321,0,0,1-.587-5.376H29.4Zm.588,4.986a16.955,16.955,0,0,1,5.518.966,13.239,13.239,0,0,1-2.032,4.681.212.212,0,0,0-.018.039,11.513,11.513,0,0,1-3.468.626Zm8.7,2.026a10.328,10.328,0,0,0-2.491-1.421,26.821,26.821,0,0,0,.624-5.59h4.437A11.51,11.51,0,0,1,38.686,23.9ZM36.014,10.032a14.917,14.917,0,0,0-1.607-3.967,11.621,11.621,0,0,1,3.8,2.741,9.747,9.747,0,0,1-2.19,1.226Zm-2.556-4.34a.318.318,0,0,0,.018.038,13.046,13.046,0,0,1,1.99,4.517,16.924,16.924,0,0,1-5.476.953V5.067a11.486,11.486,0,0,1,3.468.625ZM29.4,11.2a16.947,16.947,0,0,1-5.476-.952,13.026,13.026,0,0,1,1.989-4.516.212.212,0,0,0,.018-.039A11.514,11.514,0,0,1,29.4,5.068V11.2Zm-6.023-1.169a9.794,9.794,0,0,1-2.19-1.226,11.608,11.608,0,0,1,3.8-2.741,14.92,14.92,0,0,0-1.607,3.967Zm-2.587-.788a10.4,10.4,0,0,0,2.445,1.367,26.575,26.575,0,0,0-.662,5.689H18.14a11.51,11.51,0,0,1,2.652-7.056Zm2.543,13.814a15.091,15.091,0,0,0,1.65,4.128,11.617,11.617,0,0,1-3.89-2.845,9.88,9.88,0,0,1,2.24-1.284m14.631,2.459a12.259,12.259,0,0,0,.943-.975.146.146,0,0,0,.08-.087A12.108,12.108,0,0,0,38.9,8.7a.291.291,0,0,0-.027-.051.278.278,0,0,0-.068-.055,12.109,12.109,0,0,0-18.218,0,.281.281,0,0,0-.07.056.277.277,0,0,0-.028.051,12.107,12.107,0,0,0-.086,15.753.278.278,0,0,0,.026.046.267.267,0,0,0,.057.045,12.319,12.319,0,0,0,.938.971L20,25.595c-2.884.156-6.436.349-8.489.576V8.3a.056.056,0,0,0,0-.008V8.269c0-.005,0-.01,0-.015a.282.282,0,0,0-.019-.1l0-.007a.308.308,0,0,0-.059-.089l0,0A.277.277,0,0,0,11.335,8l-.01,0a.26.26,0,0,0-.069-.022C3.382,7,.588,5.644.588,4.775S3.382,2.546,11.257,1.583A155.539,155.539,0,0,1,29.625.589,155.567,155.567,0,0,1,48.136,1.6h0c7.761.969,10.515,2.318,10.515,3.178S55.9,6.989,48.137,7.959c-.009,0-.016.007-.024.008a.278.278,0,0,0-.075.025.323.323,0,0,0-.031.021.287.287,0,0,0-.055.048.351.351,0,0,0-.024.036.277.277,0,0,0-.03.059.326.326,0,0,0-.011.053.3.3,0,0,0-.008.041V26.184c-2.093-.238-5.682-.435-8.6-.595Zm10.5,7.609V26.847c7.509.966,10.185,2.288,10.185,3.135s-2.676,2.177-10.185,3.142m.7-28.42a.3.3,0,0,1,.339-.241c1.105.189,2.214.394,3.293.612a.294.294,0,0,1-.057.582.283.283,0,0,1-.059-.006c-1.074-.216-2.176-.421-3.275-.608A.3.3,0,0,1,49.167,4.7Zm-4.459-.366c-1.968-.255-3.99-.467-6.012-.631a131.973,131.973,0,0,0-15.005-.336.3.3,0,0,1-.3-.284.293.293,0,0,1,.284-.3,132.378,132.378,0,0,1,15.072.338c2.032.164,4.064.377,6.042.633a.294.294,0,0,1-.037.586l-.039,0ZM18.561,3.649a98.135,98.135,0,0,0-11.85,1.5.312.312,0,0,1-.061.007.294.294,0,0,1-.061-.582A98.629,98.629,0,0,1,18.518,3.062a.3.3,0,0,1,.315.271.3.3,0,0,1-.272.316ZM46.252,8.282a.294.294,0,0,1-.29.25.276.276,0,0,1-.045,0c-2.08-.315-4.039-.515-6.165-.633a.294.294,0,0,1-.277-.309.284.284,0,0,1,.309-.277c2.145.117,4.121.32,6.221.638A.293.293,0,0,1,46.252,8.282ZM19.561,7.594a.294.294,0,0,1-.274.313c-1.986.133-3.96.353-5.864.656a.3.3,0,0,1-.046,0,.294.294,0,0,1-.046-.585c1.923-.3,3.913-.527,5.917-.662A.3.3,0,0,1,19.561,7.594Z"/>
        </g>
      </g>
      <g data-type="innerShadowGroup">
        <g class="cls-17" transform="matrix(1, 0, 0, 1, -245.33, -409.05)">
          <rect id="Retângulo_4410-2" data-name="Retângulo 4410" class="cls-4" width="115.647" height="129.159" rx="12" transform="translate(245.33 409.05)"/>
        </g>
        <g id="Retângulo_4410-3" data-name="Retângulo 4410" class="cls-5">
          <rect class="cls-8" width="115.647" height="129.159" rx="12"/>
          <rect class="cls-9" x="0.75" y="0.75" width="114.147" height="127.659" rx="11.25"/>
        </g>
      </g>
    </g>
    <g data-type="innerShadowGroup">
      <g class="cls-16" transform="matrix(1, 0, 0, 1, -8585.03, -4046.34)">
        <rect id="Retângulo_4408-2" data-name="Retângulo 4408" class="cls-4" width="115.647" height="129.159" rx="12" transform="translate(0 135.66)"/>
      </g>
      <g id="Retângulo_4408-3" data-name="Retângulo 4408" class="cls-5" transform="translate(-8585.033 -3910.682)">
        <rect class="cls-8" width="115.647" height="129.159" rx="12"/>
        <rect class="cls-9" x="0.75" y="0.75" width="114.147" height="127.659" rx="11.25"/>
      </g>
    </g>
    <g data-type="innerShadowGroup">
      <g class="cls-15" transform="matrix(1, 0, 0, 1, -8585.03, -4046.34)">
        <rect id="Retângulo_4412-2" data-name="Retângulo 4412" class="cls-4" width="115.647" height="129.159" rx="12" transform="translate(122.88)"/>
      </g>
      <g id="Retângulo_4412-3" data-name="Retângulo 4412" class="cls-5" transform="translate(-8462.149 -4046.341)">
        <rect class="cls-8" width="115.647" height="129.159" rx="12"/>
        <rect class="cls-9" x="0.75" y="0.75" width="114.147" height="127.659" rx="11.25"/>
      </g>
    </g>
    <g data-type="innerShadowGroup">
      <g class="cls-14" transform="matrix(1, 0, 0, 1, -8585.03, -4046.34)">
        <rect id="Retângulo_4411-2" data-name="Retângulo 4411" class="cls-4" width="115.647" height="129.159" rx="12" transform="translate(0.24 272.5)"/>
      </g>
      <g id="Retângulo_4411-3" data-name="Retângulo 4411" class="cls-5" transform="translate(-8584.797 -3773.845)">
        <rect class="cls-8" width="115.647" height="129.159" rx="12"/>
        <rect class="cls-9" x="0.75" y="0.75" width="114.147" height="127.659" rx="11.25"/>
      </g>
    </g>
    <g data-type="innerShadowGroup">
      <g class="cls-13" transform="matrix(1, 0, 0, 1, -8585.03, -4046.34)">
        <rect id="Retângulo_4407-2" data-name="Retângulo 4407" class="cls-4" width="115.647" height="129.159" rx="12" transform="translate(245.45 272.84)"/>
      </g>
      <g id="Retângulo_4407-3" data-name="Retângulo 4407" class="cls-5" transform="translate(-8339.58 -3773.497)">
        <rect class="cls-8" width="115.647" height="129.159" rx="12"/>
        <rect class="cls-9" x="0.75" y="0.75" width="114.147" height="127.659" rx="11.25"/>
      </g>
    </g>
    <g data-type="innerShadowGroup">
      <g class="cls-12" transform="matrix(1, 0, 0, 1, -8585.03, -4046.34)">
        <rect id="Retângulo_4405-2" data-name="Retângulo 4405" class="cls-4" width="115.647" height="129.159" rx="12" transform="translate(122.39 409.02)"/>
      </g>
      <g id="Retângulo_4405-3" data-name="Retângulo 4405" class="cls-5" transform="translate(-8462.646 -3637.32)">
        <rect class="cls-8" width="115.647" height="129.159" rx="12"/>
        <rect class="cls-9" x="0.75" y="0.75" width="114.147" height="127.659" rx="11.25"/>
      </g>
    </g>
    <g data-type="innerShadowGroup">
      <g class="cls-11" transform="matrix(1, 0, 0, 1, -8585.03, -4046.34)">
        <rect id="Retângulo_4406-2" data-name="Retângulo 4406" class="cls-4" width="115.647" height="129.159" rx="12" transform="translate(122.73 272.84)"/>
      </g>
      <g id="Retângulo_4406-3" data-name="Retângulo 4406" class="cls-5" transform="translate(-8462.308 -3773.497)">
        <rect class="cls-8" width="115.647" height="129.159" rx="12"/>
        <rect class="cls-9" x="0.75" y="0.75" width="114.147" height="127.659" rx="11.25"/>
      </g>
    </g>
    <text id="Modelos_de_A.I_gigantes" data-name="Modelos 
de A.I 
gigantes" class="cls-3" transform="translate(-8402.899 -3692.348)"><tspan x="-27.04" y="0">MODELOS </tspan><tspan x="-16.47" y="14">DE A.I </tspan><tspan x="-25.91" y="28">GIGANTES</tspan></text>
    <text id="Gêmeos_Digitais" data-name="Gêmeos 
Digitais" class="cls-3" transform="translate(-8402.344 -3556.125)"><tspan x="-23.555" y="0">GÊMEOS </tspan><tspan x="-21.785" y="14">DIGITAIS</tspan></text>
    <text id="Mapas_multi-_dimensionais" data-name="Mapas multi-
dimensionais" class="cls-3" transform="translate(-8527.059 -3692.697)"><tspan x="-36.755" y="0">MAPAS MULTI-</tspan><tspan x="-38.185" y="14">DIMENSIONAIS</tspan></text>
    <text id="Carteiras_digitais_e_nanocontratos" data-name="Carteiras 
digitais e 
nanocontratos" class="cls-3" transform="translate(-8279.448 -3692.348)"><tspan x="-30.325" y="0">CARTEIRAS </tspan><tspan x="-27.95" y="14">DIGITAIS E </tspan><tspan x="-46.47" y="28">NANOCONTRATOS</tspan></text>
    <g id="Grupo_23926" data-name="Grupo 23926" transform="translate(-8339.58 -3910.682)">
      <g data-type="innerShadowGroup">
        <g class="cls-10" transform="matrix(1, 0, 0, 1, -245.45, -135.66)">
          <rect id="Retângulo_4404-2" data-name="Retângulo 4404" class="cls-4" width="115.647" height="129.159" rx="12" transform="translate(245.45 135.66)"/>
        </g>
        <g id="Retângulo_4404-3" data-name="Retângulo 4404" class="cls-5">
          <rect class="cls-8" width="115.647" height="129.159" rx="12"/>
          <rect class="cls-9" x="0.75" y="0.75" width="114.147" height="127.659" rx="11.25"/>
        </g>
      </g>
      <text id="Computação_Visual" data-name="Computação
Visual" class="cls-3" transform="translate(59.957 81.134)"><tspan x="-36.795" y="0">COMPUTAÇÃO</tspan><tspan x="-18.265" y="14">VISUAL</tspan></text>
      <g id="noun-computer-vision-2985143" transform="translate(38.299 17.492)">
        <path id="Caminho_9036" data-name="Caminho 9036" class="cls-2" d="M150.951,117.737s0-.007,0-.01a.5.5,0,0,0,0-.43s0-.007,0-.01a20.23,20.23,0,0,0-6.208-7.467l2.9-2.9a1.321,1.321,0,1,0-.742-.742l-3.014,3.014a24.569,24.569,0,0,0-7.678-3.432l3.777-3.777a.5.5,0,0,0,.065-.1,1.313,1.313,0,1,0-.709-.709.506.506,0,0,0-.1.065L135,105.488a27.047,27.047,0,0,0-4.985-.553V98.51a1.312,1.312,0,1,0-1.05,0v6.425a27.043,27.043,0,0,0-4.985.553l-4.243-4.243a.5.5,0,0,0-.1-.065,1.313,1.313,0,1,0-.709.709.5.5,0,0,0,.065.1l3.777,3.777a24.562,24.562,0,0,0-7.678,3.432l-3.014-3.014a1.322,1.322,0,1,0-.742.742l2.9,2.9a20.23,20.23,0,0,0-6.208,7.467s0,.007,0,.01a.5.5,0,0,0,0,.43s0,.007,0,.01a20.23,20.23,0,0,0,6.208,7.467l-2.9,2.9a1.321,1.321,0,1,0,.742.742l3.014-3.014a24.568,24.568,0,0,0,7.678,3.432l-3.777,3.777a.5.5,0,0,0-.065.1,1.314,1.314,0,1,0,.709.709.5.5,0,0,0,.1-.065l4.243-4.243a27.047,27.047,0,0,0,4.985.553v6.425a1.312,1.312,0,1,0,1.049,0v-6.425a27.041,27.041,0,0,0,4.985-.553l4.243,4.243a.5.5,0,0,0,.1.065,1.313,1.313,0,1,0,.709-.709.5.5,0,0,0-.065-.1L136.2,129.26a24.561,24.561,0,0,0,7.678-3.432l3.014,3.014a1.322,1.322,0,1,0,.742-.742l-2.9-2.9A20.23,20.23,0,0,0,150.951,117.737Zm-1.342-.75h-13.3v-2.624h3.673a.524.524,0,0,0,.371-.154L144,110.568a19.368,19.368,0,0,1,5.614,6.42Zm-6.481-7.036-3.363,3.363h-3.456a2.627,2.627,0,0,0-2.624-2.624v-2.406l1.645-1.645A23.667,23.667,0,0,1,143.128,109.951Zm-17.839,13.333a1.576,1.576,0,0,1-1.574-1.574v-8.4a1.576,1.576,0,0,1,1.574-1.574h8.4a1.576,1.576,0,0,1,1.574,1.574v8.4a1.576,1.576,0,0,1-1.574,1.574Zm8.813-16.9L132.79,107.7a.524.524,0,0,0-.154.371v2.624h-2.624v-4.706a26.092,26.092,0,0,1,4.09.4Zm-5.14-.4v4.706h-2.624v-2.624a.524.524,0,0,0-.154-.371l-1.313-1.313a26.085,26.085,0,0,1,4.09-.4Zm-5.318.655,1.645,1.645v2.407a2.627,2.627,0,0,0-2.624,2.624h-3.456l-3.363-3.363A23.667,23.667,0,0,1,123.644,106.639Zm-8.665,3.929,3.642,3.642a.524.524,0,0,0,.371.154h3.673v2.624h-13.3a19.372,19.372,0,0,1,5.614-6.42Zm-5.614,7.469h13.3v2.624h-3.673a.524.524,0,0,0-.371.154l-3.642,3.642a19.369,19.369,0,0,1-5.614-6.42Zm6.481,7.036,3.363-3.363h3.456a2.627,2.627,0,0,0,2.624,2.624v2.406l-1.645,1.645A23.667,23.667,0,0,1,115.846,125.073Zm9.026,3.568,1.313-1.313a.524.524,0,0,0,.154-.371v-2.624h2.624v4.706a26.086,26.086,0,0,1-4.09-.4Zm5.14.4v-4.706h2.624v2.624a.524.524,0,0,0,.154.371l1.313,1.313a26.088,26.088,0,0,1-4.09.4Zm5.318-.655-1.645-1.645v-2.406a2.627,2.627,0,0,0,2.624-2.624h3.456l3.363,3.363A23.668,23.668,0,0,1,135.33,128.385ZM144,124.456l-3.642-3.642a.524.524,0,0,0-.371-.154h-3.673v-2.624h13.3a19.372,19.372,0,0,1-5.614,6.42Z" transform="translate(-107.972 -95.997)"/>
        <path id="Caminho_9037" data-name="Caminho 9037" class="cls-2" d="M556.2,542.1a2.1,2.1,0,1,1-2.1-2.1,2.1,2.1,0,0,1,2.1,2.1" transform="translate(-532.583 -520.584)"/>
      </g>
    </g>
    <g id="noun-ai-training-data-2985134" transform="translate(-8422.545 -3757.164)">
      <path id="Caminho_9042" data-name="Caminho 9042" class="cls-2" d="M492.11,106.362a.528.528,0,0,0,.308.48l4.089,1.868a.53.53,0,0,0,.439,0l4.089-1.868a.528.528,0,0,0,0-.959l-2.042-.933,2.042-.933a.527.527,0,0,0,0-.959l-2.042-.933,2.042-.933a.527.527,0,0,0,0-.959l-4.089-1.868a.53.53,0,0,0-.439,0l-4.089,1.868a.528.528,0,0,0,0,.959l2.042.933-2.042.934a.528.528,0,0,0,0,.959l2.042.933-2.042.933A.527.527,0,0,0,492.11,106.362Zm7.436-5.65-1.823.833-.634.29-.362.166-.363-.166-.634-.29-1.823-.833,2.82-1.289Zm-3.039,2.348a.529.529,0,0,0,.439,0l.778-.355,1.823.833-1.823.833-.635.29-.362.166-.363-.166-.634-.29-1.823-.833,1.823-.833Zm0,2.825a.53.53,0,0,0,.439,0l.778-.355,1.823.833-2.82,1.289-2.82-1.289,1.823-.833Z" transform="translate(-477.473 -98.316)"/>
      <path id="Caminho_9043" data-name="Caminho 9043" class="cls-2" d="M840.192,103.549a.528.528,0,0,0-.308-.48l-2.042-.933,2.042-.933a.528.528,0,0,0,0-.959L835.8,98.375a.53.53,0,0,0-.439,0l-4.089,1.868a.528.528,0,0,0,0,.959l2.042.933-2.042.933a.528.528,0,0,0,0,.959l2.042.933-2.042.933a.528.528,0,0,0,0,.959l4.089,1.868a.532.532,0,0,0,.439,0l4.089-1.868a.528.528,0,0,0,0-.959l-2.042-.933,2.042-.933A.527.527,0,0,0,840.192,103.549Zm-4.616,4.114-2.82-1.289,1.823-.833.778.355a.53.53,0,0,0,.439,0l.778-.355,1.823.833Zm.362-2.991-.362.166-.363-.166-.635-.29-1.823-.833,1.823-.833.778.355a.53.53,0,0,0,.439,0l.778-.355,1.823.833-1.823.833Zm-.362-5.237,2.82,1.289-1.823.833-.635.29-.362.166-.363-.166-.635-.29-1.823-.833Z" transform="translate(-801.437 -98.327)"/>
      <path id="Caminho_9044" data-name="Caminho 9044" class="cls-2" d="M163.546,108.761a.533.533,0,0,0,.219-.048l4.089-1.868a.528.528,0,0,0,0-.959l-2.042-.933,2.042-.933a.528.528,0,0,0,0-.959l-2.042-.933,2.042-.933a.528.528,0,0,0,0-.959l-4.089-1.868a.53.53,0,0,0-.439,0l-4.089,1.869a.528.528,0,0,0,0,.959l2.042.933-2.042.933a.528.528,0,0,0,0,.959l2.042.933-2.042.933a.528.528,0,0,0,0,.959l4.089,1.868A.539.539,0,0,0,163.546,108.761Zm0-9.334,2.82,1.289-1.823.833-.635.29-.362.166-.363-.166-.635-.29-1.823-.833Zm-.219,3.636a.53.53,0,0,0,.439,0l.778-.355,1.823.833-1.823.833-.635.29-.363.166-.363-.166-.635-.29-1.823-.833,1.823-.833Zm0,2.825a.53.53,0,0,0,.439,0l.778-.355,1.823.833-2.82,1.289-2.82-1.289,1.823-.833Z" transform="translate(-158.93 -98.319)"/>
      <path id="Caminho_9045" data-name="Caminho 9045" class="cls-2" d="M282.049,360a.527.527,0,0,0-.527.527v2.109a1.583,1.583,0,0,1-1.582,1.581h-6.853a2.639,2.639,0,0,0-2.636,2.636v1.582h-2.636v-7.908a.527.527,0,1,0-1.054,0v7.908h-2.636v-1.582a2.639,2.639,0,0,0-2.636-2.636h-6.853a1.583,1.583,0,0,1-1.582-1.581v-2.109a.527.527,0,1,0-1.054,0v2.109a2.639,2.639,0,0,0,2.636,2.636h6.853a1.583,1.583,0,0,1,1.582,1.581v1.582a2.639,2.639,0,0,0-2.636,2.636h-1.581a.527.527,0,1,0,0,1.054h1.581v2.636h-1.581a.527.527,0,0,0,0,1.054h1.581v2.636h-1.581a.527.527,0,1,0,0,1.054h1.581a2.639,2.639,0,0,0,2.636,2.636v1.582a.527.527,0,1,0,1.054,0v-1.582h2.636v8.744l-1.209-1.209a.527.527,0,0,0-.746.745l2.109,2.109a.527.527,0,0,0,.745,0l2.109-2.109a.527.527,0,1,0-.745-.745l-1.209,1.209v-8.744h2.636v1.582a.527.527,0,1,0,1.054,0v-1.582a2.639,2.639,0,0,0,2.636-2.636h1.582a.527.527,0,1,0,0-1.054h-1.582v-2.636h1.582a.527.527,0,1,0,0-1.054h-1.582v-2.636h1.582a.527.527,0,1,0,0-1.054h-1.582a2.639,2.639,0,0,0-2.636-2.636v-1.582a1.583,1.583,0,0,1,1.582-1.581h6.853a2.639,2.639,0,0,0,2.636-2.636v-2.109A.527.527,0,0,0,282.049,360Zm-8.962,11.071v8.435a1.583,1.583,0,0,1-1.581,1.582h-8.435a1.583,1.583,0,0,1-1.582-1.582v-8.435a1.583,1.583,0,0,1,1.582-1.582h8.435A1.583,1.583,0,0,1,273.087,371.071Z" transform="translate(-247.911 -348.504)"/>
      <path id="Caminho_9046" data-name="Caminho 9046" class="cls-2" d="M533.8,636h-5.272a.527.527,0,0,0-.527.527V641.8a.527.527,0,0,0,.527.527H533.8a.527.527,0,0,0,.527-.527v-5.272A.527.527,0,0,0,533.8,636Z" transform="translate(-511.786 -612.379)"/>
    </g>
    <g id="noun-future-textile-4116521" transform="translate(-8545.851 -3756.691)">
      <path id="Caminho_9048" data-name="Caminho 9048" class="cls-2" d="M162.819,33.132H140.391V28h-3.555a3.238,3.238,0,0,0-3.235,3.235v7.672h-5.774V71.359h34.992a3.238,3.238,0,0,0,3.235-3.235V36.368a3.238,3.238,0,0,0-3.235-3.235ZM165.038,54.3h-7V50.188h2.246v-7.7h4.758ZM149.507,38.822a.592.592,0,1,1-.592.592A.593.593,0,0,1,149.507,38.822Zm-14.889-7.587a2.221,2.221,0,0,1,2.219-2.219h2.54v30.42h-2.54a3.224,3.224,0,0,0-2.219.883Zm2.219,29.217h3.555v-26.3H149v3.74a1.609,1.609,0,1,0,1.016,0v-3.74h12.8a2.22,2.22,0,0,1,2.217,2.191h-6.3a1.609,1.609,0,1,0,0,1.016h6.3v4.116h-5.774v7.7h-2.246V54.3h-1.871V46.138a1.61,1.61,0,1,0-1.017,0V54.3H151.3V46.6h-5.43a1.607,1.607,0,1,0,.018,1.017h4.394v7.7h3.849v5.132h3.9V55.32h7v1.55h-4.491v8.02H150.015V62h-2.566V56.337a1.609,1.609,0,1,0-1.016,0v6.681H149v1.871H136.836a2.218,2.218,0,1,1,0-4.437Zm20.969-23.6a.592.592,0,1,1-.592-.592A.593.593,0,0,1,157.805,36.847ZM155.148,55.32h1.871v4.116h-1.871ZM154.642,45.2a.592.592,0,1,1,.592-.592A.593.593,0,0,1,154.642,45.2Zm-9.7,1.935a.592.592,0,1,1-.592-.592A.593.593,0,0,1,144.946,47.139Zm20.092,10.747v7.891a3.22,3.22,0,0,0-2.219-.887h-1.256v-7Zm-18.1-2.481a.592.592,0,1,1,.592-.592A.593.593,0,0,1,146.941,55.4ZM162.82,70.343H128.844V39.922H133.6V62.671a3.238,3.238,0,0,0,3.235,3.235h25.983a2.219,2.219,0,0,1,0,4.437Z" transform="translate(-127.827 -28)"/>
    </g>
    <g id="noun-ai-ethics-2985138" transform="translate(-8299.891 -3755.109)">
      <path id="Caminho_9049" data-name="Caminho 9049" class="cls-2" d="M336.77,344.27a.5.5,0,0,0-.043-.1.526.526,0,0,0-.023-.05l-4.142-5.792-.006-.007a.506.506,0,0,0-.077-.084.521.521,0,0,0-.106-.072.5.5,0,0,0-.066-.025.517.517,0,0,0-.148-.03c-.005,0-.009,0-.014,0h-6.872a1.316,1.316,0,1,0-2.094,0h-6.83c-.014,0-.026.007-.04.008a.522.522,0,0,0-.067-.008h0a.527.527,0,0,0-.428.221l-4.123,5.792a.481.481,0,0,0-.022.05.5.5,0,0,0-.044.1,85.134,85.134,0,0,1-.032.158,4.659,4.659,0,0,0,9.319,0,.473.473,0,0,0-.011-.054.479.479,0,0,0-.065-.2.513.513,0,0,0-.023-.05l-3.547-4.959h6.455v18.955h-2.633a.527.527,0,1,0,0,1.053H327.4a.527.527,0,0,0,0-1.053h-2.633V339.163h6.341l-3.531,4.96a36.029,36.029,0,0,0-.066.148.491.491,0,0,0-.021.1.463.463,0,0,0-.011.054,4.659,4.659,0,1,0,9.318,0,.469.469,0,0,0-.011-.054A.5.5,0,0,0,336.77,344.27Zm-1.518-.368h-6.22l3.1-4.359Zm-19.011-4.359,3.118,4.359h-6.221Zm.009,8.492a3.612,3.612,0,0,1-3.568-3.08h7.136A3.612,3.612,0,0,1,316.25,348.034Zm15.894,0a3.612,3.612,0,0,1-3.568-3.08h7.135A3.612,3.612,0,0,1,332.143,348.034Z" transform="translate(-303.184 -326.526)"/>
      <path id="Caminho_9050" data-name="Caminho 9050" class="cls-2" d="M161.6,141.588a.527.527,0,1,0,0-1.053h-4.739v-7.372H159.6a1.316,1.316,0,1,0,0-1.053h-2.744V127.9a2.636,2.636,0,0,0-2.633-2.633h-4.21v-4.739a.527.527,0,0,0-1.053,0v4.739h-7.372v-4.739a.527.527,0,1,0-1.053,0v4.739h-7.372v-2.744a1.316,1.316,0,1,0-1.053,0v2.744H127.9a2.636,2.636,0,0,0-2.633,2.633v4.212h-4.739a.527.527,0,0,0,0,1.053h4.739v7.372h-4.739a.527.527,0,0,0,0,1.053h4.739v7.371h-2.744a1.316,1.316,0,1,0,0,1.053h2.744v4.212a2.636,2.636,0,0,0,2.633,2.633h4.212v2.749a1.316,1.316,0,1,0,1.053,0v-2.747h7.372V161.6a.527.527,0,0,0,1.053,0v-4.739h7.371V161.6a.527.527,0,0,0,1.053,0v-4.739h4.212a2.636,2.636,0,0,0,2.633-2.633v-4.212H161.6a.527.527,0,1,0,0-1.053h-4.739v-7.371ZM155.8,154.225a1.581,1.581,0,0,1-1.58,1.58H127.9a1.581,1.581,0,0,1-1.58-1.58V127.9a1.581,1.581,0,0,1,1.58-1.58h26.327a1.581,1.581,0,0,1,1.58,1.58Z" transform="translate(-120 -120)"/>
    </g>
    <g id="Grupo_8110" data-name="Grupo 8110" transform="translate(-8428.346 -3619.708)">
      <g id="Grupo_8110-2" data-name="Grupo 8110" class="cls-7">
        <path id="Caminho_9066" data-name="Caminho 9066" class="cls-2" d="M51.551,24.723l-2.962-6.478c0-.807.022-3.011.022-3.064A15.181,15.181,0,0,0,33.431,0H30.948A15.009,15.009,0,0,0,24.3,1.531,15.089,15.089,0,0,0,17.664,0H15.181A15.2,15.2,0,0,0,0,15.181,15.871,15.871,0,0,0,5.739,27.244v15.7H38.921l-.012-5.844h6.254a3.44,3.44,0,0,0,3.44-3.448c0-1.695-.007-3.974-.011-6.355h1.3a1.821,1.821,0,0,0,1.656-2.58ZM21.937,41.733H6.954V38.088H10.1a1.822,1.822,0,1,0,0-1.215H6.954V33.431H10.1a1.822,1.822,0,1,0,0-1.215H6.954V26.655l-.234-.182A14.616,14.616,0,0,1,1.214,15.182,13.982,13.982,0,0,1,15.181,1.215h2.483A13.982,13.982,0,0,1,31.631,15.182c0,.052-.023,3.328-.023,3.328l3.074,6.718a.607.607,0,0,1-.552.86h-2.52s.01,5.734.015,7.572A2.225,2.225,0,0,1,29.4,35.89l-7.471-.008ZM11.206,37.481a.607.607,0,1,1,.607.607.608.608,0,0,1-.607-.607m0-4.657a.607.607,0,1,1,.607.607.608.608,0,0,1-.607-.607m39.2-7.015a.6.6,0,0,1-.51.279h-2.52V26.7c0,2.6.008,5.125.012,6.964a2.224,2.224,0,0,1-2.225,2.23l-7.471,0,.012,5.846H23.152L23.143,37.1H29.4a3.441,3.441,0,0,0,3.441-3.449c0-1.694-.009-3.974-.013-6.354h1.3a1.822,1.822,0,0,0,1.657-2.581l-2.963-6.476c0-.805.023-3.011.023-3.064A15.184,15.184,0,0,0,25.629,2.264a13.817,13.817,0,0,1,5.32-1.048h2.483A13.967,13.967,0,0,1,47.4,15.182c0,.052,0,.253,0,.542-.006.678-.017,1.83-.018,2.653v.133l3.073,6.72a.6.6,0,0,1-.042.58ZM26.238,18.741H25.1V17.526h3.24V19.97ZM14.471,6.475a7.9,7.9,0,1,0,7.9,7.9,7.906,7.906,0,0,0-7.9-7.9m6.654,7.29H18.47a4.052,4.052,0,0,0-3.392-3.392V7.719a6.692,6.692,0,0,1,6.046,6.046Zm-7.261,0H11.7a2.842,2.842,0,0,1,2.16-2.16Zm0,1.215v2.16a2.842,2.842,0,0,1-2.16-2.16Zm1.215,0h2.16a2.842,2.842,0,0,1-2.16,2.16Zm0-1.215V11.6a2.842,2.842,0,0,1,2.16,2.16ZM13.864,7.719v2.654a4.053,4.053,0,0,0-3.392,3.392H7.818a6.692,6.692,0,0,1,6.046-6.046ZM7.818,14.979h2.654a4.053,4.053,0,0,0,3.392,3.392v2.654a6.692,6.692,0,0,1-6.046-6.046Zm7.261,6.046V18.371a4.053,4.053,0,0,0,3.392-3.392h2.654A6.692,6.692,0,0,1,15.078,21.026Zm27.836-4.878a2.025,2.025,0,1,0,2.025,2.025,2.027,2.027,0,0,0-2.025-2.025m0,2.835a.81.81,0,1,1,.81-.81.811.811,0,0,1-.81.81" transform="translate(0 0)"/>
      </g>
    </g>
  </g>
</svg>
