<svg xmlns="http://www.w3.org/2000/svg" xmlns:xlink="http://www.w3.org/1999/xlink" width="441.273" height="310.646" viewBox="0 0 441.273 310.646">
  <defs>
    <radialGradient id="radial-gradient" cx="0.5" cy="1.41" r="0.5" gradientUnits="objectBoundingBox">
      <stop offset="0" stop-color="#af39e6"/>
      <stop offset="1" stop-color="#742698"/>
    </radialGradient>
    <clipPath id="clip-path">
      <rect id="Retângulo_4399" data-name="Retângulo 4399" width="304.951" height="278.719" fill="url(#radial-gradient)"/>
    </clipPath>
    <filter id="Caminho_9194">
      <feOffset input="SourceAlpha"/>
      <feGaussianBlur stdDeviation="30" result="blur"/>
      <feFlood flood-color="#00c8db" result="color"/>
      <feComposite operator="out" in="SourceGraphic" in2="blur"/>
      <feComposite operator="in" in="color"/>
      <feComposite operator="in" in2="SourceGraphic"/>
    </filter>
    <filter id="Retângulo_4355">
      <feOffset input="SourceAlpha"/>
      <feGaussianBlur stdDeviation="15" result="blur-2"/>
      <feFlood flood-color="#742698" result="color-2"/>
      <feComposite operator="out" in="SourceGraphic" in2="blur-2"/>
      <feComposite operator="in" in="color-2"/>
      <feComposite operator="in" in2="SourceGraphic"/>
    </filter>
    <filter id="Retângulo_4356">
      <feOffset input="SourceAlpha"/>
      <feGaussianBlur stdDeviation="15" result="blur-3"/>
      <feFlood flood-color="#ff0070" result="color-3"/>
      <feComposite operator="out" in="SourceGraphic" in2="blur-3"/>
      <feComposite operator="in" in="color-3"/>
      <feComposite operator="in" in2="SourceGraphic"/>
    </filter>
    <filter id="Retângulo_4355-2">
      <feOffset input="SourceAlpha"/>
      <feGaussianBlur stdDeviation="15" result="blur-4"/>
      <feFlood flood-color="#742698" result="color-4"/>
      <feComposite operator="out" in="SourceGraphic" in2="blur-4"/>
      <feComposite operator="in" in="color-4"/>
      <feComposite operator="in" in2="SourceGraphic"/>
    </filter>
    <filter id="Retângulo_4356-2">
      <feOffset input="SourceAlpha"/>
      <feGaussianBlur stdDeviation="15" result="blur-5"/>
      <feFlood flood-color="#ff0070" result="color-5"/>
      <feComposite operator="out" in="SourceGraphic" in2="blur-5"/>
      <feComposite operator="in" in="color-5"/>
      <feComposite operator="in" in2="SourceGraphic"/>
    </filter>
    <filter id="Retângulo_4355-3">
      <feOffset input="SourceAlpha"/>
      <feGaussianBlur stdDeviation="15" result="blur-6"/>
      <feFlood flood-color="#742698" result="color-6"/>
      <feComposite operator="out" in="SourceGraphic" in2="blur-6"/>
      <feComposite operator="in" in="color-6"/>
      <feComposite operator="in" in2="SourceGraphic"/>
    </filter>
    <filter id="Retângulo_4356-3">
      <feOffset input="SourceAlpha"/>
      <feGaussianBlur stdDeviation="15" result="blur-7"/>
      <feFlood flood-color="#ff0070" result="color-7"/>
      <feComposite operator="out" in="SourceGraphic" in2="blur-7"/>
      <feComposite operator="in" in="color-7"/>
      <feComposite operator="in" in2="SourceGraphic"/>
    </filter>
    <filter id="Retângulo_4355-4">
      <feOffset input="SourceAlpha"/>
      <feGaussianBlur stdDeviation="15" result="blur-8"/>
      <feFlood flood-color="#742698" result="color-8"/>
      <feComposite operator="out" in="SourceGraphic" in2="blur-8"/>
      <feComposite operator="in" in="color-8"/>
      <feComposite operator="in" in2="SourceGraphic"/>
    </filter>
    <filter id="Retângulo_4356-4">
      <feOffset input="SourceAlpha"/>
      <feGaussianBlur stdDeviation="15" result="blur-9"/>
      <feFlood flood-color="#ff0070" result="color-9"/>
      <feComposite operator="out" in="SourceGraphic" in2="blur-9"/>
      <feComposite operator="in" in="color-9"/>
      <feComposite operator="in" in2="SourceGraphic"/>
    </filter>
  </defs>
  <g id="Grupo_23950" data-name="Grupo 23950" transform="translate(7692.693 4808.998)" style="isolation: isolate">
    <g id="Grupo_23929" data-name="Grupo 23929" transform="translate(-7555.953 -4808.998) rotate(3)">
      <g id="Grupo_8181" data-name="Grupo 8181" transform="translate(0)" style="isolation: isolate">
        <g id="Grupo_8180" data-name="Grupo 8180" transform="translate(0 0)" clip-path="url(#clip-path)">
          <path id="Caminho_9134" data-name="Caminho 9134" d="M15.77,21a6.354,6.354,0,0,1-3.18,11.851,6.578,6.578,0,0,1-.808-.059l-.834-.161v-.01a5.864,5.864,0,0,1-1.474-.6L.7,45.377l-.7-.47L8.765,31.554a6.472,6.472,0,0,1-2.042-2.633l-.259-.805a6.092,6.092,0,0,1-.217-1.633,5.494,5.494,0,0,1,.112-1.144L1.949,24.221l.213-.822.269-.805,4.291,1.456a6.4,6.4,0,0,1,2.042-2.629L8.482,21l.7-.463-3-6.133.748-.375,3.247,6.583a6.345,6.345,0,0,1,2.413-.48,6.443,6.443,0,0,1,2.42.48L25.154,0l.752.371Z" transform="translate(270.332 97.446)" fill="url(#radial-gradient)"/>
          <path id="Caminho_9135" data-name="Caminho 9135" d="M13.668,24.345l.473-.7-.19-.6-.978-.736.512-.68L9.074,8.217a4.24,4.24,0,0,1-.463.059v7.733H7.765V8.276A4.108,4.108,0,0,1,5.6,7.388L4.327,8.683l-.6-.592-.936.71-.506-.68,2.377-1.8a3.348,3.348,0,0,1-.236-.44L.269,7.283,0,6.487,4.146,5.074a4.226,4.226,0,0,1-.105-.92A3.893,3.893,0,0,1,4.33,2.665L4.7,1.913a4.146,4.146,0,1,1,6.274,5.305l17.4,23.573a6.18,6.18,0,0,1,3.391-1,6.3,6.3,0,0,1,0,12.6,6.194,6.194,0,0,1-2.4-.48l-.752-.371a6.2,6.2,0,0,1-1.806-1.584l-.479-.7a5.806,5.806,0,0,1-.545-1.21L12.1,41.527l-.164.509-.808-.263-.2-.815.515-.138L14.364,31.9a4.455,4.455,0,0,1-.9-.555l-.6-.595a4.079,4.079,0,0,1-.972-2.639,4.153,4.153,0,0,1,.282-1.489l.381-.753a4.485,4.485,0,0,1,.309-.391L10.88,23.454l.6-.592,1.986,2.012a5.215,5.215,0,0,1,.492-.339Zm1.494-.3a.2.2,0,0,0,.079-.016l-.112-.082Zm10.785,8.615-5.808-3.928a4.023,4.023,0,0,1-.22.864Zm.026.963-6.428-3.267a4.188,4.188,0,0,1-3.493,1.913,4.419,4.419,0,0,1-.89-.1l-2.754,8.4,13.164-3.342a6.443,6.443,0,0,1-.1-1.134,6.375,6.375,0,0,1,.5-2.468m1.057-1.676a6.613,6.613,0,0,1,.666-.657L10.292,7.73a4.161,4.161,0,0,1-.414.22l4.784,14.586L16.6,24.009a4.148,4.148,0,0,1,3.28,2.5Z" transform="translate(266.87 55.905)" fill="url(#radial-gradient)"/>
          <path id="Caminho_9136" data-name="Caminho 9136" d="M3.595,6.172a1.361,1.361,0,0,0-.046-.138L3.4,6.067Zm7.488.4,2.308,1.558-.473.7L10.725,7.349l-.6.592-.1-.1a4.049,4.049,0,0,1-1.589.8l3.372,1.716-.381.753L6.694,8.693c-.046-.01-.1-.016-.138-.026l-.8-.26a4.252,4.252,0,0,1-1.136-.763L2.154,6.392l-.936.237-.207-.822L0,5.3l.381-.753,1.868.95,1.1-.279a2.905,2.905,0,0,1-.062-.611,4.6,4.6,0,0,1,.105-.924l.276-.8a4.1,4.1,0,0,1,.578-.914l-.8-.818L4.054.562l.68.7L4.51.91,4.057.565,4.917,0l.22.329.63.483A4.043,4.043,0,0,1,7.019.5h.847A4.147,4.147,0,0,1,11.6,4.612a4.669,4.669,0,0,1-.062.6l1.2.9-.512.68L11.313,6.1c-.069.151-.144.316-.23.467" transform="translate(267.619 71.421)" fill="url(#radial-gradient)"/>
          <path id="Caminho_9137" data-name="Caminho 9137" d="M8.325,7.017,9.711,9.141l-.86.565-.607.595-1.287-1.3a4.124,4.124,0,0,1-2.163.881V10.5h-.84V9.886A4.113,4.113,0,0,1,1.2,8.43l-.473-.7A3.552,3.552,0,0,1,.5,7.253L0,6.586l.282-.22A1,1,0,0,1,.266,6.2V5.35a4.115,4.115,0,0,1,1.91-3.089v-.01l.758-.371a4.329,4.329,0,0,1,.86-.21l-.309-.477-.2.069L3,.467,3.716,0l.115.187.21-.069.269.8.479.74a4.284,4.284,0,0,1,1.254.312l.282-.21.506.68c.039.033.082.076.121.108l.814-.822.6.592-.811.822a4.118,4.118,0,0,1,.969,2.639,4.037,4.037,0,0,1-.2,1.242" transform="translate(262.826 62.277)" fill="url(#radial-gradient)"/>
          <path id="Caminho_9138" data-name="Caminho 9138" d="M16.939,9.742l.584-.4-.387-.128-.5.371Zm6.343,3.221v-1.67L18.535,9.686l-.729.49ZM16.165,8.888l-2.741-.93L15.8,9.167ZM15.9,10.156l-.335.246-.5-.67L12.826,8.6a5.627,5.627,0,0,1-6.95,2.327L5.344,12l-.758-.371L.7,17.534l-.7-.46,4.54-6.918a5.638,5.638,0,0,1-.985-.973l-.479-.7a5.709,5.709,0,0,1-.739-2.386V5.248A5.7,5.7,0,0,1,5.527.568L6.306.256A5.48,5.48,0,0,1,7.986,0,5.7,5.7,0,0,1,10.1.414l.752.371A5.8,5.8,0,0,1,13.2,3.451L20.862.862l.276.8-7.675,2.6a7.4,7.4,0,0,1,.161.989h5.965v.845H13.627a6.559,6.559,0,0,1-.161.979l3.509,1.193,2.35-1.785.5.667L17.947,8.592l.453.151,1.661-1.124.473.7-1.123.759,3.871,1.312h.84v.286L27.8,11.919l-.276.8-3.4-1.144v1.811l.381.194-.381.753v.759l1.011-.253.207.822-1.215.306V33.475h-.84V16.181l-19.06,4.84L4.018,20.2l19.264-4.9V13.9L17,10.708l-4.077,2.767-.476-.7,3.693-2.5Z" transform="translate(243.5 62.379)" fill="url(#radial-gradient)"/>
          <path id="Caminho_9139" data-name="Caminho 9139" d="M26.516,27.9a6.358,6.358,0,0,1,2.413-.48,6.592,6.592,0,0,1,.814.059L35.146,0l.834.161L30.571,27.647a6.352,6.352,0,1,1-7.091,9.376L2.73,47.566l-.387-.749L23.093,36.271a6.285,6.285,0,0,1-.5-2.488,5.145,5.145,0,0,1,.033-.641l.144-.838c.039-.171.092-.348.144-.516l-3.45-1.407.315-.776L0,19.55.381,18.8l23.1,11.735a6.455,6.455,0,0,1,2.275-2.248L23.5,23.69l.752-.371Z" transform="translate(246.134 130.079)" fill="url(#radial-gradient)"/>
          <path id="Caminho_9140" data-name="Caminho 9140" d="M18.542,3.06l.476.7L9.872,9.955a3.392,3.392,0,0,1,.243.532l.207.822a3.037,3.037,0,0,1,.059.6,4.1,4.1,0,0,1-.505,1.956l16.76,11.356-.473.7L9.4,14.566a4.072,4.072,0,0,1-5.752.575l-.6-.595a5.3,5.3,0,0,1-.348-.473l-.709-.467.3-.457a4.394,4.394,0,0,1-.171-.822v-.848a4.08,4.08,0,0,1,.932-2.209L0,6.174l.6-.592L3.651,8.669a4.1,4.1,0,0,1,2.157-.881l.3-.45.7.46a3.644,3.644,0,0,1,.867.22l3.017-6.126.758.371L8.431,8.39a3.9,3.9,0,0,1,.827.68L21.158,0l.5.671Z" transform="translate(237.404 72.104)" fill="url(#radial-gradient)"/>
          <path id="Caminho_9141" data-name="Caminho 9141" d="M4.793,10.928l-4.038,8.2L0,18.757l3.5-7.125-.7-.463.657-1.012a1.536,1.536,0,0,1-.21-.171l-.6-.592a5.688,5.688,0,0,1-1.379-3.3V5.252a5.585,5.585,0,0,1,.164-.983l.263-.8c.092-.214.194-.417.3-.615l.476-.693a5.451,5.451,0,0,1,.991-.973l.7-.467A5.553,5.553,0,0,1,6.909,0a5.672,5.672,0,0,1,4.836,2.741l.387.749a5.844,5.844,0,0,1,.44,2.182,5.656,5.656,0,0,1-7.78,5.255" transform="translate(236.734 174.147)" fill="url(#radial-gradient)"/>
          <path id="Caminho_9142" data-name="Caminho 9142" d="M49.571,25.994a2.735,2.735,0,0,1,.341-.477l-1.97-2Zm4.98,6.038a4.126,4.126,0,0,1-.877.22l3.881,5.913-.7.463-4.173-6.36a4.268,4.268,0,0,1-1.481-.45l-.709-.467a4.182,4.182,0,0,1-.873-.956l-1.569.8-.381-.753-.269-.805,1.661-.565a4.255,4.255,0,0,1-.105-.924,4.073,4.073,0,0,1,.21-1.242l-2.013-3.063a4.012,4.012,0,0,1-3.349.21l-.758-.375a4.213,4.213,0,0,1-.387-.286l-.6-.592a4.154,4.154,0,0,1-.965-2.643,3.333,3.333,0,0,1,.062-.6L17.7,13.595a4.117,4.117,0,0,1-1.274,1.785l11.8,18-.7.473-11.816-18a4.011,4.011,0,0,1-3.8,0L.7,32.92,0,32.453,11.194,15.379a4.172,4.172,0,0,1-1.54-3.208,4.081,4.081,0,0,1,.968-2.639l.6-.592a4.479,4.479,0,0,1,.9-.559L10.97,4.872l.8-.263,1.152,3.5a4.418,4.418,0,0,1,.89-.1,4.119,4.119,0,0,1,1.9.483l1.71-2.606.709.467L16.512,8.819l1.97-2,.6.595L16.991,9.529a4.091,4.091,0,0,1,.978,2.639,3.628,3.628,0,0,1-.072.6l23.453,5.957a3.953,3.953,0,0,1,.249-.532l.473-.7a4.112,4.112,0,0,1,2.748-1.456h.84a4.1,4.1,0,0,1,.466.059L51.415,0l.8.26-5.278,16.1a4.056,4.056,0,0,1,.89.565l9.95-10.1.6.595-9.94,10.1a4.041,4.041,0,0,1,.7,1.21l6.7-1.692.2.815-6.69,1.7a4.668,4.668,0,0,1,.059.6,4.126,4.126,0,0,1-.968,2.642l2.085,2.117a4.131,4.131,0,0,1,2.584-.923,4.319,4.319,0,0,1,.89.092l2.045-6.228.808.263L54.8,24.348a4.1,4.1,0,0,1,1.477,1.137L71.251,15.34l.479.7L56.751,26.185a3.94,3.94,0,0,1,.519,1.952,4.139,4.139,0,0,1-1.963,3.51Z" transform="translate(221.963 79.819)" fill="url(#radial-gradient)"/>
          <path id="Caminho_9143" data-name="Caminho 9143" d="M4.146,7.139a4.1,4.1,0,0,1,2.59.934L8.821,5.956l.6.592L7.334,8.664A4.045,4.045,0,0,1,8.017,12.8l-.381.753a2.916,2.916,0,0,1-.3.388l-.6.595a4.112,4.112,0,0,1-2.163.887v7.74H3.727v-7.74a4.575,4.575,0,0,1-.469-.059l-.8-.263A4.156,4.156,0,0,1,0,11.306a3.78,3.78,0,0,1,.059-.611l.2-.822a4.348,4.348,0,0,1,.7-1.206l.6-.592a4.358,4.358,0,0,1,.9-.559L.085.263.886,0,3.26,7.244a4.14,4.14,0,0,1,.886-.105" transform="translate(223.77 128.6)" fill="url(#radial-gradient)"/>
          <path id="Caminho_9144" data-name="Caminho 9144" d="M24.934,12.732h.535l-.591-1.811-.42.279a4.261,4.261,0,0,1,.476,1.532M21.24,9.044A4.123,4.123,0,0,1,23.988,10.5l.617-.414-.076-.237.8-.263L29.592,6.7l.6-.592.112.112L39.486,0l.479.7L30.912,6.836l-.6.592L30.2,7.316l-4.583,3.106.755,2.311h6.054v.848H26.641l-.8.263-.085-.263h-.817a4.051,4.051,0,0,1-.932,2.215L26.1,17.911l-.6.592L23.411,16.39a3.785,3.785,0,0,1-3.161.871l-.821-.2a4.119,4.119,0,0,1-2.646-4.825L0,6.548l.266-.8L17.052,11.43c.033-.076.085-.151.125-.23l.473-.7A4.122,4.122,0,0,1,20.4,9.044Z" transform="translate(207.099 70.858)" fill="url(#radial-gradient)"/>
          <path id="Caminho_9145" data-name="Caminho 9145" d="M17.749,65.631l1.51-2.317-1.97,2a3.8,3.8,0,0,1,.3.385Zm10.37-8.18-.427-.855-1.53,1.038,1.165.592a3.228,3.228,0,0,1,.791-.776m3.506.079L36.976,52.1l-1.51-.759-7.061,4.788.479.966a2.9,2.9,0,0,1,.945-.171,2.98,2.98,0,0,1,1.8.608M10.512,39.676l7.682,2.6a3.946,3.946,0,0,1,.584-.9L8.831,31.259a3.617,3.617,0,0,1-.893.569ZM24.906,60.705l1.405.569.65-.329a2.4,2.4,0,0,1-.138-.559H24.968a3.225,3.225,0,0,1-.062.319m2.055-1.722-1.592-.8-.683.457a2.69,2.69,0,0,1,.282.9h1.855a2.724,2.724,0,0,1,.138-.559m20.766-20.3-1.773-7.165v6.761a5.819,5.819,0,0,1,1.773.4m.85-.082L52.72,32.29l-5.913-1.5c-.039.016-.092.043-.138.059Zm4.632-7.066.249-.375L48.242,29.4a3.29,3.29,0,0,1-.515.753Zm-29.8,16.346a4.142,4.142,0,0,1-1.024.233v7.6L25.3,57.2l2.012-1.364Zm1.09,9.857-2.114-1.075v.3a3.044,3.044,0,0,1,1.825.966Zm-.339-10.228,3.858,7.842L34.606,50.9l-9.15-4.645a4.335,4.335,0,0,1-1.293,1.259M50.978,54.1a4.994,4.994,0,0,1,.5-.181l-1.543-6.235a5.829,5.829,0,0,1-1.494,1.272Zm-31.87-.045,2.433,1.233V48.117a3.766,3.766,0,0,1-.466-.059Zm.268-13.288a4.063,4.063,0,0,1,5.174,0L35.275,29.87a2.969,2.969,0,0,1-.591-1.413H10.361a4.068,4.068,0,0,1-.922,2.205ZM24.006,63.4,18.33,66.289l-.282.421a3.526,3.526,0,0,1,.144.624Zm-3.335-.687-1.412,2.153,6.053-3.083-.729-.3a3.028,3.028,0,0,1-2.616,1.525,2.958,2.958,0,0,1-1.3-.3m-.512-5.183a3.038,3.038,0,0,1,1.385-.562v-.733l-2.7-1.374-.328,1Zm27.4-.051L37.771,52.5l-5.538,5.626a3.12,3.12,0,0,1,.591,1.413H47.072a6.182,6.182,0,0,1,.482-2.064m-9.169-5.611,9.557,4.858a6.366,6.366,0,0,1,2.281-2.248l-2.538-5.154a5.638,5.638,0,0,1-2.15.424,5.714,5.714,0,0,1-3.713-1.374ZM25.253,41.258,39.1,31.885l-.473-.976a2.952,2.952,0,0,1-.945.171,3.045,3.045,0,0,1-1.812-.611Zm15.308,5.6a5.85,5.85,0,0,1-.742-2.435H26.077a4.56,4.56,0,0,1-.243,1.068L35.4,50.356Zm-.739-3.283a5.768,5.768,0,0,1,2.813-4.526L39.48,32.645,25.6,42.044a4.135,4.135,0,0,1,.476,1.532ZM15.8,64.162a4.009,4.009,0,0,1,.9.559l2.859-2.912a3.007,3.007,0,0,1,0-3.684l-1.33-1.361Zm26.583-34.5L40.5,29.184a3.071,3.071,0,0,1-1.11,1.364l.427.858ZM41.227,47.783c-.062-.076-.131-.141-.19-.22L36.267,50.8l1.33.677Zm1.315-20.17a2.946,2.946,0,0,1,.243-.861l-2.121.72c.007.039.007.092.013.141Zm-1.481.845,1.556.4a2.111,2.111,0,0,1-.072-.4Zm4.045,2.584a3.037,3.037,0,0,1-1.819-.973l-3.106,2.107,3.208,6.508a5.617,5.617,0,0,1,1.717-.4ZM43.872,25.49a2.962,2.962,0,0,1,1.4-.476l1.536-.516L51.2,15.581l.758.375L47.94,24.106l7.606-2.57.269.805L47.4,25.184l-.164.329a3.132,3.132,0,0,1,.781.776l7.79-3.95.381.753L48.4,27.051a3.213,3.213,0,0,1,.171.983,3.043,3.043,0,0,1-.052.559l5.4,1.834,4.711-7.174.709.467-4.583,6.99,4.189,1.42-.269.805L54.27,31.442l-.2.316,4.609,1.177-.213.822-4.878-1.243-4.56,6.938a5.713,5.713,0,0,1,1.789,2.317l12.163-4.117.259.805-12.16,4.121a5.594,5.594,0,0,1-.5,4.181l1.711,6.965a6.423,6.423,0,0,1,1.1-.1,6.32,6.32,0,0,1,3.129.825l.7.47a6.337,6.337,0,0,1-.653,10.56v.007l-.752.371a6.427,6.427,0,0,1-2.426.483A6.356,6.356,0,0,1,47.062,60.4H32.814a3.02,3.02,0,0,1-.131.559l.007.007-.381.753a3.059,3.059,0,0,1-1.881,1.242L52.089,71.77l-.315.776L26.922,62.454l-8.575,5.794L55.08,74.471l-.144.838L18.091,69.073a4.161,4.161,0,0,1-1.385,2.1l10.365,15.8-.7.467L16.01,71.639a4.269,4.269,0,0,1-1.487.447v8.963L25.38,88.408,24.9,89.1,14.523,82.071h-.847V81.5L13.2,81.17l.476-.693V73.371l-.7-.467.551-.838a4.763,4.763,0,0,1-.607-.135l-.453.312L9.776,77.69l-.752-.368L11.043,73.2l-.473-.7,1.234-.828.089-.194c-.131-.085-.263-.181-.387-.279l-.6-.595a4.123,4.123,0,0,1,.985-6.149l-.86-1.762.752-.368.87,1.758a3.855,3.855,0,0,1,1.018-.23h.847a2.811,2.811,0,0,1,.466.053l2.557-7.8-.86-.881.6-.595.558.569.236-.7-.492-.253.381-.753.371.184,1.93-5.87a4.3,4.3,0,0,1-.9-.559l-.6-.592a4.008,4.008,0,0,1-.854-3.566l-7.081-2.4-.8.263-.2-.6-7.682-2.6.269-.8,7.081,2.4L7.114,32.091a3.727,3.727,0,0,1-.89.1,4.114,4.114,0,0,1-2.584-.93l-.1.1-.6-.592L.473,32.448,0,31.745,2.584,29.99a4.082,4.082,0,0,1-.506-1.952A4.138,4.138,0,0,1,3.036,25.4l.6-.592a4.116,4.116,0,0,1,2.584-.933,4.138,4.138,0,0,1,.581.062L12.693,0l.821.2L7.622,24.137a2.869,2.869,0,0,1,.512.23l.7.467a4.13,4.13,0,0,1,1.507,2.781H34.684a2.956,2.956,0,0,1,1-1.85l.7-.473a3.066,3.066,0,0,1,1.3-.3,2.968,2.968,0,0,1,1.8.608L50.2,14.71l.6.592L40.084,26.2a3.177,3.177,0,0,1,.3.48Z" transform="translate(213.812 87.918)" fill="url(#radial-gradient)"/>
          <path id="Caminho_9146" data-name="Caminho 9146" d="M8.466,2.872a3.135,3.135,0,0,1,.591,1.413H10.5v.848H9.057A3.034,3.034,0,0,1,6.48,7.714v.306L5.633,8.2l-.069.289L4.711,8.4l-.341.684-.788-.322-.735,1-.676-.5L.6,10.855,0,10.264,3.647,6.556a3.007,3.007,0,0,1,1.07-4.562V1.988l.8-.263c.033-.01.075-.01.112-.016h.847a3,3,0,0,1,1.382.565L10.1,0l.6.595Z" transform="translate(221.866 191.076)" fill="url(#radial-gradient)"/>
          <path id="Caminho_9147" data-name="Caminho 9147" d="M12.777,12.945.273,17.174,0,16.379,12.514,12.14a6.221,6.221,0,0,1,0-3.231l.263-.8a6.313,6.313,0,0,1,2.019-2.6l.7-.467a6.275,6.275,0,0,1,7.2.71L28.363,0l.6.592L23.3,6.343a6.893,6.893,0,0,1,.7.963L31.413,3.54l.374.753L24.395,8.049A6.322,6.322,0,0,1,23.3,14.7l24.141,24.53-.6.592L22.7,15.289a6.263,6.263,0,0,1-8.207,0l-10.836,11-.6-.592,10.823-11c-.085-.1-.171-.2-.25-.306l-.479-.7a6.667,6.667,0,0,1-.378-.749" transform="translate(170.033 73.484)" fill="url(#radial-gradient)"/>
          <path id="Caminho_9148" data-name="Caminho 9148" d="M23.178,30.353a2.913,2.913,0,0,1,.42-.71L13.017,18.892,20.01,29.544Zm5.588,7.77,4.179-1.413-4.632-3.139a3.07,3.07,0,0,1-1.861.983v1.906a3.022,3.022,0,0,1,2.315,1.663M21.772,11.816,14.427,4.351l-2.006,6.136,8.4,2.843a5.671,5.671,0,0,1,.952-1.515M20.383,15.97H14.428a4.14,4.14,0,0,1-.932,2.209L24.2,29.051a3.092,3.092,0,0,1,1.418-.585V21.193a5.691,5.691,0,0,1-5.23-5.223m-5.955-.845h5.955a5.194,5.194,0,0,1,.171-.989l-8.4-2.843L12,11.75a4.169,4.169,0,0,1,2.43,3.376m20.4,21.838,11.6,7.859-.473.7L33.825,37.3l-4.777,1.617a2.256,2.256,0,0,1,.062.575,2.284,2.284,0,0,1-.062.585l-.266.8h-.016a3.052,3.052,0,0,1-5.259.381l-.374-.753a3.209,3.209,0,0,1-.184-1.006,3.128,3.128,0,0,1,.184-1l.374-.753a2.766,2.766,0,0,1,.5-.549l-1.185-1.818.7-.467,1.185,1.808a3.279,3.279,0,0,1,.9-.26V34.553a3.024,3.024,0,0,1-1.418-.575l-.6-.592a3.031,3.031,0,0,1-.647-1.87c0-.118.026-.227.033-.339l-2.288-.585-.7.467-.506-.769-.9-.227.207-.822L12.219,19.223a4.09,4.09,0,0,1-5.391-1.43L.384,21.06,0,20.314l6.441-3.273a4.186,4.186,0,0,1-.289-1.489,4.345,4.345,0,0,1,.118-.93l.269-.8a4.04,4.04,0,0,1,.584-.914l.6-.595a4.1,4.1,0,0,1,2.157-.887h.847a3.473,3.473,0,0,1,.466.059l.151-.467-.617-.21.269-.8.611.2,2.143-6.54-.3-.316.6-.592L14.969,0l.8.256-1.047,3.2,7.65,7.77a5.808,5.808,0,0,1,1.494-.914l.808-.263a5.455,5.455,0,0,1,1.356-.171,5.6,5.6,0,0,1,3.654,1.348L38.55,2.213l.6.592-8.663,8.8L40.94,3.653l.5.667L30.773,12.457a5.655,5.655,0,0,1,.916,3.09,5.551,5.551,0,0,1-.758,2.807L45.1,27.948l-.473.7L30.459,19.06a5.629,5.629,0,0,1-4.008,2.13v7.277a3.087,3.087,0,0,1,2.62,2.623H43.89v.845H29.071a3.225,3.225,0,0,1-.282.93l5.161,3.5.611-.2Z" transform="translate(178.31 36.532)" fill="url(#radial-gradient)"/>
          <path id="Caminho_9149" data-name="Caminho 9149" d="M56.181,96.3l-.056-.4-.1-.509ZM31.9,79.076,22.257,65.36a4.461,4.461,0,0,1-.847.378l5.76,23.385a3.868,3.868,0,0,1,.558-.059,4.1,4.1,0,0,1,.86.1ZM56.917,48.136,54.373,58.483l3.45-10.5a2.764,2.764,0,0,1-.466-.286Zm-6.356.062a1.865,1.865,0,0,1-.207-.066l-.519,1.055Zm.315,2v-1L49.918,50.5a3.128,3.128,0,0,1,.959-.292M52.147,63.61l-.427-3.477v3.435c.144.007.282.026.427.043m.64-54.276-.532-1.081a2.858,2.858,0,0,1-.538.125v1.906a2.623,2.623,0,0,1,.538.125Zm.82,97.449-1.855-.95,4.636,6.6ZM54.69,84.22l-1.2-9.784a4.51,4.51,0,0,1-.683.23Zm.5-70.029L53.49,10.747l-.177.263a3.071,3.071,0,0,1,1.06,2.311,2.866,2.866,0,0,1-.059.582ZM53.26,8.368l.44-.887L53.576,7.4a2.877,2.877,0,0,1-.548.486Zm-.417,52.8L55.764,49.31l-2.032,2.067a3.006,3.006,0,0,1,.647,1.867A3.087,3.087,0,0,1,52.141,56.2Zm-2.7,43.854-18.45-9.378,25.293,19.281c.03-.026.056-.043.079-.066ZM32.238,78.076l.263-.8L26.764,70.3Zm16.869,25.472L36.187,85.166l-5.325,5.406a4.051,4.051,0,0,1,.946,2.59,3.96,3.96,0,0,1-.276,1.456ZM36.3,83.855l.867-.881-1.7-2.071-.571.953Zm1.667-8.861-.263-.529c-.118.049-.243.089-.358.131L35.11,79.132l.236.3Zm2.348,4.776-1.9-3.865-2.491,4.22,1.845,2.242ZM40.6,66.054l1.313-2.665-2.068,2.1a5.469,5.469,0,0,1,.368.467Zm6.745,28L40.708,80.568l-2.419,2.455Zm-14.1-13.065L32.51,79.94,30,87.578Zm.644.917-.082-.128-.794,1.614Zm.21-2.659-.972-1.183-.289.881.834,1.183Zm1.593,5.219-1.274-1.8-4.264,7.224a1.337,1.337,0,0,1,.105.092Zm-.995-4.5-.466.947.131.187.522-.894Zm-.184-1.548,1.769-3.586a4.917,4.917,0,0,1-.7.049,5.761,5.761,0,0,1-1.356-.171l-.788,2.4Zm17.746-28.09,2.288-4.641H54.3a3.031,3.031,0,0,1-2.58,2.577V50.2a2.381,2.381,0,0,1,.538.122M55.136,20.3c.023-.085.056-.161.079-.237l-2.528-3.839,1.287,3.908ZM48.981,97.383,37.7,83.634l-.909.92,13.924,19.806,2.262,1.15Zm-1.969-44.36.89-1.808L45.965,54.16l.256-.059Zm1.257-.286-.538.726-.135.279.653-.168a2.776,2.776,0,0,1-.033-.332,4.124,4.124,0,0,1,.052-.506M48.45,54.4l-1.346.338-2.124,4.325,3.883-3.95a3.67,3.67,0,0,1-.414-.713M30.366,67.027l-6.458-3.274a4.549,4.549,0,0,1-.7.881l9.6,11.7.617-1.887a5.675,5.675,0,0,1-3.493-5.239,5.527,5.527,0,0,1,.436-2.186M23.911,58.7,48.43,46.239a3.378,3.378,0,0,1-.177-.983,3.047,3.047,0,0,1,1.71-2.725l-2.781-8.463L23.5,58.132a3.816,3.816,0,0,1,.41.565m8.168,6.071L24.364,62.8A1.23,1.23,0,0,1,24.3,63l6.448,3.284a5.848,5.848,0,0,1,1.336-1.512m8.861,14.363.013-.007-.085-.145ZM42.04,18.4,41.6,17.05l-2.643.894Zm-.411,50.391.817-1.39-1.389-.352-.144.276a5.42,5.42,0,0,1,.309,1.466Zm5.26-35.62L42.336,19.292l-5.141-.746L8.2,28.368a4.027,4.027,0,0,1,.105.917A4.167,4.167,0,0,1,6.356,32.8l11.8,23.97a4.732,4.732,0,0,1,4.747.766ZM45.664,69.634H42.115l-2.892,4.9,2.341,3.97,5.485-5.567a5.588,5.588,0,0,1-1.386-3.3m7.669-48.741L43.265,19.43,47.55,32.495l7.2-7.312Zm-10.364-2.36L53.044,20l-1.2-3.648a2.674,2.674,0,0,1-.552.062A3.07,3.07,0,0,1,48.556,14.7L42.4,16.778Zm2.757,49.7L43.3,67.612l-.686,1.173h3.05c.016-.187.03-.371.062-.555M38.32,64.26l5.741-8.739-19.49,4.949a4.118,4.118,0,0,1,.072.753,4.411,4.411,0,0,1-.072.759l8.5,2.157a5.632,5.632,0,0,1,2.518-.6,5.555,5.555,0,0,1,2.735.723m5.433,2.6,2.183.552a5.657,5.657,0,0,1,4.941-3.842V56.28a2.821,2.821,0,0,1-.762-.194Zm5.433-10.862-5.394,5.482-2.357,4.789,1.464.371Zm-6.1,4.982L44.908,57.3l-5.446,7.362Zm2.189-5.768-.936,1.433,1.08-1.466Zm-.529-.74,4.55-6.935A3.246,3.246,0,0,1,48.811,47L24.3,59.444a1.53,1.53,0,0,1,.069.207Zm11.815,49.439L51.8,74.85a4.875,4.875,0,0,1-.5.026,5.554,5.554,0,0,1-3.644-1.351L42.011,79.25Zm-1.707,3.51,1.484,3.024,1.848,3.757a.155.155,0,0,0,.059-.016l-.364-2.251a3.066,3.066,0,0,1-1.806-2.8,3.215,3.215,0,0,1,.177-1Zm2.042-.371-5.568-6.787,2.906,5.9,2.393,1.216c.085-.118.177-.223.269-.329m-1.937-62.21.637-1.288-.873.44-.456.618c.013.076.013.154.03.23h.663M55.412,24.5l.558-.555a4.179,4.179,0,0,1-.962-2.643,1.388,1.388,0,0,1,.013-.171l-.752-.108Zm.746,21.183h-.67L53.03,50.69l.1.085L56.158,47.7l.282-1.117a3.109,3.109,0,0,1-.282-.9m-.533-26.536a2.726,2.726,0,0,1,.345-.473l-1.97-2Zm1.329-1.354-1.238-2.531L54.042,14.7a3.173,3.173,0,0,1-.315.486l2.837,2.886c.128-.1.259-.191.391-.276M51.838,42.266l4.257-12.972-1.054-3.2L47.852,33.4l2.916,8.868a3.6,3.6,0,0,1,.529-.053,3.562,3.562,0,0,1,.542.053m3.87-16.854.827,2.521.932-2.833a4.413,4.413,0,0,1-.9-.559Zm.208,19.424h.243a3.006,3.006,0,0,1,1.2-2.021l.053-.181-.548.269Zm.1,59.774L41.394,79.878l-.059.062L49.69,96.93ZM64.6,39.118c-.026-.033-.062-.069-.085-.1l-1.136.585-1.52,2.307Zm-5.87,3.138v-.3l-.341.168-.046.21a1.657,1.657,0,0,1,.387-.082m0-25.071v-.894l-1.9-.644.883,1.778a3.842,3.842,0,0,1,1.014-.24m4.873,14.126-3-6.123a4.359,4.359,0,0,1-.873.22ZM60.452,42.52l1.412-2.149-2.282,1.16v.73a2.689,2.689,0,0,1,.87.26m-.87-1.939L62.8,38.95l.808-1.255v-.848h.407a3.021,3.021,0,0,1,1-1.85L63.8,33.153l-.6-.595.125-.128-3.753-5.716V34.27h-.847V25.429a3.826,3.826,0,0,1-.469-.062l-1.287,3.924,1.642,5-.8.263-1.287-3.9-3.9,11.888a2.831,2.831,0,0,1,.466.289l.6.592a1.174,1.174,0,0,1,.085.1l.374-.191,1.113-1.5.676.5-.112.151.381-.194.466-.956.788.322.2-.1.144-.585.854.082L58.732,41v-.253Zm5.627-.871-3.637,3.7a3.092,3.092,0,0,1,.627,1.847,3.047,3.047,0,0,1-3.043,3.047,3.432,3.432,0,0,1-.532-.053l-5.16,15.72A5.669,5.669,0,0,1,54.617,73.8l4.536,32.252h.007a3.083,3.083,0,1,1,0,6.166c-.062,0-.118-.016-.181-.016l.23,1.837a3.114,3.114,0,1,1-2.721,1.574L30.7,95.959a4.039,4.039,0,0,1-2.964,1.295,4.076,4.076,0,0,1-1.379-7.918L20.6,65.951a5.4,5.4,0,0,1-.729.059,4.769,4.769,0,0,1-2.479-8.848l-11.8-23.98a4.063,4.063,0,0,1-1.448.273,4.153,4.153,0,0,1-1.681-7.947V25.5l.8-.256a3.034,3.034,0,0,1,.46-.062h.847c.053.007.1.007.151.016L6.88,16.44l.814.2L5.541,25.393a4.152,4.152,0,0,1,2.384,2.173L35.35,18.279l-27-3.929.118-.832,28.647,4.159,4.225-1.429L39.1,9.412l.791-.263,2.246,6.83L48.274,13.9a2.867,2.867,0,0,1-.059-.582,3.154,3.154,0,0,1,.105-.753l.309-.779h.013a3.055,3.055,0,0,1,2.232-1.5V8.381a3.077,3.077,0,0,1,.417-6.126,2.919,2.919,0,0,1,.552.062l.8.263v.01a3.392,3.392,0,0,1,.483.286L55.965,0l.6.595L54.58,2.606l1.047-.713.473.7-2.052,1.4a3.02,3.02,0,0,1,.328,1.354A3.073,3.073,0,0,1,54.048,6.7l.033.016.752.368-.049.108.026.01L58.03,2.3l.7.467L55.506,7.681,58.733,9.87l-.476.693L55.04,8.387l-1,1.541,2.282,4.647,2.413.822V11.464h.847v4.223l10.079,3.419-.263.8-9.816-3.323v.608a4.151,4.151,0,0,1,3.693,3.7h5.958v.848H63.271a4.18,4.18,0,0,1-1.91,3.086l3.149,6.416,6.1-6.2.6.592-6.3,6.412,1.028,2.11,4.829-7.339.7.463-4.583,6.981c.046,0,.082-.016.131-.016a2.929,2.929,0,0,1,.942.168l.007-.007.755.368a3.035,3.035,0,1,1-3.512,4.946" transform="translate(168.765 158.515)" fill="url(#radial-gradient)"/>
          <path id="Caminho_9150" data-name="Caminho 9150" d="M3.322,9.436a4.153,4.153,0,0,1,2.163-.891h.847a4.256,4.256,0,0,1,1.024.23L11.67,0l.752.371L8.112,9.143a4.221,4.221,0,0,1,1.661,2.015l.821.2-.368,1.5-.118.832-.082-.01-.571,2.294-.814-.2a4.115,4.115,0,0,1-2.308,1.006v7.737H5.487V16.775a4.135,4.135,0,0,1-3.687-3.7H1.261v-.838H1.8a4.15,4.15,0,0,1,.578-1.732L0,8.683l.506-.664.936.713.607-.6Z" transform="translate(167.004 159.17)" fill="url(#radial-gradient)"/>
          <path id="Caminho_9151" data-name="Caminho 9151" d="M15.643,6.334a4.1,4.1,0,0,1,.289,1.489,4.147,4.147,0,0,1-.965,2.633l.808.818-.607.6-.8-.825c-.056.046-.085.076-.138.112l-.506.664-.246-.184-.8.263-.007-.026a3.806,3.806,0,0,1-.89.1A4.148,4.148,0,0,1,7.9,9.242l-.207-.822a4.674,4.674,0,0,1-.062-.6,4.457,4.457,0,0,1,.062-.595L0,1.37.519.693,7.909,6.33a4.844,4.844,0,0,1,.23-.477L.519.693.991,0l7.62,5.164a4.269,4.269,0,0,1,.558-.559l.7-.47a4.177,4.177,0,0,1,1.911-.48,4.122,4.122,0,0,1,2.59.927l2.859-2.909.6.592L14.97,5.181a4.606,4.606,0,0,1,.3.385l3.568-1.807.381.753Z" transform="translate(153.277 156.029)" fill="url(#radial-gradient)"/>
          <path id="Caminho_9152" data-name="Caminho 9152" d="M18.1,3.813a4.139,4.139,0,0,1,7.518,3.435l7.919,4.027L34.085,11l.381.753-.374.753-.558-.279-.558.279-.381-.753L25.231,8a3.889,3.889,0,0,1-.3.388l.118.128-.6.592,2.328,3.537-.716.463L23.646,9.43a4.007,4.007,0,0,1-1.9.48,4.144,4.144,0,0,1-2.59-.924L.6,27.837,0,27.243,18.554,8.385a4.166,4.166,0,0,1-.929-2.209V5.331a3.973,3.973,0,0,1,.075-.5L8.134,1.591,8.406.785,8.724,0Z" transform="translate(127.586 14.38)" fill="url(#radial-gradient)"/>
          <path id="Caminho_9153" data-name="Caminho 9153" d="M30.729,53.661a3.031,3.031,0,0,1-2.577,2.58v.3l4.573-2.317a3.393,3.393,0,0,1-.138-.559Zm.287-37.606,1.862,1.9-.742-1.144Zm4.148,34.181V46.283L30.141,51.4a3.1,3.1,0,0,1,.591,1.42h1.855a3.038,3.038,0,0,1,2.577-2.58m10.32-24.373-5.811-3.934a4.631,4.631,0,0,1-.217.871Zm16.62,37.7L52.861,35.389a6.192,6.192,0,0,1-4.652-.615L37.593,50.967a2.969,2.969,0,0,1,.936,3.011ZM45.5,26.817,39.076,23.55a4.138,4.138,0,0,1-3.069,1.87v18.8l10.587-10.75a6.341,6.341,0,0,1-1.09-6.652m10.758-1.393,5.443-3.7H40.891l5.45,3.7a6.269,6.269,0,0,1,9.921,0m6.661-3.493-5.807,3.934L63.149,22.8a4.2,4.2,0,0,1-.227-.871M47.5,34.307c-.1-.076-.207-.164-.309-.243L36.007,45.432V50.24a2.8,2.8,0,0,1,.88.26Zm20.951-9.113a3.982,3.982,0,0,1-1.438.273,4.147,4.147,0,0,1-3.49-1.916l-6.441,3.267a6.117,6.117,0,0,1,.509,2.468,6.781,6.781,0,0,1-.108,1.137l15.479,3.935ZM3.266,33.214c.154-.033.305-.043.466-.062h.844c.154.02.315.03.463.062L8.81,21.724l.8.263-3.765,11.5a4.148,4.148,0,0,1,2.466,3.786,4.1,4.1,0,0,1-.519,1.956L25.479,51.213A3.024,3.024,0,0,1,27.725,50.2a2.948,2.948,0,0,1,1.809.608l5.63-5.718V25.426a4.138,4.138,0,0,1-3.687-3.7V20.88a3.46,3.46,0,0,1,.072-.5l.266-.8a3.913,3.913,0,0,1,.588-.914l-2.088-2.123a4.1,4.1,0,0,1-2.59.93,4.141,4.141,0,0,1-3.766-2.436l-.276-.8c-.033-.161-.046-.332-.066-.5V12.9c.02-.168.033-.339.066-.5l.276-.8A4.179,4.179,0,0,1,25.526,9.8l.762-.371a4.17,4.17,0,0,1,.867-.21L26.6,8.384l.7-.463V0h.847V9.2h.007a4.159,4.159,0,0,1,3.726,4.122,4.108,4.108,0,0,1-.21,1.242l1.083,1.643.916.634.808-.263.217.67a3.807,3.807,0,0,1,.89-.1A4.152,4.152,0,0,1,39.7,20.881H62.909a4.077,4.077,0,0,1,5.285-3.543l.453-.306.473.7a3.858,3.858,0,0,1,.479.345l1.986-2.021.6.592L70.21,18.674a4.145,4.145,0,0,1,.965,2.629,4.562,4.562,0,0,1-.112.93l-.269.8a4.236,4.236,0,0,1-.584.914l9.935,10.1-.6.592-9.935-10.1a4.659,4.659,0,0,1-.394.289l4.83,9.8,4.8,1.216-.2.822L74.538,35.63l4.974,10.113,1.536-4.674.8.263-1.8,5.492.378.779-.752.368-3.45,10.491-.8-.263L79.138,46.89,73.465,35.357,57.286,31.245a6.339,6.339,0,0,1-3.624,3.881l9.466,28.851,9.087,3.7-.309.779-8.431-3.419-.791.263-.23-.687L38.211,54.763a3.024,3.024,0,0,1-2.616,1.525,1.931,1.931,0,0,1-.309-.036L32.42,67.909l-.821-.2,2.649-10.787-.752-.371.387-.792a3.205,3.205,0,0,1-.775-.772L28.159,57.5v7.6h-.847V57.921l-.381-.753.381-.2v-.73a2.988,2.988,0,0,1-1.379-.569l-.6-.592a2.963,2.963,0,0,1-.319-3.172L7.331,39.925a4.194,4.194,0,0,1-.558.549l11.2,17.065-.7.47L6.064,40.941a4.085,4.085,0,0,1-1.9.48,4.175,4.175,0,0,1-1.448-.266l-.752-.375a4.1,4.1,0,0,1-.391-.286l-.6-.595A4.079,4.079,0,0,1,0,37.266,4.148,4.148,0,0,1,2.465,33.48v-.01Z" transform="translate(145.184 102.626)" fill="url(#radial-gradient)"/>
          <path id="Caminho_9154" data-name="Caminho 9154" d="M47.535,33.97l-3.51-7.132A2.913,2.913,0,0,1,43.08,27c-.039,0-.082-.01-.121-.01ZM53.4,38.092a2.517,2.517,0,0,1,.282.457l5.6-1.9L53.457,33.7a3.142,3.142,0,0,1-1.172,1ZM51.366,28.9a2.984,2.984,0,0,1,1.4.575l1.5-1.528L53.339,27l-1.126-.286a3.07,3.07,0,0,1-.847.246Zm0,7.977a3.292,3.292,0,0,1,.824.23l-.7-2.14c-.039.007-.082.007-.121.016ZM64.2,43.972l.253-.532a4.141,4.141,0,0,1-1.908-3.086H54.147l.072.237ZM64.623,45,62.2,49.938l3.086-4.706Zm-2.078-5.5a3.793,3.793,0,0,1,.249-1.065l-2.452-1.252L53.96,39.354a1.19,1.19,0,0,1,.02.151Zm1.539-10.652-1.359-.46-.2.069Zm-.718,8.332-.749-.769-.256.082Zm5.41-7.631.86-3.494-5.594,1.89Zm1.412,8.207,1.625-2.468-1.976,1.995a4.517,4.517,0,0,1,.351.473m.138-6.241.089-.177-1.142-.3-.118.473h1.172M65.765,44.505l.315-.477a4.787,4.787,0,0,1-.867-.22l-.21.431Zm1.46-8.68.263-1.058L63.5,36.121l.565.575a4.124,4.124,0,0,1,2.59-.93,4.051,4.051,0,0,1,.571.059m.5-2.031.354-1.43H59.806l3.037,3.086Zm1.248.473-.538.177-.384,1.581a.109.109,0,0,1,.052.016Zm.939-1.9h-.959l-.269,1.1.808-.279Zm.712.45.86-.3a1.186,1.186,0,0,1-.007-.151h-.63Zm.886-8.43h-.6l-.092.381.709-.246a1.033,1.033,0,0,0-.02-.135m.3.94-1.228.414-1.011,4.089,1.353.457,1.881-3.809a3.034,3.034,0,0,1-.995-1.15m.925-11.871A5.751,5.751,0,0,1,70.8,12.362L59.806,23.536H70.249Zm.831,13.387L71.74,30.554l.033.016A3.045,3.045,0,0,1,74.087,28.9V26.958a3.4,3.4,0,0,1-.519-.118M73.554,13.65,71.122,23.54h.387a3.041,3.041,0,0,1,2.577-2.58V13.716c-.177-.016-.351-.033-.532-.066m-1.473,20.16a3.064,3.064,0,0,1-.309-.49l-1.674.565-1.241,2.531c.131.082.249.177.381.276Zm1.116.907-2.6,3.96a4.069,4.069,0,0,1,.207,1.252,4.328,4.328,0,0,1-.105.924L74.087,42V34.991a3.29,3.29,0,0,1-.89-.273m22.314-5.862-10.437-3.53a2.845,2.845,0,0,1-.525.746Zm6.323,2.666a1.629,1.629,0,0,1,.02-.177l-18.128-4.6L85.3,31.521ZM79.375,23.54a3.019,3.019,0,0,1,1.293-2.1L76.66,13.312a5.769,5.769,0,0,1-1.724.4V20.96a3.018,3.018,0,0,1,2.577,2.58Zm.079,1.236a1.875,1.875,0,0,1-.079-.391H77.9Zm-.006,6.744,1.585-4.838a3.468,3.468,0,0,1-.476-.279l-3.614,3.674a2.98,2.98,0,0,1,.6,1.446h1.9Zm31.41-8.3L79.647,10.538a5.769,5.769,0,0,1-2.232,2.4l4.012,8.141a3.1,3.1,0,0,1,.942-.161,3.034,3.034,0,0,1,3,2.623H110.8c.023-.112.036-.223.059-.322M76.345,29.479,79.966,25.8a.031.031,0,0,1-.02-.026l-2.617-.661a3.05,3.05,0,0,1-2.393,1.847V28.9a3.026,3.026,0,0,1,1.408.579m5.482-2.527L80.334,31.52H84.4l-1.5-4.569a2.807,2.807,0,0,1-.532.049,3,3,0,0,1-.545-.049m3.529-2.429,16.819,5.7a4.113,4.113,0,0,1,6.349-1.5L111.4,25.8a3.093,3.093,0,0,1-.6-1.413H85.366c0,.043,0,.089-.01.135M56.4,50.066l.033-.01-2.82-8.621a3.032,3.032,0,0,1-.949,1.039Zm5-22.116-4.445-1.506-.486.483,4.56,1.16Zm-2.433-3.566L57.61,25.771l5.118,1.736,7.143-2.419.174-.7ZM57.237,49.793a6.186,6.186,0,0,1,3.956.273l2.623-5.331L54.554,41.6ZM61.06,28.962l-3.454,1.167,1.359,1.387h9.327l.158-.677Zm-2.433-5.423L70.2,11.77c-.072-.076-.131-.145-.194-.22L53.66,22.622a3.082,3.082,0,0,1,.276.914h4.691Zm-8.765,5.524-3.493-2.37,2.741,2.784a2.745,2.745,0,0,1,.752-.414M45.8,25.29l4.718,3.188V26.957a3.042,3.042,0,0,1-2.012-1.187L45.9,25.109c-.03.062-.066.122-.092.181m.66-.907,1.563.391a2.116,2.116,0,0,1-.082-.391Zm-1.681,2.09,3.365,6.83,1.832,3.7a2.744,2.744,0,0,1,.538-.128V34.986a3.123,3.123,0,0,1-2.351-1.693,3.036,3.036,0,0,1,.335-3.224l-3.625-3.675a.638.638,0,0,1-.1.079m11.274,3.284-1.188-1.2-1.487,1.515a2.93,2.93,0,0,1,.3.5Zm0-3.622-2.406-.812a2.565,2.565,0,0,1-.312.473l.433.44,1.753.441ZM60.48,36.249l-5.742-3.882h-.758a3.267,3.267,0,0,1-.138.575L60.4,36.278ZM55,31.519h2.79l-1.077-1.085L54.5,31.18Zm3.628.845H56.251l5.23,3.547.473-.161Zm.922-3.78-3.762-.96-.325.325,1.491,1.512Zm-5.624-4.063,2.787.95,1.077-1.085H53.939a.983.983,0,0,1-.013.135m68.445,2.4a3.2,3.2,0,0,1-.709.085c-.062,0-.112-.01-.171-.01l-.387,1.995,2.971,2.268ZM118.8,24.949a3.158,3.158,0,0,1-.138-.559H116.8a3.247,3.247,0,0,1-.354,1.058l.538.414Zm1.556,3.477.315-1.6a3.061,3.061,0,0,1-1.142-.7l-1.1.831Zm19.088,21.953a6.215,6.215,0,0,1-.506-2.462,6.286,6.286,0,0,1,1.047-3.477L125.976,33.768l7.69,19.543Zm-26.059,7.775,0-27.352-3.6,2.747a4.167,4.167,0,0,1-2.439,2.294L112.85,58.22c.177-.03.351-.049.532-.066m0-30.457V26.96A2.918,2.918,0,0,1,112,26.4l-2.866,2.912a3.582,3.582,0,0,1,.3.391Zm0,2.048v-1.1l-3.568,1.807a4.176,4.176,0,0,1,.289,1.492c0,.108-.03.21-.036.322Zm1.115,28.436,5.678-28.833-2.439-1.86-3.506,2.672,0,28c.089.01.174.016.266.026m.827.171a5.712,5.712,0,0,1,3.391,2.564L132.921,53.7,124.68,32.785l-3.762-2.869Zm.832-32.068-.213-.161a2.977,2.977,0,0,1-1.71.838v.3Zm.883.671-.138-.105-2.672,1.364v.881ZM140.5,43.773l.033-.033L123.468,26.4c-.1.069-.207.138-.309.2l2.22,5.653Zm4.735,10.449a6.223,6.223,0,0,1-2.393-.483L140.249,59l-.752-.371,2.583-5.265a6.354,6.354,0,0,1-2.246-2.232l-5.85,2.968,1.717,4.368-.778.312-1.7-4.289L119.1,61.664a6.212,6.212,0,0,1,.427,1.795h12.206V64.3H119.527a5.684,5.684,0,0,1-1.418,3.352l5.063,5.144-.6.592-5.062-5.134a5.542,5.542,0,0,1-1.523.93l2.321,7.089-.8.263-2.325-7.089a5.236,5.236,0,0,1-.962.151v6.133h-.847V69.6a5.728,5.728,0,0,1-4.859-3.487l-9.494,3.214-.269-.8,9.494-3.224a5.582,5.582,0,0,1-.164-1.009v-.845a5.626,5.626,0,0,1,.748-2.439l.473-.7a5.723,5.723,0,0,1,2.721-1.9l-5.51-22.379H106.5l-.853.641-.5-.667a4.285,4.285,0,0,1-1.786-.848l-.6-.592a4.153,4.153,0,0,1-.916-2.215H85.574l3.3,10.051-.808.263L84.687,32.359H80.058l-.089.266-.8-.26H77.55a2.975,2.975,0,0,1-.6,1.446l1.3,1.328-.6.592L76.342,34.4a3.067,3.067,0,0,1-1.412.585v7.3l.269.092-.269.8v.618h-.847v-.9l-3.667-1.236a3.768,3.768,0,0,1-.584.9l2.095,2.123-.6.595-2.088-2.117a4.147,4.147,0,0,1-2.163.881l-.476.746,4.15,1.4-.269.8-4.363-1.473L62.6,50.874a6.3,6.3,0,0,1,1.609,1.8l.384.746a6.3,6.3,0,0,1,.506,2.472,6.387,6.387,0,0,1-.105,1.134l18,4.579-.207.822-18-4.579c-.056.177-.125.345-.194.516L84.906,68.689l1.638-1.666-2.354-3.6.7-.467,2.262,3.445.64-.651.6.592-.765.785.1.145-.7.467-1.333,1.344,2.016,1.026-.374.753-2.259-1.144-.19.2-.6-.592L64.2,59.124a6.347,6.347,0,0,1-1.609,1.791l8.825,13.453-.7.467L61.886,61.382a6.138,6.138,0,0,1-3.092.821,6.24,6.24,0,0,1-2.39-.477L53.84,66.913l-.749-.371,2.551-5.2a6.314,6.314,0,0,1-2.909-3.78L22.528,63.7c0,.069.016.118.016.184a3.012,3.012,0,0,1-.633,1.837l2.866,2.919-.6.592L21.31,66.319a2.991,2.991,0,0,1-4.058-.4l-.286.2L22.3,68.827l-.381.753-5.762-2.925-.381.263-.473-.693.381-.753.41.21.676-.467a3.293,3.293,0,0,1-.279-.9H14.639v-.845H16.5a3.056,3.056,0,0,1,1.3-2.1l-1.326-2.692.758-.371.8-.263.942,2.853a3.645,3.645,0,0,1,.532-.053,3.028,3.028,0,0,1,2.856,2.031L52.562,56.74A5.067,5.067,0,0,1,52.5,55.9,6.183,6.183,0,0,1,52.71,54.3L14.395,41.3l.269-.8L52.973,53.49a6.307,6.307,0,0,1,2.666-3.037L51.9,42.848a3.048,3.048,0,0,1-4.045-2.912,3.043,3.043,0,0,1,1.067-2.31L41.73,26.687a3.046,3.046,0,0,1-1.681-2.574l-.515-.779.716-.463a2.538,2.538,0,0,1,.42-.746l-2.748-2.791.6-.592,2.748,2.784a3.019,3.019,0,0,1,4.291.7l.506-.263.381.753-.5.253c.059.187.1.371.138.565h1.855a2.45,2.45,0,0,1,.138-.565l-.512-.253.374-.753.5.253a3.031,3.031,0,0,1,4.744-.3L68.7,11.425,47.945,21.967l-.381-.753,21.66-11.006a5.672,5.672,0,0,1-.447-2.219c0-.053.007-.1.007-.151L0,.848.085,0l68.78,6.991a5.737,5.737,0,0,1,11.388,1,5.657,5.657,0,0,1-.282,1.762l31.211,12.695a3.024,3.024,0,0,1,5.624,1.1h1.855a3.034,3.034,0,1,1,5.414,2.262l17.059,17.338a6.29,6.29,0,0,1,10.4,4.783,6.33,6.33,0,0,1-.5,2.462l6.435,3.274-.374.753-6.454-3.274a6.1,6.1,0,0,1-1.6,1.791l3.4,5.187-.716.467-3.083-4.713,2.426,4.933.657-.22.282.8-.558.2.207.421-.758.371-.263-.523-.1.033-.276-.8-2.623-5.341a6.347,6.347,0,0,1-2.406.476" transform="translate(114.11 4.164)" fill="url(#radial-gradient)"/>
          <path id="Caminho_9155" data-name="Caminho 9155" d="M9.652,8.276A4,4,0,0,1,7.5,7.385L5.407,9.5l-.6-.592L6.884,6.793a4.45,4.45,0,0,1-.7-1.21L.213,7.1,0,6.277,5.981,4.756a4.978,4.978,0,0,1-.059-.6,4.186,4.186,0,0,1,.289-1.489L3.145,1.107,3.525.355,6.592,1.913c.053-.085.118-.161.177-.246L7.091.887l.3.118A4.127,4.127,0,0,1,14.2,3.773l6.438,2.613-.318.785L14.182,4.677c-.016.135-.036.27-.059.4l6.195,2.1-.272.805-6.195-2.1a4.143,4.143,0,0,1-3.355,2.4v3.444H9.652V8.276" transform="translate(115.68 7.994)" fill="url(#radial-gradient)"/>
          <path id="Caminho_9156" data-name="Caminho 9156" d="M11.788,6.031A3.086,3.086,0,0,1,10.4,5.554l-.187-.069L.6,15.249,0,14.658,9.313,5.18l-2.4-.812.269-.8,2.121.72a3.078,3.078,0,0,1-.246-.864H7.2V2.583H9.057A3.027,3.027,0,0,1,11.627,0h.844a3.018,3.018,0,0,1,2.577,2.583v.845a2.819,2.819,0,0,1-.125.559l1.175.6-.381.753-1.172-.6a3.066,3.066,0,0,1-1.093.956L14,5.883l-.272.8Z" transform="translate(113.708 65.03)" fill="url(#radial-gradient)"/>
          <path id="Caminho_9157" data-name="Caminho 9157" d="M12.491,6.459a6.716,6.716,0,0,1,.1,1.094,6.245,6.245,0,0,1-.505,2.458l-.381.756h-.01A6.284,6.284,0,0,1,0,7.549,6.357,6.357,0,0,1,.21,5.935L.482,5.13A6.3,6.3,0,0,1,3.145,2.1V2.093L3.9,1.719a6.617,6.617,0,0,1,1.98-.457h.847a6.827,6.827,0,0,1,.742.1L6.723.595,7.324,0l1.97,2A6.486,6.486,0,0,1,11.26,3.671L14.5,1.483l.473.7L11.736,4.375c.043.082.092.161.135.247L13.1,5.864Z" transform="translate(111.618 156.297)" fill="url(#radial-gradient)"/>
          <path id="Caminho_9158" data-name="Caminho 9158" d="M7.584,8.487l.446-.306.476.7A4.775,4.775,0,0,1,9,9.233l1.983-2.024.6.6L9.6,9.824a4.1,4.1,0,0,1,0,5.275l4.252,4.316-.6.592L9,15.691a4.6,4.6,0,0,1-.391.289L11.872,22.6l-.752.375L7.85,16.348a4.023,4.023,0,0,1-1.438.273,4.172,4.172,0,0,1-3.49-1.913l-.381-.753a4.4,4.4,0,0,1-.22-.871l-.473-.7.45-.306a4.1,4.1,0,0,1,.929-2.255l.6-.592a3.875,3.875,0,0,1,.381-.289L0,.371.752,0,4.971,8.569A4.084,4.084,0,0,1,6.415,8.3a4.412,4.412,0,0,1,1.169.187" transform="translate(103.642 135.419)" fill="url(#radial-gradient)"/>
          <path id="Caminho_9159" data-name="Caminho 9159" d="M35.56,56.332l4.608-14.05a4.271,4.271,0,0,1-1.481-1.144L27.668,48.6l3.94,8.007a6.038,6.038,0,0,1,2.39-.48,6.245,6.245,0,0,1,1.563.2m.84.279,7.021-14.283a3.994,3.994,0,0,1-2.452.213L36.365,56.595l.036.016m1.815-16.167a4.177,4.177,0,0,1-.509-1.965,4.3,4.3,0,0,1,.108-.92L22.056,32.217a4.131,4.131,0,0,1-1.572,1.794l6.8,13.827ZM45.858,37.4l1.664-3.385.752.375-2.321,4.726a4.1,4.1,0,0,1-.45,1.328l9.143,6.193-.473.693-.519.677-8.769-6.692c-.016.016-.026.043-.043.059L37.152,56.986a6.328,6.328,0,0,1,2.83,3.494l21.358-5.418.207.822L40.193,61.3a6.693,6.693,0,0,1,.082.713l27.192,0-1.136-3.477.8-.263,1.225,3.74h.282v.845l3.766,11.494-.8.256L67.74,62.861l-27.461,0a6.293,6.293,0,1,1-12.065-2.883l-4.514-2.3.381-.756,4.517,2.3a6.343,6.343,0,0,1,.7-.956l-4.813-4.9.6-.592,4.82,4.891a6.71,6.71,0,0,1,.949-.677L26.962,49.1l-.473-.7.1-.069L19.729,34.4a3.99,3.99,0,0,1-1.014.223V46.307l.6.608-.6.595v.667h-.847V46.652l-.6-.618.6-.592V34.619a4.06,4.06,0,0,1-2.167-.888l-.1.1-.6-.6-2.475,1.676L12.05,34.2l2.6-1.748a4.03,4.03,0,0,1-.516-1.956,4.2,4.2,0,0,1,.286-1.489l.381-.756a4.151,4.151,0,0,1,3.069-1.873V9.588a2.94,2.94,0,0,1-1.412-.575l-.6-.592a3.037,3.037,0,0,1-.653-1.87,2.939,2.939,0,0,1,.062-.575L0,.8.263,0,15.541,5.171A3.073,3.073,0,0,1,17.866,3.5h.847a2.871,2.871,0,0,1,.542.125l.007-.01.752.375a3.066,3.066,0,0,1,1.31,2.13H37.75v.848H21.323a3.066,3.066,0,0,1-2.61,2.613V26.38A4.156,4.156,0,0,1,22.44,30.5a4.11,4.11,0,0,1-.112.924l15.765,5.338a4.142,4.142,0,0,1,3.765-2.435,3.991,3.991,0,0,1,.89.1l3.9-11.914L46.3,21.422l.8-.263L48.5,16.913l.8.263-1.753,5.337,1.287,3.928-.8.263L47.1,23.87,43.553,34.69a3.91,3.91,0,0,1,.9.569l2.085-2.123.6.595-2.091,2.12a4.288,4.288,0,0,1,.814,1.551" transform="translate(99.622 109.395)" fill="url(#radial-gradient)"/>
          <path id="Caminho_9160" data-name="Caminho 9160" d="M8.969,12.916h8.6v.845h-8.6A4.15,4.15,0,0,1,7.052,16.85l-.752.371a4.173,4.173,0,0,1-1.444.269,4.36,4.36,0,0,1-.886-.092l-.594,1.811,5.68,5.778-.6.592L3.07,20.113l-.794-.26.138-.414-.062-.059L1.6,19.009l.128-.263-.21-.21.6-.592.542-1.091c-.135-.085-.263-.187-.387-.279l-.6-.6a4.181,4.181,0,0,1-.929-2.209H0v-.845H.742A4.141,4.141,0,0,1,2.659,9.829v-.01l.752-.371a4.416,4.416,0,0,1,1.444-.269,4.121,4.121,0,0,1,3.171,1.505L23.8,0l.473.7L8.5,11.387a4.115,4.115,0,0,1,.47,1.528" transform="translate(97.335 54.703)" fill="url(#radial-gradient)"/>
          <path id="Caminho_9161" data-name="Caminho 9161" d="M12.675,5.63a5.658,5.658,0,0,1,0,9.755l3.543,7.2-.752.371-3.553-7.2a5.347,5.347,0,0,1-1.687.4v7.319H9.38V16.157a5.664,5.664,0,0,1-5.214-5.219v-.845A5.184,5.184,0,0,1,4.327,9.1L0,7.631l.272-.8L4.6,8.3a5.65,5.65,0,0,1,3.043-3.02l-.926-2.81.8-.263.929,2.81a5.271,5.271,0,0,1,.929-.151h.847a5.348,5.348,0,0,1,1.687.4L14.51,0l.752.371Z" transform="translate(84.524 41.562)" fill="url(#radial-gradient)"/>
          <path id="Caminho_9162" data-name="Caminho 9162" d="M34.81,7.773a2.743,2.743,0,0,1-.552-.5l-.735.5-2.567,7.835ZM35.992.27l-.712,2.14a3.11,3.11,0,0,1,.831-.227h.844a3.027,3.027,0,0,1,.837.227L37.082.27l.8-.263L39,3.389a3.077,3.077,0,0,1,.617,1.837v.033l3.3,10.087-.8.263L39.2,6.735a2.973,2.973,0,0,1-.939,1.039l3.855,7.836-.758.371L37.5,8.138a2.616,2.616,0,0,1-.542.128v9.922h-.844V8.266a2.6,2.6,0,0,1-.535-.128L30.389,18.671a3.064,3.064,0,0,1,1.294,2.1v.845c-.007.043-.007.1-.016.145l-.269.8h-.01a3.044,3.044,0,0,1-2.7,1.683,2.892,2.892,0,0,1-.949-.171L23.7,32.284a4.948,4.948,0,0,1,.785.559l.6.592c.059.069.118.138.171.21h.007l.473.7a5.628,5.628,0,0,1-.653,6.531l-.6.6a6.115,6.115,0,0,1-1.5.914l5.145,15.684-.8.263L22.18,42.657a6.039,6.039,0,0,1-1.362.168,5.639,5.639,0,0,1-4.833-2.735h-.01l-.381-.753a5.964,5.964,0,0,1-.424-1.762H8.1a3.06,3.06,0,0,1-.5,1.311l-.811,2.455-.8-.263.381-1.167a2.689,2.689,0,0,1-.844.243v.864H4.675v-.864A3.035,3.035,0,0,1,2.1,37.574H.246v-.848H2.1c.007-.043.007-.092.016-.141L0,35.865l.269-.8,2.131.72a3.05,3.05,0,0,1,2.282-1.643h.847a2.787,2.787,0,0,1,.525.128L9.71,26.854l.752.371-3.64,7.411a3.065,3.065,0,0,1,.939,1.058L10.387,27.7l.794.26L8.309,36.727h6.868a5.7,5.7,0,0,1,1.385-3.3l.6-.592a5.169,5.169,0,0,1,.785-.559L14.4,25.069l.752-.371,3.549,7.2a5.6,5.6,0,0,1,4.228,0l4.034-8.2a3.053,3.053,0,0,1-1.287-2.09v-.845a3.027,3.027,0,0,1,3-2.623,3.24,3.24,0,0,1,.532.053l3.167-9.646-.473-.7.906-.618.643-1.972V5.222a3.083,3.083,0,0,1,.328-1.364L33.694,3.8l.473-.7L35.191,0Z" transform="translate(89.224 46.848)" fill="url(#radial-gradient)"/>
          <path id="Caminho_9163" data-name="Caminho 9163" d="M60.99,35.219l.269-.276-1.143-2.327a3.022,3.022,0,0,1-.542.128v1.9a2.941,2.941,0,0,1,1.415.572m.689.7.053-.026-.079-.151-.066.066c.026.043.066.076.092.112m.5,2.337.867.3-.939-1.893-.053.026a2.975,2.975,0,0,1,.177,1,2.81,2.81,0,0,1-.052.572M66,30.118H62.188a3.065,3.065,0,0,1-1.31,2.133L61.89,34.3ZM62.9,45.247a4.062,4.062,0,0,1,.932-2.215l-2.84-2.883a3.11,3.11,0,0,1-1.415.582V45.25H62.9Zm.933,3.053a4.042,4.042,0,0,1-.932-2.205H59.576v6.524Zm.256,4.923.3-.9-2.662.9Zm.341-10.783c.125-.1.243-.2.381-.289l-1.241-2.524L61.9,39.061a3.656,3.656,0,0,1-.315.49Zm.289,8.881.614-1.857a3.481,3.481,0,0,1-.9-.569l-3.726,3.789Zm3.942-9.968L64.7,40.008l.873,1.768a4.362,4.362,0,0,1,1.441-.273,4.22,4.22,0,0,1,1.438.273Zm-6.175-5.834,9.527-4.841a2.247,2.247,0,0,1-.138-.559H67.188l-4.9,4.986Zm9.953-11.93a.723.723,0,0,1-.092-.118L62.054,28.7a2.934,2.934,0,0,1,.138.575h4.645Zm.723,8.628a3.144,3.144,0,0,1-.781-.779l-9.51,4.841,1.307,2.656,4.872,1.653ZM75.3,26.7a3.029,3.029,0,0,1,1.822.966l1.812-1.229L76.7,24.18a2.95,2.95,0,0,1-1.4.575Zm2.781,7.116,3.641-3.7H77.867a3.079,3.079,0,0,1-1,1.86ZM69.6,42.44l.571-.575-.7-.24-.263.526a3.709,3.709,0,0,1,.387.289m3.959,5.887-2.774-.94a4.155,4.155,0,0,1-3.772,2.435,3.8,3.8,0,0,1-.886-.1l-.414,1.259Zm-2.735-7.132,6.152-6.251-1.156-2.363a3.282,3.282,0,0,1-.949.161,3.15,3.15,0,0,1-.945-.161l-4.074,8.276ZM73.041,24.18l-5.016,5.094h3.851A3.01,3.01,0,0,1,74.453,26.7V24.755a2.973,2.973,0,0,1-1.412-.575m-34.88,8.747a4.025,4.025,0,0,1-4.022.66L31.681,38.58l15.847,5.365a4.179,4.179,0,0,1,.584-.917ZM79.055,19.855l-2.807-8.539a5.6,5.6,0,0,1-.949.154v7.2a3.055,3.055,0,0,1,2.315,1.666Zm2.663,9.42-2.193-2.215-1.934,1.308a3.1,3.1,0,0,1,.276.907Zm-2.078-3.32L80.8,25.17l-1.481-4.513-1.431.483a2.735,2.735,0,0,1,.059.575,3.13,3.13,0,0,1-.633,1.87Zm1.435.053-.834.565,1.517,1.542ZM58.732,32.741a3.022,3.022,0,0,1-.542-.128l-1.805,3.681.023.016a3.058,3.058,0,0,1,2.324-1.666Zm-25.354.472A3.67,3.67,0,0,1,33,32.927l-2.84,2.882a3.089,3.089,0,0,1,.644,1.87,2.592,2.592,0,0,1-.059.575l.135.049ZM57.8,26.936,52.184,9.8a3.809,3.809,0,0,1-.89.105,4.116,4.116,0,0,1-1.9-.483L38.19,26.488a4.148,4.148,0,0,1,1.5,2.784H56.115A3.1,3.1,0,0,1,57.8,26.936M52.741,41.775l2.449-4.992L39.353,31.418a4.268,4.268,0,0,1-.581.914l9.938,10.1a4.1,4.1,0,0,1,2.584-.933,4.492,4.492,0,0,1,1.448.273m1.142.664,2.84-2.886a3.039,3.039,0,0,1-.653-1.867,3.314,3.314,0,0,1,.059-.575L56,37.069l-2.5,5.084a3.839,3.839,0,0,1,.381.286M72.115,20.364,54.466,8.409a4.363,4.363,0,0,1-1.481,1.134L58.6,26.667a3.78,3.78,0,0,1,.552-.049,3.06,3.06,0,0,1,2.525,1.328l10.285-5.228a3.449,3.449,0,0,1-.177-1,3.1,3.1,0,0,1,.328-1.354M58.732,46.091H55.41a4.1,4.1,0,0,1-.929,2.205l4.252,4.316V46.091m-3.322-.845h3.322V40.727a3.111,3.111,0,0,1-1.415-.582l-2.836,2.882a4.143,4.143,0,0,1,.929,2.219M69.147,6.165H55.408a4.123,4.123,0,0,1-.473,1.541L72.591,19.661a3.057,3.057,0,0,1,1.855-.986v-7.2a5.757,5.757,0,0,1-5.3-5.308M55.408,5.32H69.147a5.731,5.731,0,0,1,7.872-4.9l.749.371V.8a5.683,5.683,0,0,1,2.65,6.38l12.206,4.139-.263.8L80.154,7.987a5.759,5.759,0,0,1-3.1,3.07l2.8,8.529.273.8,1.4,4.3,11.486-7.772.479.7L81.8,25.518l1.11,3.392.6.592-.3.316L89.48,48.929l-.808.263L83.15,32.348H82.3V30.731l-3.749,3.819L82.3,40.268l-.7.463-3.336-5.078,3.021,6.126-.762.371-3.149-6.4-5.663,5.741,7.242,2.459-.276.8-7.626-2.587-.854.871a4.092,4.092,0,0,1,.916,2.215h7.5V46.1H71.119a2.539,2.539,0,0,1-.066.5l3.818,1.289L78.679,46.6l.276.8-2.767.94L86.811,51.94l-.266.8L74.868,48.784,65.381,52l-.407,1.236h21.5v.848H64.691l-.082.263-.8-.263H59.573V65.509H58.73v-9.2l-.8-.263.745-2.268L53.88,48.9a3.7,3.7,0,0,1-.9.569l3.549,10.82-.8.263L52.18,49.736a3.807,3.807,0,0,1-.89.1,4.135,4.135,0,0,1-4.1-3.731v-.848a3.581,3.581,0,0,1,.066-.5L31.307,39.352l-1.858,3.773L28.7,42.75l1.8-3.671-.033-.007a3.073,3.073,0,0,1-2.314,1.666v1.9h-.847v-1.9a3.084,3.084,0,0,1-2.62-2.62v-.848a3.187,3.187,0,0,1,.289-.933L7.318,24.383a4.111,4.111,0,0,1-2.744,1.456v6.136H3.727V25.839A4.123,4.123,0,0,1,.962,19.088l.6-.592a4.153,4.153,0,0,1,2.163-.891h.847a4.3,4.3,0,0,1,.466.059l.8.263v.007a4.173,4.173,0,0,1,1.8,1.542l7.006-3.552.381.753L8.023,20.239A3.973,3.973,0,0,1,7.8,23.683L25.453,35.641a3.129,3.129,0,0,1,.932-.7v-.01l.8-.263a3.042,3.042,0,0,1,2.383.569l2.83-2.882a4.092,4.092,0,0,1,0-5.272l-8.864-9.013.6-.6,8.877,9.019a4.067,4.067,0,0,1,2.577-.93,4.159,4.159,0,0,1,1.911.483L48.7,8.971a4.16,4.16,0,0,1-1.54-3.214,4.381,4.381,0,0,1,.108-.924L38.277,1.8,24.789,10.932l-.473-.7L37.27,1.447l.272-.8.607.2L39.256.11,39.728.8l-.588.378,6.717,2.275.381-.753,1.576.8a3.39,3.39,0,0,1,.3-.391l.6-.592a4.1,4.1,0,0,1,2.584-.93A4.155,4.155,0,0,1,55.408,5.32m.163,30.7,1.861-3.773a3.1,3.1,0,0,1-1.32-2.133H39.691c-.016.171-.033.339-.066.506Z" transform="translate(90.183 70.278)" fill="url(#radial-gradient)"/>
          <path id="Caminho_9164" data-name="Caminho 9164" d="M41.349,14.385H56.165v.848H41.349a5.855,5.855,0,0,1-.167,1.016l-.263.8a5.757,5.757,0,0,1-4.865,3.493V32.645h-.847V20.537a5.738,5.738,0,0,1-4.478-2.758l-5.587,2.833-.381-.753,5.577-2.833a2.862,2.862,0,0,1-.141-.4l-6.776,1.719-.2-.815,6.769-1.722a5.287,5.287,0,0,1-.1-1,5.737,5.737,0,0,1,.279-1.762L0,.779.312,0l30.18,12.261A5.728,5.728,0,0,1,35.206,9.09h.847a5.741,5.741,0,0,1,5.3,5.3" transform="translate(58.703 93.15)" fill="url(#radial-gradient)"/>
          <path id="Caminho_9165" data-name="Caminho 9165" d="M20.982,19.835l-.381.756-8.359-4.247a4.16,4.16,0,0,1-1.293,1.262l-.752.371a4.1,4.1,0,0,1-1.444.276,4.606,4.606,0,0,1-.886-.1l-.594,1.811,6.753,6.873-.6.592L6.97,20.873l-.794-.26.138-.417-.305-.312.6-.592.456-1.407a4.162,4.162,0,0,1-2.426-3.369H3.9v-.848h.742a4.075,4.075,0,0,1,.476-1.532l-3.8-2.57v1.525H.473v-2.1L0,8.669l.473-.7H1.32v.569l4.268,2.9A4.108,4.108,0,0,1,8.756,9.932a4.159,4.159,0,0,1,2.587.93L22.044,0l.6.592-10.7,10.872a4.083,4.083,0,0,1,.972,2.629,4.26,4.26,0,0,1-.286,1.492Z" transform="translate(93.438 117.813)" fill="url(#radial-gradient)"/>
          <path id="Caminho_9166" data-name="Caminho 9166" d="M8.266,19.706H15.61l.532-2.192L8.25,19.529c.007.059.007.118.016.177m-2.1,5.466L5.6,24.011a4.068,4.068,0,0,1-1.024.227v1.328ZM18.472,8.065a4.149,4.149,0,0,1-1.192-.677l-9.947,10.1a3.892,3.892,0,0,1,.7,1.219l8.342-2.123ZM24.881,15.3l-7.81,1.988-.591,2.419h7.134v.845H16.27l-.542,2.182-.811-.2.482-1.982H8.266a4.146,4.146,0,0,1-1.91,3.086L7,24.955l.177-.043.2.815L9.613,30.26l-.752.371L6.543,25.938l-1.97.506v5.4l2.035,1.032-.387.743-1.648-.828H3.727v-.431l-.378-.194.377-.753V26.664l-.2-.822.2-.053V24.241a4.17,4.17,0,0,1-2.163-.881l-.6-.6A4.133,4.133,0,0,1,6.736,16.9l9.947-10.1a4.1,4.1,0,0,1-.972-2.633,4.155,4.155,0,1,1,8.309-.006L23.935,5a2.886,2.886,0,0,1-.092.312L32.6,8.875l-.322.779L29.033,8.342l-.381.753-5.3-2.689a4.15,4.15,0,0,1-1.284,1.269L25.34,14.31l.167-.043.213.822.561,1.16-.758.371ZM21.305,8.049a4.1,4.1,0,0,1-1.438.273,4.724,4.724,0,0,1-.575-.059L17.3,16.348l7.2-1.827Z" transform="translate(90.176 0.006)" fill="url(#radial-gradient)"/>
          <path id="Caminho_9167" data-name="Caminho 9167" d="M47.81,37.8l11.681,3.955-.272.805L47.538,38.609a6.295,6.295,0,0,1-11.779-4.421L0,15.538l.387-.743L36.087,33.4A6.313,6.313,0,0,1,41.3,29.909V15.247a3.05,3.05,0,0,1-2.62-3,3.135,3.135,0,0,1,.177-.979l-.007-.01.381-.753a.636.636,0,0,0,.085-.1L29.663.592l.6-.592,9.662,9.8A3.007,3.007,0,0,1,41.3,9.243h.847a3.025,3.025,0,0,1,2.577,2.577v.848a2.97,2.97,0,0,1-.591,1.42l3.3,3.356-.6.592-3.306-3.349a3.048,3.048,0,0,1-1.385.565V29.912a7.082,7.082,0,0,1,1.133.184L47,18.764l.794.26L44.09,30.36a6.266,6.266,0,0,1,2.6,1.975l6.195-4.193.473.7-5.814,3.931,6.034-3.063.381.753-6.431,3.267A6.267,6.267,0,0,1,47.81,37.8" transform="translate(52.606 119.672)" fill="url(#radial-gradient)"/>
          <path id="Caminho_9168" data-name="Caminho 9168" d="M13.929,23.291a6.616,6.616,0,0,1-.552-1.219l-1.451.375v2.2ZM36.771,7.947l5.621,17.134c.033-.007.082-.007.118-.016V4.582H39.187a4.142,4.142,0,0,1-2.416,3.365m-13.3,7.4L31.9,6.787a3.843,3.843,0,0,1-.7-1.21L22.851,7.693l-1.579,6.422a6.215,6.215,0,0,1,2.2,1.233m18.924,15.79-.8-.263v-.01a3.078,3.078,0,0,1-1.73-2.758,2.944,2.944,0,0,1,.059-.575l-14.74-4.993a6.222,6.222,0,0,1-.381.753L40.567,33.971l-.473.7L24.323,24a6.291,6.291,0,0,1-7.36,1.955l-.752-.371v-.01A6.349,6.349,0,0,1,14.4,23.995l-2.475,1.676v4.772H11.08v-4.2l-.473-.694.473-.322V22.66l-3.263.828,1.061,3.231-.8.266L7,23.7.2,25.417,0,24.605,6.73,22.9l.8-.263.016.053,3.532-.9V16.823h.847v4.753l1.251-.322a6.12,6.12,0,0,1-.108-1.134,6.241,6.241,0,0,1,.505-2.472l.387-.743a6.318,6.318,0,0,1,2.249-2.235v-.007l.752-.371a6.375,6.375,0,0,1,2.4-.473,6.622,6.622,0,0,1,1.09.1l1.477-5.988L14.73,9.76l-.2-.815L22.159,7l.112-.44.811.2,7.9-2c-.007-.059-.007-.118-.016-.177V3.737A4.119,4.119,0,0,1,32.877.651l.758-.371A4.053,4.053,0,0,1,35.083,0a4.114,4.114,0,0,1,2.584.93l.6.592A4.125,4.125,0,0,1,39.19,3.74H62.4v.845H43.356V25.068a3.037,3.037,0,0,1,1.415.585l.6.595a3.018,3.018,0,0,1,.65,1.87,3.349,3.349,0,0,1-.059.575l-.269.8h-.016a3.075,3.075,0,0,1-1.392,1.387v.01l-.8.263a.774.774,0,0,1-.128.007v1.906h-.844V31.155c-.036-.01-.085-.01-.118-.016m-.8-5.788L35.966,8.217a4.384,4.384,0,0,1-.886.092,4.123,4.123,0,0,1-2.59-.924l-8.423,8.561a6.253,6.253,0,0,1,1.586,4.174,6.422,6.422,0,0,1-.21,1.617l14.747,4.993a3.075,3.075,0,0,1,1.4-1.38" transform="translate(82.823 15.98)" fill="url(#radial-gradient)"/>
          <path id="Caminho_9169" data-name="Caminho 9169" d="M9.261,3.81.377.8.65,0,10.916,3.478a3.064,3.064,0,0,1,.686.145l.016-.023.752.371.135.053.286-.3.6.592.286.1-.269.8a3.291,3.291,0,0,1,.246.861v.848a2.969,2.969,0,0,1-.594,1.42l2.866,2.912-.6.592L12.459,8.937a2.978,2.978,0,0,1-1.809.611A3.047,3.047,0,0,1,7.607,6.5a3.173,3.173,0,0,1,.177-.983L0,1.558.381.805,8.175,4.766A2.935,2.935,0,0,1,9.261,3.81" transform="translate(75.813 77.504)" fill="url(#radial-gradient)"/>
          <path id="Caminho_9170" data-name="Caminho 9170" d="M6.73,2.123,8.818,0l.6.6L7.34,2.718a4.138,4.138,0,0,1,.693,1.21l3.349-.844.2.822-3.339.844a5.282,5.282,0,0,1,.059.611A4.228,4.228,0,0,1,8.02,6.849L11.586,8.66l-.377.753L7.643,7.6A4.148,4.148,0,0,1,5.84,9.15l2.2,6.7-.8.263-2.2-6.7a3.759,3.759,0,0,1-.886.1,3.99,3.99,0,0,1-.89-.1L2.466,9.15a4.541,4.541,0,0,1-.9-.565l-.6-.592A4.14,4.14,0,0,1,4.149,1.2a4.028,4.028,0,0,1,2.58.924" transform="translate(82.32 22.769)" fill="url(#radial-gradient)"/>
          <path id="Caminho_9171" data-name="Caminho 9171" d="M7.34,3.434.21,5.242,0,4.42,7.918,2.409A5.635,5.635,0,0,1,15.072.6L15.85.4l.2.815a5.857,5.857,0,0,1,1.333,1.512h.007l.381.753a5.668,5.668,0,0,1,.433,2.186,5.582,5.582,0,0,1-.752,2.81l10.387,7.037-.473.7L16.983,9.183c-.059.076-.118.141-.177.21l-.6.592A5.63,5.63,0,0,1,7.712,8.6L5.617,9.659l-.381-.753L7.314,7.842A5.866,5.866,0,0,1,6.9,6.09V5.242a5.791,5.791,0,0,1,.44-1.808" transform="translate(66.072 110.275)" fill="url(#radial-gradient)"/>
          <path id="Caminho_9172" data-name="Caminho 9172" d="M14.94,11.03l-6.694,1.7a3.558,3.558,0,0,1,.059.6,4.331,4.331,0,0,1-.108.924l5.121,1.732ZM4.58,17.442V20.9H3.733V17.442c-.161-.016-.312-.023-.463-.049L2.121,20.9l-.8-.263,1.149-3.51A4.157,4.157,0,0,1,.387,15.059H.381l-.273-.8A4.108,4.108,0,0,1,0,13.333,4.168,4.168,0,0,1,4.156,9.169a4.116,4.116,0,0,1,2.587.93L16.68,0l.6.592-9.937,10.1a4.45,4.45,0,0,1,.7,1.21l7.209-1.827L18.187,1.16l.794.263-2.754,8.41.2.812-.515.135-1.792,5.482,2.459.838-.269.8-2.462-.828-.794-.273L7.925,15.059a4.094,4.094,0,0,1-.584.9l-.6.6a4.116,4.116,0,0,1-2.16.877" transform="translate(66.599 30.755)" fill="url(#radial-gradient)"/>
          <path id="Caminho_9173" data-name="Caminho 9173" d="M31.066,30.507l-1.53-1.558a3.089,3.089,0,0,1-1.385.569v3.941ZM7.928,32.773l16.818-5.692a3.241,3.241,0,0,1-.059-.569,3.074,3.074,0,0,1,.633-1.844L14.595,13.77a4.076,4.076,0,0,1-2.58.93,3.854,3.854,0,0,1-.886-.1L5.847,30.7a4.2,4.2,0,0,1,2.081,2.077M33,29.748l-.752.759.6.611-.6.592-.591-.6-3.506,3.559v4.805H27.3V35.525l-4.7,4.772-.6-.592,5.3-5.38V29.521a2.817,2.817,0,0,1-.522-.128l-5.2,10.56-.752-.371,5.19-10.55a3.078,3.078,0,0,1-1-1.15L8.2,33.572a4.176,4.176,0,0,1,.108.924,4.257,4.257,0,0,1-.108.924l1.664.565-.272.8-.381.749-1.573-.8a4.1,4.1,0,0,1-6.07.982l-.6-.595a3.918,3.918,0,0,1-.581-.914H.381l-.273-.8A4.166,4.166,0,0,1,0,34.489a4.662,4.662,0,0,1,.059-.6l.21-.822a4.013,4.013,0,0,1,.7-1.209l.6-.592a4.1,4.1,0,0,1,2.163-.891h.847a4.635,4.635,0,0,1,.466.059l5.281-16.1a4.193,4.193,0,0,1-.9-.569L5.183,18.082l-.6-.592,4.241-4.315A4.129,4.129,0,0,1,7.9,10.966v-.845a4.092,4.092,0,0,1,.922-2.215L6.741,5.79l.6-.6L9.43,7.312a4.08,4.08,0,0,1,2.587-.93,3.84,3.84,0,0,1,.88.1l.161-.467.794.273-.151.457a4.3,4.3,0,0,1,1.487,1.131l1.126-.759.269-.8.611.2,7.183-4.864L24.3,1.436l.8-.263L26.829,0,27.3.694,25.368,2l.076.237-.8.263L18.192,6.869l-.272.8-.607-.2L15.658,8.587a4.37,4.37,0,0,1,.466,1.541h5.965v.845H16.124a4.1,4.1,0,0,1-.922,2.209l10.729,10.9a2.908,2.908,0,0,1,1.376-.565h.847A3.032,3.032,0,0,1,30.731,26.1v.845a3,3,0,0,1-.591,1.413L31.66,29.9l.742-.753Z" transform="translate(66.601 41.526)" fill="url(#radial-gradient)"/>
          <path id="Caminho_9174" data-name="Caminho 9174" d="M7.682,12.9a4.061,4.061,0,0,1,0,5.272L9.77,20.3l-.6.592L7.084,18.777A4.15,4.15,0,0,1,4.5,19.7a4.416,4.416,0,0,1-.89-.092l-.381,1.167L8.467,22.1l-.21.822-5.3-1.345-.016.053-.8-.263L.4,20.926.6,20.1l1.8.457.407-1.226a4.062,4.062,0,0,1-.9-.559L.6,20.1,0,19.512l1.31-1.338a4.13,4.13,0,0,1-.929-2.209v-.845A4.193,4.193,0,0,1,1.309,12.9l.6-.592a4.094,4.094,0,0,1,2.587-.93,4.415,4.415,0,0,1,.886.1L9.152,0l.8.263L6.188,11.753a4.171,4.171,0,0,1,.9.559Z" transform="translate(58.404 52.495)" fill="url(#radial-gradient)"/>
          <path id="Caminho_9175" data-name="Caminho 9175" d="M14.959,2.616h6.694v.848H14.579a2.838,2.838,0,0,1-.138.559l-.371.753a3.008,3.008,0,0,1-4.3.7L.6,14.793,0,14.2,9.169,4.877a3.1,3.1,0,0,1-.45-.828L6.871,4.43,6.7,3.6l.67-.135V2.619H8.19l-1.553-.4.21-.822,1.917.493A3.025,3.025,0,0,1,10.245.319V.312L11.04.049A3.692,3.692,0,0,1,11.585,0,3.05,3.05,0,0,1,14.4,1.9l.355-.1Z" transform="translate(51.322 112.903)" fill="url(#radial-gradient)"/>
          <path id="Caminho_9176" data-name="Caminho 9176" d="M5.384,9.655a4.087,4.087,0,0,1,1.9-.483,4.419,4.419,0,0,1,.89.1l.8.263v.007a4.062,4.062,0,0,1,.9.559L19.815,0l.6.595-9.947,10.1a4.1,4.1,0,0,1,.972,2.639,4.009,4.009,0,0,1-.187,1.16l-.312.779h-.007a4.151,4.151,0,0,1-1.963,1.854L14.6,34.293l-.794.263L8.168,17.4c-.151.023-.305.033-.466.049v.22H6.858L6.031,17.5l.043-.21a4.341,4.341,0,0,1-1.379-.73l-1.3,1.311-.6-.588L4,16.068l-1.284.874.085.345-.827.161-.476-.7.256-.181L0,9.451l.821-.2L2.5,16.067l1.139-.776a4.022,4.022,0,0,1,.108-4.121l-1.435-1.1L2.82,9.4l.6-.592L4.58,9.981l.709-.463Z" transform="translate(47.755 78.653)" fill="url(#radial-gradient)"/>
          <path id="Caminho_9177" data-name="Caminho 9177" d="M29.923,2.538l.548-.279.381.753L51,13.243,50.619,14,29.92,3.487,12.183,12.5A6.22,6.22,0,0,1,12.7,14.98a6.318,6.318,0,0,1-.542,2.557l-.387.743h-.007A6.34,6.34,0,0,1,0,14.979a6.272,6.272,0,0,1,.22-1.624l.263-.805c.075-.177.151-.339.236-.506l.446-.716a6.119,6.119,0,0,1,1.362-1.4l.7-.467a6.268,6.268,0,0,1,3.119-.828,6.491,6.491,0,0,1,.811.059L8.433,2.221l.827.161L7.984,8.853a6.656,6.656,0,0,1,.785.263L12.5,1.534l.752.375L9.523,9.5a5.669,5.669,0,0,1,.962.684l.6.592a5.824,5.824,0,0,1,.709.97L28.984,3.014,24.555.753,24.926,0Z" transform="translate(40.837 116.923)" fill="url(#radial-gradient)"/>
          <path id="Caminho_9178" data-name="Caminho 9178" d="M.608,17.776l2.56-5.219a6.5,6.5,0,0,1-1.825-1.6L.87,10.263A6.348,6.348,0,1,1,12.212,4.627L25.879,0l.273.8L12.485,5.429a6.368,6.368,0,0,1,.194,1.209H27l.082-.263.8.263h5.781v.845H30.347v6.524l.6.592-.6.618V26.892H29.5V16.072l-4.248,4.315-.6-.592L29.5,14.872V7.484H27.609l-.085.263-.8-.263H12.675a6.291,6.291,0,0,1-1.589,3.789l8.392,8.519-.6.592-8.395-8.519a6.313,6.313,0,0,1-3.716,1.522V22.6h-.84V13.385a6.361,6.361,0,0,1-2-.457L1.36,18.138Z" transform="translate(40.832 45.008)" fill="url(#radial-gradient)"/>
          <path id="Caminho_9179" data-name="Caminho 9179" d="M13.076,6.094H11.283c-.016.187-.039.375-.069.549l1.861.477Zm-1.8-.845H25.1v.845H13.916V7.336l10.453,2.65.348-.345.6.592-.2.822-.489-.118-.345.345-.6-.592L13.92,8.211h-.844V8L11,7.468a5.589,5.589,0,0,1-1.917,2.688l3.989,6.074-.7.467L9.045,11.628,8.293,12l-.535-1.075A5.649,5.649,0,0,1,0,6.093V5.248A5.648,5.648,0,0,1,7.757.414l.752.371A5.685,5.685,0,0,1,11.28,5.249" transform="translate(33.683 62.366)" fill="url(#radial-gradient)"/>
          <path id="Caminho_9180" data-name="Caminho 9180" d="M34.759,19.92l-1.192-.2-.194.97,1.412-.365c-.007-.1-.033-.21-.033-.322a.473.473,0,0,1,.007-.079m.5,1.758a3.008,3.008,0,0,1-.279-.529L33.2,21.6l-.1.516Zm-.168-3.04a2.938,2.938,0,0,1,.522-.753l-1.605-.408-.144.736Zm-.923-2,2.347.6c.053-.026.1-.043.144-.066l-1.438-5.863ZM12.4,26.016l.279-.076-.4-.237c.039.1.085.2.118.312m19.884-4.179-8.824,2.241L32.2,22.3Zm-16.92,4.745,9.389,5.729-.45.723-10.167-6.2-1.487.3a7.209,7.209,0,0,1,.059.848,6.11,6.11,0,0,1-.22,1.633l11.576,3.928-.263.805L12.222,30.42A6.35,6.35,0,1,1,1.615,23.771l.6-.592a6.243,6.243,0,0,1,3.437-1.505l.44-.72,1.267.769a6.074,6.074,0,0,1,1.412.391l2.262-4.591.752.371-.151.322.726.431-2.426,4.1a6.029,6.029,0,0,1,.558.434l4.822-4.907.6.592-4.826,4.91c.128.141.236.286.355.44l2.367,1.443,7.574-1.926.709-.467.161.247,10.2-2.586.263-1.348L18.682,17.208l.141-.831L32.608,18.7l.272-.8.161.049.135-.677.161-.832,1.395-7.073L32.837,1.686,21.312,13.4l-.6-.592L32.6.723,32.463.174,33.3,0l.6.592-.361.371L35.129,7.4,36.54.22l.827.161L35.6,9.344l1.767,7.175V.381h.844V17a3.045,3.045,0,0,1,2,1.183l.7.178-.21.822a3.165,3.165,0,0,1,.082.4h.65v.848h-.65c-.007.043-.007.092-.016.135l.171.828-.515.1a3.049,3.049,0,0,1-2.639,1.558,2.969,2.969,0,0,1-.945-.171l-.007.01-.752-.375a1.69,1.69,0,0,1-.138-.108l-3.033.618-.069.339-.827-.161-8.788,1.784,3.585,5.456-.7.467-3.769-5.742Z" transform="translate(17.249 95.94)" fill="url(#radial-gradient)"/>
          <path id="Caminho_9181" data-name="Caminho 9181" d="M21.06,47.751l2.265-3.835-2.436,3.707c.059.043.118.085.171.128m7.983-17.235a4.063,4.063,0,0,1-.414-1.785,3.2,3.2,0,0,1,.059-.592L12.224,15.6a4.083,4.083,0,0,1-1.806,1.124l4.42,22.448Zm-.135-3.267a4.2,4.2,0,0,1,.226-.473l-7.613-5.16Zm1.261,4.687a4.093,4.093,0,0,1-.686-.7L15.015,40.057l1.241,6.33a6.543,6.543,0,0,1,.814-.059,6.313,6.313,0,0,1,3.119.828Zm-15.922,8.6L.44,48.943,0,48.224l14.07-8.577L9.591,16.886c-.128.007-.256.033-.381.033a4.147,4.147,0,0,1-1.116-.168l-.788-.312a4.142,4.142,0,1,1,5.068-6.33L27.3,0l.473.694L12.847,10.812a3.944,3.944,0,0,1,.463,1.532h5.968v.845H13.31a3.944,3.944,0,0,1-.463,1.532l16.76,11.353a4.151,4.151,0,0,1,.968-.854l-3.007-6.126.752-.371,3.017,6.126a3.8,3.8,0,0,1,.86-.22l-.548-.838.7-.467V15.3h.844v9.314a4.136,4.136,0,0,1,2.163.881l7.6-7.717.6.592-7.6,7.723a3.878,3.878,0,0,1,.581.907l7.682-2.6,1.91-5.821.8.263-1.707,5.219,7.074-2.4.273.8L44.9,25.072l-2.577,7.842-.8-.263,2.373-7.24L36.817,27.8a4.109,4.109,0,0,1,.112.924,4.039,4.039,0,0,1-.21,1.242L38.636,32.9l-.709.463L36.3,30.892a4.691,4.691,0,0,1-.345.473l.811.822-.6.592-.811-.818a1.116,1.116,0,0,1-.128.1l.939.72-.506.67-1.218-.924a2.557,2.557,0,0,1-.279.1l-.821.2a3.619,3.619,0,0,1-2.308-.339L21.68,48.34a5.3,5.3,0,0,1,.381.44l12.777-8.653.476.7L22.537,49.484a6.33,6.33,0,0,1,.87,3.2,6.259,6.259,0,0,1-.092,1.022l.246-.243.6.592,12.025,3.054-.161.832-8.536-2.17,8.24,2.794-.272.8-12.39-4.2-.322.329a6.3,6.3,0,0,1-1.073,1.541l-.141.832-.643-.112,4.058,6.176-.709.467-4.058-6.176a2.637,2.637,0,0,1-.236.118l-1.172,1.193-.6-.592a6.122,6.122,0,0,1-1.1.1,6.3,6.3,0,0,1-1.573-.2l-.279.473-.726-.431.177-.306-.026-.016-.752-.371a6.377,6.377,0,0,1-2.1-1.975l-.66-.108.141-.838a6.2,6.2,0,0,1-.532-2.156v-.848a6.359,6.359,0,0,1,4.688-5.712Z" transform="translate(14.401 55.271)" fill="url(#radial-gradient)"/>
          <path id="Caminho_9182" data-name="Caminho 9182" d="M15.577,37.98a7.935,7.935,0,0,1-.742,2l8.51,5.2-.44.72-8.519-5.2a7.649,7.649,0,0,1-.676.854l5.755,5.847-.6.592-5.755-5.847A7.892,7.892,0,1,1,10.38,28.758L21.7,0l.788.312L11.165,29.07a8,8,0,0,1,3.227,2.718l.44.72a8.021,8.021,0,0,1,.919,3.316h9.383v.848H15.755c-.007.161-.016.319-.033.473l9.947,1.683-.141.838Z" transform="translate(0.006 71.706)" fill="url(#radial-gradient)"/>
        </g>
      </g>
      <g transform="matrix(1, -0.05, 0.05, 1, -136.55, 7.16)" filter="url(#Caminho_9194)">
        <path id="Caminho_9194-2" data-name="Caminho 9194" d="M139.269,7.22C123.82,8,105.08-5.727,91.8,2.805s-21.107,24.611-28.46,28.78-40.382,14.6-45.7,29.093S-11.571,92.241,6.886,109.7s58.164,25.577,75.908,29.211,41.288,14.026,49.376,24.506,8.111,49.086,25.436,60.837,28.323,28.133,41.456,18.831-.822-44.515,7.452-57.2,33.662-17.674,37.5-33.2,5.166-45.281,8.787-54.2,15.64-20.886,3.344-34.241-23.013-34.931-49.638-44.4S154.718,6.441,139.269,7.22Z" transform="translate(157.29 9.52) rotate(3)" fill="#fff"/>
      </g>
    </g>
    <g id="Grupo_23952" data-name="Grupo 23952" transform="translate(-7686 -4630.551)">
      <g id="Grupo_8284" data-name="Grupo 8284" transform="translate(0 28.606)">
        <g id="Grupo_8278" data-name="Grupo 8278" transform="translate(-6.693)">
          <g data-type="innerShadowGroup">
            <rect id="Retângulo_4355-5" data-name="Retângulo 4355" width="65.76" height="76.998" rx="10" fill="#0b1617"/>
            <g transform="matrix(1, 0, 0, 1, 0, -207.05)" filter="url(#Retângulo_4355)">
              <rect id="Retângulo_4355-6" data-name="Retângulo 4355" width="65.76" height="76.998" rx="10" transform="translate(0 207.05)" fill="#fff"/>
            </g>
            <g id="Retângulo_4355-7" data-name="Retângulo 4355" fill="none" stroke="#ff0070" stroke-width="1.5">
              <rect width="65.76" height="76.998" rx="10" stroke="none"/>
              <rect x="0.75" y="0.75" width="64.26" height="75.498" rx="9.25" fill="none"/>
            </g>
          </g>
          <g data-type="innerShadowGroup">
            <rect id="Retângulo_4356-5" data-name="Retângulo 4356" width="65.76" height="76.998" rx="10" fill="#0b1617" opacity="0.5"/>
            <g transform="matrix(1, 0, 0, 1, 0, -207.05)" filter="url(#Retângulo_4356)">
              <rect id="Retângulo_4356-6" data-name="Retângulo 4356" width="65.76" height="76.998" rx="10" transform="translate(0 207.05)" fill="#fff" opacity="0.5"/>
            </g>
            <g id="Retângulo_4356-7" data-name="Retângulo 4356" fill="none" stroke="#ff0070" stroke-width="1.5" opacity="0.5">
              <rect width="65.76" height="76.998" rx="10" stroke="none"/>
              <rect x="0.75" y="0.75" width="64.26" height="75.498" rx="9.25" fill="none"/>
            </g>
          </g>
        </g>
        <text id="Ingestão_De_dados" data-name="Ingestão
De dados" transform="translate(26 35.369)" fill="#e3e3e3" font-size="9" font-family="CabinetGrotesk-Bold, Cabinet Grotesk" font-weight="700" letter-spacing="0.1em"><tspan x="-23.922" y="0">INGESTÃO</tspan><tspan x="-24.678" y="11">DE DADOS</tspan></text>
      </g>
      <text id="Dados_Abertos" data-name="Dados
Abertos" transform="translate(26 8)" fill="#e3e3e3" font-size="9" font-family="CabinetGrotesk-Bold, Cabinet Grotesk" font-weight="700" letter-spacing="0.1em"><tspan x="-16.744" y="0">DADOS</tspan><tspan x="-21.991" y="11">ABERTOS</tspan></text>
    </g>
    <g id="Grupo_23953" data-name="Grupo 23953" transform="translate(-7621.66 -4630.551)">
      <g id="Grupo_23951" data-name="Grupo 23951">
        <text id="Modelos_de_Hiperrelacionamento" data-name="Modelos de
Hiperrelacionamento" transform="translate(102.66 8)" fill="#e3e3e3" font-size="9" font-family="CabinetGrotesk-Bold, Cabinet Grotesk" font-weight="700" letter-spacing="0.1em"><tspan x="-31.513" y="0">MODELOS DE</tspan><tspan x="-59.26" y="11">HIPERRELACIONAMENTO</tspan></text>
        <g id="Grupo_8283" data-name="Grupo 8283" transform="translate(0 28.606)">
          <g id="Grupo_8278-2" data-name="Grupo 8278" transform="translate(0 0)">
            <g data-type="innerShadowGroup">
              <rect id="Retângulo_4355-8" data-name="Retângulo 4355" width="115.071" height="76.998" rx="10" fill="#0b1617"/>
              <g transform="matrix(1, 0, 0, 1, -71.03, -207.05)" filter="url(#Retângulo_4355-2)">
                <rect id="Retângulo_4355-9" data-name="Retângulo 4355" width="115.071" height="76.998" rx="10" transform="translate(71.03 207.05)" fill="#fff"/>
              </g>
              <g id="Retângulo_4355-10" data-name="Retângulo 4355" fill="none" stroke="#ff0070" stroke-width="1.5">
                <rect width="115.071" height="76.998" rx="10" stroke="none"/>
                <rect x="0.75" y="0.75" width="113.571" height="75.498" rx="9.25" fill="none"/>
              </g>
            </g>
            <g data-type="innerShadowGroup">
              <rect id="Retângulo_4356-8" data-name="Retângulo 4356" width="115.071" height="76.998" rx="10" fill="#0b1617" opacity="0.5"/>
              <g transform="matrix(1, 0, 0, 1, -71.03, -207.05)" filter="url(#Retângulo_4356-2)">
                <rect id="Retângulo_4356-9" data-name="Retângulo 4356" width="115.071" height="76.998" rx="10" transform="translate(71.03 207.05)" fill="#fff" opacity="0.5"/>
              </g>
              <g id="Retângulo_4356-10" data-name="Retângulo 4356" fill="none" stroke="#ff0070" stroke-width="1.5" opacity="0.5">
                <rect width="115.071" height="76.998" rx="10" stroke="none"/>
                <rect x="0.75" y="0.75" width="113.571" height="75.498" rx="9.25" fill="none"/>
              </g>
            </g>
          </g>
          <text id="Transformação_e_Enriquecimento" data-name="Transformação e
Enriquecimento" transform="translate(57.274 35.424)" fill="#e3e3e3" font-size="9" font-family="CabinetGrotesk-Bold, Cabinet Grotesk" font-weight="700" letter-spacing="0.1em"><tspan x="-47.893" y="0">TRANSFORMAÇÃO E</tspan><tspan x="-43.321" y="11">ENRIQUECIMENTO</tspan></text>
        </g>
        <g id="Grupo_23740" data-name="Grupo 23740" transform="translate(120.079 28.606)">
          <g id="Grupo_8278-3" data-name="Grupo 8278" transform="translate(0 0)">
            <g data-type="innerShadowGroup">
              <rect id="Retângulo_4355-11" data-name="Retângulo 4355" width="84.381" height="35.862" rx="10" fill="#0b1617"/>
              <g transform="matrix(1, 0, 0, 1, -191.11, -207.05)" filter="url(#Retângulo_4355-3)">
                <rect id="Retângulo_4355-12" data-name="Retângulo 4355" width="84.381" height="35.862" rx="10" transform="translate(191.11 207.05)" fill="#fff"/>
              </g>
              <g id="Retângulo_4355-13" data-name="Retângulo 4355" fill="none" stroke="#ff0070" stroke-width="1.5">
                <rect width="84.381" height="35.862" rx="10" stroke="none"/>
                <rect x="0.75" y="0.75" width="82.881" height="34.362" rx="9.25" fill="none"/>
              </g>
            </g>
            <g data-type="innerShadowGroup">
              <rect id="Retângulo_4356-11" data-name="Retângulo 4356" width="84.381" height="35.862" rx="10" fill="#0b1617" opacity="0.5"/>
              <g transform="matrix(1, 0, 0, 1, -191.11, -207.05)" filter="url(#Retângulo_4356-3)">
                <rect id="Retângulo_4356-12" data-name="Retângulo 4356" width="84.381" height="35.862" rx="10" transform="translate(191.11 207.05)" fill="#fff" opacity="0.5"/>
              </g>
              <g id="Retângulo_4356-13" data-name="Retângulo 4356" fill="none" stroke="#ff0070" stroke-width="1.5" opacity="0.5">
                <rect width="84.381" height="35.862" rx="10" stroke="none"/>
                <rect x="0.75" y="0.75" width="82.881" height="34.362" rx="9.25" fill="none"/>
              </g>
            </g>
          </g>
          <text id="Analytics_Self_service" data-name="Analytics
Self service" transform="translate(42.329 15.383)" fill="#e3e3e3" font-size="9" font-family="CabinetGrotesk-Bold, Cabinet Grotesk" font-weight="700" letter-spacing="0.1em"><tspan x="-25.987" y="0">ANALYTICS</tspan><tspan x="-33.556" y="11">SELF SERVICE</tspan></text>
        </g>
        <g id="Grupo_8285" data-name="Grupo 8285" transform="translate(120.079 69.741)">
          <g id="Grupo_8278-4" data-name="Grupo 8278" transform="translate(0 0)">
            <g data-type="innerShadowGroup">
              <rect id="Retângulo_4355-14" data-name="Retângulo 4355" width="84.381" height="35.862" rx="10" fill="#0b1617"/>
              <g transform="matrix(1, 0, 0, 1, -191.11, -248.19)" filter="url(#Retângulo_4355-4)">
                <rect id="Retângulo_4355-15" data-name="Retângulo 4355" width="84.381" height="35.862" rx="10" transform="translate(191.11 248.19)" fill="#fff"/>
              </g>
              <g id="Retângulo_4355-16" data-name="Retângulo 4355" fill="none" stroke="#ff0070" stroke-width="1.5">
                <rect width="84.381" height="35.862" rx="10" stroke="none"/>
                <rect x="0.75" y="0.75" width="82.881" height="34.362" rx="9.25" fill="none"/>
              </g>
            </g>
            <g data-type="innerShadowGroup">
              <rect id="Retângulo_4356-14" data-name="Retângulo 4356" width="84.381" height="35.862" rx="10" fill="#0b1617" opacity="0.5"/>
              <g transform="matrix(1, 0, 0, 1, -191.11, -248.19)" filter="url(#Retângulo_4356-4)">
                <rect id="Retângulo_4356-15" data-name="Retângulo 4356" width="84.381" height="35.862" rx="10" transform="translate(191.11 248.19)" fill="#fff" opacity="0.5"/>
              </g>
              <g id="Retângulo_4356-16" data-name="Retângulo 4356" fill="none" stroke="#ff0070" stroke-width="1.5" opacity="0.5">
                <rect width="84.381" height="35.862" rx="10" stroke="none"/>
                <rect x="0.75" y="0.75" width="82.881" height="34.362" rx="9.25" fill="none"/>
              </g>
            </g>
          </g>
          <text id="Serviços_De_dados" data-name="Serviços
De dados" transform="translate(41.821 15.383)" fill="#e3e3e3" font-size="9" font-family="CabinetGrotesk-Bold, Cabinet Grotesk" font-weight="700" letter-spacing="0.1em"><tspan x="-24.156" y="0">SERVIÇOS</tspan><tspan x="-24.678" y="11">DE DADOS</tspan></text>
        </g>
      </g>
      <text id="Modelos_de_a.i" data-name="Modelos de a.i" transform="translate(102.66 118.2)" fill="#e3e3e3" font-size="9" font-family="CabinetGrotesk-Bold, Cabinet Grotesk" font-weight="700" letter-spacing="0.1em"><tspan x="-39.393" y="0">MODELOS DE A.I</tspan></text>
    </g>
    <text id="Ativos_De_dados" data-name="Ativos
De dados" transform="translate(-7660 -4512.352)" fill="#e3e3e3" font-size="9" font-family="CabinetGrotesk-Bold, Cabinet Grotesk" font-weight="700" letter-spacing="0.1em"><tspan x="-16.915" y="0">ATIVOS</tspan><tspan x="-24.678" y="11">DE DADOS</tspan></text>
  </g>
</svg>
