<svg xmlns="http://www.w3.org/2000/svg" xmlns:xlink="http://www.w3.org/1999/xlink" width="349" height="308" viewBox="0 0 349 308">
  <defs>
    <filter id="Caminho_9028">
      <feOffset input="SourceAlpha"/>
      <feGaussianBlur stdDeviation="15" result="blur"/>
      <feFlood flood-color="#ff0070" result="color"/>
      <feComposite operator="out" in="SourceGraphic" in2="blur"/>
      <feComposite operator="in" in="color"/>
      <feComposite operator="in" in2="SourceGraphic"/>
    </filter>
    <filter id="Interseção_9">
      <feOffset input="SourceAlpha"/>
      <feGaussianBlur stdDeviation="15" result="blur-2"/>
      <feFlood flood-color="#ff0070" result="color-2"/>
      <feComposite operator="out" in="SourceGraphic" in2="blur-2"/>
      <feComposite operator="in" in="color-2"/>
      <feComposite operator="in" in2="SourceGraphic"/>
    </filter>
    <radialGradient id="radial-gradient" cx="0.5" cy="0.5" r="0.5" gradientUnits="objectBoundingBox">
      <stop offset="0" stop-color="#0b1617"/>
      <stop offset="0.477" stop-color="#0b1617" stop-opacity="0.741"/>
      <stop offset="1" stop-color="#af39e6" stop-opacity="0.612"/>
    </radialGradient>
    <filter id="Retângulo_4357">
      <feOffset input="SourceAlpha"/>
      <feGaussianBlur stdDeviation="15" result="blur-3"/>
      <feFlood flood-color="#af39e6" result="color-3"/>
      <feComposite operator="out" in="SourceGraphic" in2="blur-3"/>
      <feComposite operator="in" in="color-3"/>
      <feComposite operator="in" in2="SourceGraphic"/>
    </filter>
    <filter id="Retângulo_4357-2">
      <feOffset input="SourceAlpha"/>
      <feGaussianBlur stdDeviation="15" result="blur-4"/>
      <feFlood flood-color="#af39e6" result="color-4"/>
      <feComposite operator="out" in="SourceGraphic" in2="blur-4"/>
      <feComposite operator="in" in="color-4"/>
      <feComposite operator="in" in2="SourceGraphic"/>
    </filter>
    <filter id="Interseção_8">
      <feOffset input="SourceAlpha"/>
      <feGaussianBlur stdDeviation="15" result="blur-5"/>
      <feFlood flood-color="#ff0070" result="color-5"/>
      <feComposite operator="out" in="SourceGraphic" in2="blur-5"/>
      <feComposite operator="in" in="color-5"/>
      <feComposite operator="in" in2="SourceGraphic"/>
    </filter>
    <filter id="Retângulo_4357-3">
      <feOffset input="SourceAlpha"/>
      <feGaussianBlur stdDeviation="15" result="blur-6"/>
      <feFlood flood-color="#af39e6" result="color-6"/>
      <feComposite operator="out" in="SourceGraphic" in2="blur-6"/>
      <feComposite operator="in" in="color-6"/>
      <feComposite operator="in" in2="SourceGraphic"/>
    </filter>
    <filter id="Retângulo_4357-4">
      <feOffset input="SourceAlpha"/>
      <feGaussianBlur stdDeviation="15" result="blur-7"/>
      <feFlood flood-color="#af39e6" result="color-7"/>
      <feComposite operator="out" in="SourceGraphic" in2="blur-7"/>
      <feComposite operator="in" in="color-7"/>
      <feComposite operator="in" in2="SourceGraphic"/>
    </filter>
    <filter id="Retângulo_4357-5">
      <feOffset input="SourceAlpha"/>
      <feGaussianBlur stdDeviation="15" result="blur-8"/>
      <feFlood flood-color="#af39e6" result="color-8"/>
      <feComposite operator="out" in="SourceGraphic" in2="blur-8"/>
      <feComposite operator="in" in="color-8"/>
      <feComposite operator="in" in2="SourceGraphic"/>
    </filter>
    <filter id="Retângulo_4357-6">
      <feOffset input="SourceAlpha"/>
      <feGaussianBlur stdDeviation="15" result="blur-9"/>
      <feFlood flood-color="#af39e6" result="color-9"/>
      <feComposite operator="out" in="SourceGraphic" in2="blur-9"/>
      <feComposite operator="in" in="color-9"/>
      <feComposite operator="in" in2="SourceGraphic"/>
    </filter>
    <clipPath id="clip-path">
      <path id="Caminho_9100" data-name="Caminho 9100" d="M0-33.8H57.917V-93.49H0Z" transform="translate(0 93.49)" fill="#ff0070"/>
    </clipPath>
  </defs>
  <g id="Grupo_24092" data-name="Grupo 24092" transform="translate(-14 -290)">
    <g data-type="innerShadowGroup">
      <g id="Caminho_9028-2" data-name="Caminho 9028" transform="translate(107.98 359.026)" fill="#0b1617">
        <path d="M 84.02052307128906 167.2911224365234 C 78.3702392578125 167.2911224365234 72.72371673583984 166.721923828125 67.23780822753906 165.5993499755859 C 61.89171981811523 164.5053863525391 56.63313293457031 162.8730163574219 51.60810852050781 160.7476043701172 C 46.67415237426758 158.6607360839844 41.915283203125 156.0776977539062 37.46369552612305 153.0702514648438 C 33.05421829223633 150.0912628173828 28.90771865844727 146.6700897216797 25.13936996459961 142.9017333984375 C 21.37102317810059 139.1333923339844 17.94982719421387 134.9868621826172 14.97084903717041 130.577392578125 C 11.96341419219971 126.1258010864258 9.380393028259277 121.3669281005859 7.293501377105713 116.432975769043 C 5.168109893798828 111.4079513549805 3.535740375518799 106.1493682861328 2.441783905029297 100.8032760620117 C 1.319196939468384 95.31736755371094 0.7500013113021851 89.67084503173828 0.7500013113021851 84.02056121826172 C 0.7500013113021851 78.37027740478516 1.319196939468384 72.7237548828125 2.441783905029297 67.23784637451172 C 3.535740375518799 61.8917350769043 5.168109893798828 56.63314819335938 7.293501377105713 51.60812759399414 C 9.380393028259277 46.67417144775391 11.96341419219971 41.91529846191406 14.97084903717041 37.46371459960938 C 17.94982719421387 33.05423355102539 21.37102317810059 28.90773582458496 25.13936996459961 25.1393871307373 C 28.90771865844727 21.37101745605469 33.05421829223633 17.94984436035156 37.46369552612305 14.97086524963379 C 41.915283203125 11.96343040466309 46.67415237426758 9.380387306213379 51.60810852050781 7.293496131896973 C 56.63311004638672 5.168104648590088 61.89171981811523 3.535735130310059 67.23780822753906 2.441778659820557 C 72.72371673583984 1.319191694259644 78.3702392578125 0.7499960064888 84.02052307128906 0.7499960064888 C 89.67080688476562 0.7499960064888 95.31732940673828 1.319191694259644 100.8032150268555 2.441778659820557 C 106.1493301391602 3.535735130310059 111.4079132080078 5.168104648590088 116.4329376220703 7.293496131896973 C 121.3668899536133 9.380387306213379 126.1257629394531 11.96343040466309 130.5773315429688 14.97086524963379 C 134.9868011474609 17.94984436035156 139.1333312988281 21.37101745605469 142.9016723632812 25.1393871307373 C 146.6700286865234 28.90773582458496 150.0912017822266 33.05423355102539 153.0701904296875 37.46371459960938 C 156.0776062011719 41.91529846191406 158.6606597900391 46.67417144775391 160.7475433349609 51.60812759399414 C 162.8729400634766 56.63314819335938 164.5053100585938 61.8917350769043 165.5992584228516 67.23784637451172 C 166.7218475341797 72.7237548828125 167.2910461425781 78.37027740478516 167.2910461425781 84.02056121826172 C 167.2910461425781 89.67084503173828 166.7218475341797 95.31736755371094 165.5992584228516 100.8032760620117 C 164.5053100585938 106.1493682861328 162.8729400634766 111.4079513549805 160.7475433349609 116.432975769043 C 158.6606597900391 121.3669281005859 156.0776062011719 126.1258010864258 153.0701904296875 130.577392578125 C 150.0912017822266 134.9868621826172 146.6700286865234 139.1333923339844 142.9016723632812 142.9017333984375 C 139.1333312988281 146.6700897216797 134.9868011474609 150.0912628173828 130.5773315429688 153.0702514648438 C 126.1257629394531 156.0776977539062 121.3668899536133 158.6607360839844 116.4329376220703 160.7476043701172 C 111.4079132080078 162.8730163574219 106.1493301391602 164.5053863525391 100.8032150268555 165.5993499755859 C 95.31732940673828 166.721923828125 89.67080688476562 167.2911224365234 84.02052307128906 167.2911224365234 Z" stroke="none"/>
        <path d="M 84.02052307128906 1.5 C 78.42063140869141 1.5 72.82469940185547 2.064056396484375 67.38817596435547 3.176544189453125 C 62.09056854248047 4.260589599609375 56.87969970703125 5.878128051757812 51.90026092529297 7.9842529296875 C 47.01091766357422 10.05227661132812 42.29499816894531 12.61199951171875 37.88356018066406 15.59231567382812 C 33.51362609863281 18.54458618164062 29.40431213378906 21.93510437011719 25.66969299316406 25.66970825195312 C 21.93510437011719 29.404296875 18.54458618164062 33.51364135742188 15.59233093261719 37.88356018066406 C 12.61199951171875 42.29502105712891 10.05227661132812 47.01093292236328 7.984268188476562 51.90029907226562 C 5.878128051757812 56.87971496582031 4.260589599609375 62.09060668945312 3.176544189453125 67.38819122314453 C 2.064071655273438 72.82473754882812 1.5 78.42066955566406 1.5 84.02056121826172 C 1.5 89.62045288085938 2.064071655273438 95.21638488769531 3.176544189453125 100.6529083251953 C 4.260589599609375 105.9505157470703 5.878128051757812 111.1613922119141 7.984268188476562 116.1408233642578 C 10.05227661132812 121.0301666259766 12.61199951171875 125.7460784912109 15.59233093261719 130.1575317382812 C 18.54458618164062 134.5274505615234 21.93510437011719 138.6367950439453 25.66969299316406 142.3714141845703 C 29.40431213378906 146.1059875488281 33.51362609863281 149.4965209960938 37.88356018066406 152.4487762451172 C 42.29499816894531 155.4291076660156 47.01091766357422 157.9888458251953 51.90026092529297 160.0568695068359 C 56.87969970703125 162.1629791259766 62.09056854248047 163.7805328369141 67.38817596435547 164.8645782470703 C 72.82469940185547 165.9770660400391 78.42063140869141 166.5411224365234 84.02052307128906 166.5411224365234 C 89.62041473388672 166.5411224365234 95.21634674072266 165.9770660400391 100.6528701782227 164.8645782470703 C 105.9504547119141 163.7805328369141 111.1613464355469 162.1629791259766 116.1407623291016 160.0568695068359 C 121.0301361083984 157.9888458251953 125.7460174560547 155.4291076660156 130.157470703125 152.4487762451172 C 134.5274200439453 149.4965209960938 138.6367340087891 146.1059875488281 142.3713226318359 142.3714141845703 C 146.1059417724609 138.6367950439453 149.4964599609375 134.5274505615234 152.4487152099609 130.1575317382812 C 155.4290466308594 125.7460784912109 157.98876953125 121.0301666259766 160.0567779541016 116.1408233642578 C 162.1629180908203 111.1613922119141 163.7804565429688 105.9505157470703 164.864501953125 100.6529083251953 C 165.9769744873047 95.21638488769531 166.5410461425781 89.62045288085938 166.5410461425781 84.02056121826172 C 166.5410461425781 78.42066955566406 165.9769744873047 72.82473754882812 164.864501953125 67.38819122314453 C 163.7804565429688 62.09060668945312 162.1629180908203 56.87971496582031 160.0567779541016 51.90029907226562 C 157.98876953125 47.01093292236328 155.4290466308594 42.29502105712891 152.4487152099609 37.88356018066406 C 149.4964599609375 33.51364135742188 146.1059417724609 29.404296875 142.3713226318359 25.66970825195312 C 138.6367340087891 21.93510437011719 134.5274200439453 18.54458618164062 130.157470703125 15.59231567382812 C 125.7460174560547 12.61199951171875 121.0301361083984 10.05227661132812 116.1407623291016 7.9842529296875 C 111.1613464355469 5.878128051757812 105.9504547119141 4.260589599609375 100.6528701782227 3.176544189453125 C 95.21634674072266 2.064056396484375 89.62041473388672 1.5 84.02052307128906 1.5 M 84.02052307128906 0 C 130.4237670898438 0 168.0410461425781 37.61727905273438 168.0410461425781 84.02056121826172 C 168.0410461425781 130.4237976074219 130.4237670898438 168.0411224365234 84.02052307128906 168.0411224365234 C 37.61726379394531 168.0411224365234 0 130.4237976074219 0 84.02056121826172 C 0 37.61727905273438 37.61726379394531 0 84.02052307128906 0 Z" stroke="none"/>
      </g>
      <g transform="matrix(1, 0, 0, 1, 14, 290)" filter="url(#Caminho_9028)">
        <g id="Caminho_9028-3" data-name="Caminho 9028" transform="translate(93.98 69.03)" fill="#fff">
          <path d="M 84.02052307128906 167.2911224365234 C 78.3702392578125 167.2911224365234 72.72371673583984 166.721923828125 67.23780822753906 165.5993499755859 C 61.89171981811523 164.5053863525391 56.63313293457031 162.8730163574219 51.60810852050781 160.7476043701172 C 46.67415237426758 158.6607360839844 41.915283203125 156.0776977539062 37.46369552612305 153.0702514648438 C 33.05421829223633 150.0912628173828 28.90771865844727 146.6700897216797 25.13936996459961 142.9017333984375 C 21.37102317810059 139.1333923339844 17.94982719421387 134.9868621826172 14.97084903717041 130.577392578125 C 11.96341419219971 126.1258010864258 9.380393028259277 121.3669281005859 7.293501377105713 116.432975769043 C 5.168109893798828 111.4079513549805 3.535740375518799 106.1493682861328 2.441783905029297 100.8032760620117 C 1.319196939468384 95.31736755371094 0.7500013113021851 89.67084503173828 0.7500013113021851 84.02056121826172 C 0.7500013113021851 78.37027740478516 1.319196939468384 72.7237548828125 2.441783905029297 67.23784637451172 C 3.535740375518799 61.8917350769043 5.168109893798828 56.63314819335938 7.293501377105713 51.60812759399414 C 9.380393028259277 46.67417144775391 11.96341419219971 41.91529846191406 14.97084903717041 37.46371459960938 C 17.94982719421387 33.05423355102539 21.37102317810059 28.90773582458496 25.13936996459961 25.1393871307373 C 28.90771865844727 21.37101745605469 33.05421829223633 17.94984436035156 37.46369552612305 14.97086524963379 C 41.915283203125 11.96343040466309 46.67415237426758 9.380387306213379 51.60810852050781 7.293496131896973 C 56.63311004638672 5.168104648590088 61.89171981811523 3.535735130310059 67.23780822753906 2.441778659820557 C 72.72371673583984 1.319191694259644 78.3702392578125 0.7499960064888 84.02052307128906 0.7499960064888 C 89.67080688476562 0.7499960064888 95.31732940673828 1.319191694259644 100.8032150268555 2.441778659820557 C 106.1493301391602 3.535735130310059 111.4079132080078 5.168104648590088 116.4329376220703 7.293496131896973 C 121.3668899536133 9.380387306213379 126.1257629394531 11.96343040466309 130.5773315429688 14.97086524963379 C 134.9868011474609 17.94984436035156 139.1333312988281 21.37101745605469 142.9016723632812 25.1393871307373 C 146.6700286865234 28.90773582458496 150.0912017822266 33.05423355102539 153.0701904296875 37.46371459960938 C 156.0776062011719 41.91529846191406 158.6606597900391 46.67417144775391 160.7475433349609 51.60812759399414 C 162.8729400634766 56.63314819335938 164.5053100585938 61.8917350769043 165.5992584228516 67.23784637451172 C 166.7218475341797 72.7237548828125 167.2910461425781 78.37027740478516 167.2910461425781 84.02056121826172 C 167.2910461425781 89.67084503173828 166.7218475341797 95.31736755371094 165.5992584228516 100.8032760620117 C 164.5053100585938 106.1493682861328 162.8729400634766 111.4079513549805 160.7475433349609 116.432975769043 C 158.6606597900391 121.3669281005859 156.0776062011719 126.1258010864258 153.0701904296875 130.577392578125 C 150.0912017822266 134.9868621826172 146.6700286865234 139.1333923339844 142.9016723632812 142.9017333984375 C 139.1333312988281 146.6700897216797 134.9868011474609 150.0912628173828 130.5773315429688 153.0702514648438 C 126.1257629394531 156.0776977539062 121.3668899536133 158.6607360839844 116.4329376220703 160.7476043701172 C 111.4079132080078 162.8730163574219 106.1493301391602 164.5053863525391 100.8032150268555 165.5993499755859 C 95.31732940673828 166.721923828125 89.67080688476562 167.2911224365234 84.02052307128906 167.2911224365234 Z" stroke="none"/>
          <path d="M 84.02052307128906 1.5 C 78.42063140869141 1.5 72.82469940185547 2.064056396484375 67.38817596435547 3.176544189453125 C 62.09056854248047 4.260589599609375 56.87969970703125 5.878128051757812 51.90026092529297 7.9842529296875 C 47.01091766357422 10.05227661132812 42.29499816894531 12.61199951171875 37.88356018066406 15.59231567382812 C 33.51362609863281 18.54458618164062 29.40431213378906 21.93510437011719 25.66969299316406 25.66970825195312 C 21.93510437011719 29.404296875 18.54458618164062 33.51364135742188 15.59233093261719 37.88356018066406 C 12.61199951171875 42.29502105712891 10.05227661132812 47.01093292236328 7.984268188476562 51.90029907226562 C 5.878128051757812 56.87971496582031 4.260589599609375 62.09060668945312 3.176544189453125 67.38819122314453 C 2.064071655273438 72.82473754882812 1.5 78.42066955566406 1.5 84.02056121826172 C 1.5 89.62045288085938 2.064071655273438 95.21638488769531 3.176544189453125 100.6529083251953 C 4.260589599609375 105.9505157470703 5.878128051757812 111.1613922119141 7.984268188476562 116.1408233642578 C 10.05227661132812 121.0301666259766 12.61199951171875 125.7460784912109 15.59233093261719 130.1575317382812 C 18.54458618164062 134.5274505615234 21.93510437011719 138.6367950439453 25.66969299316406 142.3714141845703 C 29.40431213378906 146.1059875488281 33.51362609863281 149.4965209960938 37.88356018066406 152.4487762451172 C 42.29499816894531 155.4291076660156 47.01091766357422 157.9888458251953 51.90026092529297 160.0568695068359 C 56.87969970703125 162.1629791259766 62.09056854248047 163.7805328369141 67.38817596435547 164.8645782470703 C 72.82469940185547 165.9770660400391 78.42063140869141 166.5411224365234 84.02052307128906 166.5411224365234 C 89.62041473388672 166.5411224365234 95.21634674072266 165.9770660400391 100.6528701782227 164.8645782470703 C 105.9504547119141 163.7805328369141 111.1613464355469 162.1629791259766 116.1407623291016 160.0568695068359 C 121.0301361083984 157.9888458251953 125.7460174560547 155.4291076660156 130.157470703125 152.4487762451172 C 134.5274200439453 149.4965209960938 138.6367340087891 146.1059875488281 142.3713226318359 142.3714141845703 C 146.1059417724609 138.6367950439453 149.4964599609375 134.5274505615234 152.4487152099609 130.1575317382812 C 155.4290466308594 125.7460784912109 157.98876953125 121.0301666259766 160.0567779541016 116.1408233642578 C 162.1629180908203 111.1613922119141 163.7804565429688 105.9505157470703 164.864501953125 100.6529083251953 C 165.9769744873047 95.21638488769531 166.5410461425781 89.62045288085938 166.5410461425781 84.02056121826172 C 166.5410461425781 78.42066955566406 165.9769744873047 72.82473754882812 164.864501953125 67.38819122314453 C 163.7804565429688 62.09060668945312 162.1629180908203 56.87971496582031 160.0567779541016 51.90029907226562 C 157.98876953125 47.01093292236328 155.4290466308594 42.29502105712891 152.4487152099609 37.88356018066406 C 149.4964599609375 33.51364135742188 146.1059417724609 29.404296875 142.3713226318359 25.66970825195312 C 138.6367340087891 21.93510437011719 134.5274200439453 18.54458618164062 130.157470703125 15.59231567382812 C 125.7460174560547 12.61199951171875 121.0301361083984 10.05227661132812 116.1407623291016 7.9842529296875 C 111.1613464355469 5.878128051757812 105.9504547119141 4.260589599609375 100.6528701782227 3.176544189453125 C 95.21634674072266 2.064056396484375 89.62041473388672 1.5 84.02052307128906 1.5 M 84.02052307128906 0 C 130.4237670898438 0 168.0410461425781 37.61727905273438 168.0410461425781 84.02056121826172 C 168.0410461425781 130.4237976074219 130.4237670898438 168.0411224365234 84.02052307128906 168.0411224365234 C 37.61726379394531 168.0411224365234 0 130.4237976074219 0 84.02056121826172 C 0 37.61727905273438 37.61726379394531 0 84.02052307128906 0 Z" stroke="none"/>
        </g>
      </g>
      <g id="Caminho_9028-4" data-name="Caminho 9028" transform="translate(107.98 359.026)" fill="none">
        <path d="M 84.02052307128906 167.2911224365234 C 78.3702392578125 167.2911224365234 72.72371673583984 166.721923828125 67.23780822753906 165.5993499755859 C 61.89171981811523 164.5053863525391 56.63313293457031 162.8730163574219 51.60810852050781 160.7476043701172 C 46.67415237426758 158.6607360839844 41.915283203125 156.0776977539062 37.46369552612305 153.0702514648438 C 33.05421829223633 150.0912628173828 28.90771865844727 146.6700897216797 25.13936996459961 142.9017333984375 C 21.37102317810059 139.1333923339844 17.94982719421387 134.9868621826172 14.97084903717041 130.577392578125 C 11.96341419219971 126.1258010864258 9.380393028259277 121.3669281005859 7.293501377105713 116.432975769043 C 5.168109893798828 111.4079513549805 3.535740375518799 106.1493682861328 2.441783905029297 100.8032760620117 C 1.319196939468384 95.31736755371094 0.7500013113021851 89.67084503173828 0.7500013113021851 84.02056121826172 C 0.7500013113021851 78.37027740478516 1.319196939468384 72.7237548828125 2.441783905029297 67.23784637451172 C 3.535740375518799 61.8917350769043 5.168109893798828 56.63314819335938 7.293501377105713 51.60812759399414 C 9.380393028259277 46.67417144775391 11.96341419219971 41.91529846191406 14.97084903717041 37.46371459960938 C 17.94982719421387 33.05423355102539 21.37102317810059 28.90773582458496 25.13936996459961 25.1393871307373 C 28.90771865844727 21.37101745605469 33.05421829223633 17.94984436035156 37.46369552612305 14.97086524963379 C 41.915283203125 11.96343040466309 46.67415237426758 9.380387306213379 51.60810852050781 7.293496131896973 C 56.63311004638672 5.168104648590088 61.89171981811523 3.535735130310059 67.23780822753906 2.441778659820557 C 72.72371673583984 1.319191694259644 78.3702392578125 0.7499960064888 84.02052307128906 0.7499960064888 C 89.67080688476562 0.7499960064888 95.31732940673828 1.319191694259644 100.8032150268555 2.441778659820557 C 106.1493301391602 3.535735130310059 111.4079132080078 5.168104648590088 116.4329376220703 7.293496131896973 C 121.3668899536133 9.380387306213379 126.1257629394531 11.96343040466309 130.5773315429688 14.97086524963379 C 134.9868011474609 17.94984436035156 139.1333312988281 21.37101745605469 142.9016723632812 25.1393871307373 C 146.6700286865234 28.90773582458496 150.0912017822266 33.05423355102539 153.0701904296875 37.46371459960938 C 156.0776062011719 41.91529846191406 158.6606597900391 46.67417144775391 160.7475433349609 51.60812759399414 C 162.8729400634766 56.63314819335938 164.5053100585938 61.8917350769043 165.5992584228516 67.23784637451172 C 166.7218475341797 72.7237548828125 167.2910461425781 78.37027740478516 167.2910461425781 84.02056121826172 C 167.2910461425781 89.67084503173828 166.7218475341797 95.31736755371094 165.5992584228516 100.8032760620117 C 164.5053100585938 106.1493682861328 162.8729400634766 111.4079513549805 160.7475433349609 116.432975769043 C 158.6606597900391 121.3669281005859 156.0776062011719 126.1258010864258 153.0701904296875 130.577392578125 C 150.0912017822266 134.9868621826172 146.6700286865234 139.1333923339844 142.9016723632812 142.9017333984375 C 139.1333312988281 146.6700897216797 134.9868011474609 150.0912628173828 130.5773315429688 153.0702514648438 C 126.1257629394531 156.0776977539062 121.3668899536133 158.6607360839844 116.4329376220703 160.7476043701172 C 111.4079132080078 162.8730163574219 106.1493301391602 164.5053863525391 100.8032150268555 165.5993499755859 C 95.31732940673828 166.721923828125 89.67080688476562 167.2911224365234 84.02052307128906 167.2911224365234 Z" stroke="none"/>
        <path d="M 84.02052307128906 1.5 C 78.42063140869141 1.5 72.82469940185547 2.064056396484375 67.38817596435547 3.176544189453125 C 62.09056854248047 4.260589599609375 56.87969970703125 5.878128051757812 51.90026092529297 7.9842529296875 C 47.01091766357422 10.05227661132812 42.29499816894531 12.61199951171875 37.88356018066406 15.59231567382812 C 33.51362609863281 18.54458618164062 29.40431213378906 21.93510437011719 25.66969299316406 25.66970825195312 C 21.93510437011719 29.404296875 18.54458618164062 33.51364135742188 15.59233093261719 37.88356018066406 C 12.61199951171875 42.29502105712891 10.05227661132812 47.01093292236328 7.984268188476562 51.90029907226562 C 5.878128051757812 56.87971496582031 4.260589599609375 62.09060668945312 3.176544189453125 67.38819122314453 C 2.064071655273438 72.82473754882812 1.5 78.42066955566406 1.5 84.02056121826172 C 1.5 89.62045288085938 2.064071655273438 95.21638488769531 3.176544189453125 100.6529083251953 C 4.260589599609375 105.9505157470703 5.878128051757812 111.1613922119141 7.984268188476562 116.1408233642578 C 10.05227661132812 121.0301666259766 12.61199951171875 125.7460784912109 15.59233093261719 130.1575317382812 C 18.54458618164062 134.5274505615234 21.93510437011719 138.6367950439453 25.66969299316406 142.3714141845703 C 29.40431213378906 146.1059875488281 33.51362609863281 149.4965209960938 37.88356018066406 152.4487762451172 C 42.29499816894531 155.4291076660156 47.01091766357422 157.9888458251953 51.90026092529297 160.0568695068359 C 56.87969970703125 162.1629791259766 62.09056854248047 163.7805328369141 67.38817596435547 164.8645782470703 C 72.82469940185547 165.9770660400391 78.42063140869141 166.5411224365234 84.02052307128906 166.5411224365234 C 89.62041473388672 166.5411224365234 95.21634674072266 165.9770660400391 100.6528701782227 164.8645782470703 C 105.9504547119141 163.7805328369141 111.1613464355469 162.1629791259766 116.1407623291016 160.0568695068359 C 121.0301361083984 157.9888458251953 125.7460174560547 155.4291076660156 130.157470703125 152.4487762451172 C 134.5274200439453 149.4965209960938 138.6367340087891 146.1059875488281 142.3713226318359 142.3714141845703 C 146.1059417724609 138.6367950439453 149.4964599609375 134.5274505615234 152.4487152099609 130.1575317382812 C 155.4290466308594 125.7460784912109 157.98876953125 121.0301666259766 160.0567779541016 116.1408233642578 C 162.1629180908203 111.1613922119141 163.7804565429688 105.9505157470703 164.864501953125 100.6529083251953 C 165.9769744873047 95.21638488769531 166.5410461425781 89.62045288085938 166.5410461425781 84.02056121826172 C 166.5410461425781 78.42066955566406 165.9769744873047 72.82473754882812 164.864501953125 67.38819122314453 C 163.7804565429688 62.09060668945312 162.1629180908203 56.87971496582031 160.0567779541016 51.90029907226562 C 157.98876953125 47.01093292236328 155.4290466308594 42.29502105712891 152.4487152099609 37.88356018066406 C 149.4964599609375 33.51364135742188 146.1059417724609 29.404296875 142.3713226318359 25.66970825195312 C 138.6367340087891 21.93510437011719 134.5274200439453 18.54458618164062 130.157470703125 15.59231567382812 C 125.7460174560547 12.61199951171875 121.0301361083984 10.05227661132812 116.1407623291016 7.9842529296875 C 111.1613464355469 5.878128051757812 105.9504547119141 4.260589599609375 100.6528701782227 3.176544189453125 C 95.21634674072266 2.064056396484375 89.62041473388672 1.5 84.02052307128906 1.5 M 84.02052307128906 0 C 130.4237670898438 0 168.0410461425781 37.61727905273438 168.0410461425781 84.02056121826172 C 168.0410461425781 130.4237976074219 130.4237670898438 168.0411224365234 84.02052307128906 168.0411224365234 C 37.61726379394531 168.0411224365234 0 130.4237976074219 0 84.02056121826172 C 0 37.61727905273438 37.61726379394531 0 84.02052307128906 0 Z" stroke="none" fill="#ebebeb"/>
      </g>
    </g>
    <path id="Interseção_16" data-name="Interseção 16" d="M-3022.675,7341.051l.093-29.63q.97-.067,1.956-.067a28.249,28.249,0,0,1,28.249,28.251v3a28.124,28.124,0,0,1-3.621,13.848Z" transform="translate(3131.626 -6849.604)" fill="#ff0070"/>
    <g data-type="innerShadowGroup">
      <path id="Interseção_9-2" data-name="Interseção 9" d="M-2883.876,7343.1v-4a27.751,27.751,0,0,1,26.892-27.737l-.091,29.165-24.289,14.125A27.651,27.651,0,0,1-2883.876,7343.1Z" transform="translate(3131.626 -6849.604)" fill="#ff0070"/>
      <g transform="matrix(1, 0, 0, 1, 14, 290)" filter="url(#Interseção_9)">
        <path id="Interseção_9-3" data-name="Interseção 9" d="M-2883.876,7343.1v-4a27.751,27.751,0,0,1,26.892-27.737l-.091,29.165-24.289,14.125A27.651,27.651,0,0,1-2883.876,7343.1Z" transform="translate(3117.63 -7139.6)" fill="#fff"/>
      </g>
      <path id="Interseção_9-4" data-name="Interseção 9" d="M-2883.876,7343.1v-4a27.751,27.751,0,0,1,26.892-27.737l-.091,29.165-24.289,14.125A27.651,27.651,0,0,1-2883.876,7343.1Z" transform="translate(3131.626 -6849.604)" fill="none" stroke="#ff0070" stroke-width="1.5"/>
    </g>
    <path id="Interseção_15" data-name="Interseção 15" d="M-2964.5,7374.639a28.756,28.756,0,0,1,26.372-17.284h1a28.745,28.745,0,0,1,25.271,15.032l-28.171,16.381Z" transform="translate(3131.626 -6849.604)" fill="#ff0070"/>
    <path id="Interseção_14" data-name="Interseção 14" d="M-2965.686,7214.525l26.259-15.27,26.78,15.461a28.756,28.756,0,0,1-26.479,17.533A28.76,28.76,0,0,1-2965.686,7214.525Z" transform="translate(3131.626 -6852)" fill="#ff0070"/>
    <g id="Grupo_8137" data-name="Grupo 8137" transform="translate(162.681 321.449)">
      <g data-type="innerShadowGroup">
        <rect id="Retângulo_4357-7" data-name="Retângulo 4357" width="59" height="60" rx="29.5" transform="translate(0.319 -0.449)" opacity="0.89" fill="url(#radial-gradient)"/>
        <g transform="matrix(1, 0, 0, 1, -148.68, -31.45)" filter="url(#Retângulo_4357)">
          <rect id="Retângulo_4357-8" data-name="Retângulo 4357" width="59" height="60" rx="29.5" transform="translate(149 31)" fill="#fff" opacity="0.89"/>
        </g>
        <g id="Retângulo_4357-9" data-name="Retângulo 4357" transform="translate(0.319 -0.449)" fill="none" stroke="#ff00b2" stroke-width="1.5" opacity="0.89">
          <rect width="59" height="60" rx="29.5" stroke="none"/>
          <rect x="0.75" y="0.75" width="57.5" height="58.5" rx="28.75" fill="none"/>
        </g>
      </g>
    </g>
    <g id="Grupo_8153" data-name="Grupo 8153" transform="translate(223.979 565.723) rotate(180)">
      <g data-type="innerShadowGroup">
        <rect id="Retângulo_4357-10" data-name="Retângulo 4357" width="60" height="59" rx="29.5" transform="translate(-0.022 -0.277)" opacity="0.89" fill="url(#radial-gradient)"/>
        <g transform="matrix(-1, 0, 0, -1, 209.98, 275.72)" filter="url(#Retângulo_4357-2)">
          <rect id="Retângulo_4357-11" data-name="Retângulo 4357" width="60" height="59" rx="29.5" transform="translate(210 276) rotate(180)" fill="#fff" opacity="0.89"/>
        </g>
        <g id="Retângulo_4357-12" data-name="Retângulo 4357" transform="translate(-0.022 -0.277)" fill="none" stroke="#ff00b2" stroke-width="1.5" opacity="0.89">
          <rect width="60" height="59" rx="29.5" stroke="none"/>
          <rect x="0.75" y="0.75" width="58.5" height="57.5" rx="28.75" fill="none"/>
        </g>
      </g>
    </g>
    <g data-type="innerShadowGroup">
      <path id="Interseção_8-2" data-name="Interseção 8" d="M-2883.876,7247.1v-4a27.629,27.629,0,0,1,2.952-12.468l24.149,13.942-.095,30.266A27.749,27.749,0,0,1-2883.876,7247.1Z" transform="translate(3131.626 -6849.604)" fill="#ff0070"/>
      <g transform="matrix(1, 0, 0, 1, 14, 290)" filter="url(#Interseção_8)">
        <path id="Interseção_8-3" data-name="Interseção 8" d="M-2883.876,7247.1v-4a27.629,27.629,0,0,1,2.952-12.468l24.149,13.942-.095,30.266A27.749,27.749,0,0,1-2883.876,7247.1Z" transform="translate(3117.63 -7139.6)" fill="#fff"/>
      </g>
      <path id="Interseção_8-4" data-name="Interseção 8" d="M-2883.876,7247.1v-4a27.629,27.629,0,0,1,2.952-12.468l24.149,13.942-.095,30.266A27.749,27.749,0,0,1-2883.876,7247.1Z" transform="translate(3131.626 -6849.604)" fill="none" stroke="#ff0070" stroke-width="1.5"/>
    </g>
    <g id="Grupo_8150" data-name="Grupo 8150" transform="translate(246.851 365.363)">
      <g data-type="innerShadowGroup">
        <rect id="Retângulo_4357-13" data-name="Retângulo 4357" width="57" height="61" rx="28.5" transform="translate(0.15 -0.363)" opacity="0.89" fill="url(#radial-gradient)"/>
        <g transform="matrix(1, 0, 0, 1, -232.85, -75.36)" filter="url(#Retângulo_4357-3)">
          <rect id="Retângulo_4357-14" data-name="Retângulo 4357" width="57" height="61" rx="28.5" transform="translate(233 75)" fill="#fff" opacity="0.89"/>
        </g>
        <g id="Retângulo_4357-15" data-name="Retângulo 4357" transform="translate(0.15 -0.363)" fill="none" stroke="#ff00b2" stroke-width="1.5" opacity="0.89">
          <rect width="57" height="61" rx="28.5" stroke="none"/>
          <rect x="0.75" y="0.75" width="55.5" height="59.5" rx="27.75" fill="none"/>
        </g>
      </g>
    </g>
    <g id="Grupo_8152" data-name="Grupo 8152" transform="translate(139.809 521.809) rotate(180)">
      <g data-type="innerShadowGroup">
        <rect id="Retângulo_4357-16" data-name="Retângulo 4357" width="58" height="61" rx="29" transform="translate(-0.191 -0.192)" opacity="0.89" fill="url(#radial-gradient)"/>
        <g transform="matrix(-1, 0, 0, -1, 125.81, 231.81)" filter="url(#Retângulo_4357-4)">
          <rect id="Retângulo_4357-17" data-name="Retângulo 4357" width="58" height="61" rx="29" transform="translate(126 232) rotate(180)" fill="#fff" opacity="0.89"/>
        </g>
        <g id="Retângulo_4357-18" data-name="Retângulo 4357" transform="translate(-0.191 -0.192)" fill="none" stroke="#ff00b2" stroke-width="1.5" opacity="0.89">
          <rect width="58" height="61" rx="29" stroke="none"/>
          <rect x="0.75" y="0.75" width="56.5" height="59.5" rx="28.25" fill="none"/>
        </g>
      </g>
    </g>
    <path id="Interseção_17" data-name="Interseção 17" d="M-3022.468,7274.794l.093-29.7,26.377-15.34a28.128,28.128,0,0,1,3.62,13.847v3a28.248,28.248,0,0,1-28.249,28.249Q-3021.554,7274.853-3022.468,7274.794Z" transform="translate(3131.626 -6849.604)" fill="#ff0070"/>
    <g id="Grupo_8151" data-name="Grupo 8151" transform="translate(82.172 365.363)">
      <g data-type="innerShadowGroup">
        <rect id="Retângulo_4357-19" data-name="Retângulo 4357" width="58" height="61" rx="29" transform="translate(-0.172 -0.363)" opacity="0.89" fill="url(#radial-gradient)"/>
        <g transform="matrix(1, 0, 0, 1, -68.17, -75.36)" filter="url(#Retângulo_4357-5)">
          <rect id="Retângulo_4357-20" data-name="Retângulo 4357" width="58" height="61" rx="29" transform="translate(68 75)" fill="#fff" opacity="0.89"/>
        </g>
        <g id="Retângulo_4357-21" data-name="Retângulo 4357" transform="translate(-0.172 -0.363)" fill="none" stroke="#ff00b2" stroke-width="1.5" opacity="0.89">
          <rect width="58" height="61" rx="29" stroke="none"/>
          <rect x="0.75" y="0.75" width="56.5" height="59.5" rx="28.25" fill="none"/>
        </g>
      </g>
    </g>
    <g id="Grupo_8154" data-name="Grupo 8154" transform="translate(303.573 521.809) rotate(180)">
      <g data-type="innerShadowGroup">
        <rect id="Retângulo_4357-22" data-name="Retângulo 4357" width="57" height="61" rx="28.5" transform="translate(-0.427 -0.192)" opacity="0.89" fill="url(#radial-gradient)"/>
        <g transform="matrix(-1, 0, 0, -1, 289.57, 231.81)" filter="url(#Retângulo_4357-6)">
          <rect id="Retângulo_4357-23" data-name="Retângulo 4357" width="57" height="61" rx="28.5" transform="translate(290 232) rotate(180)" fill="#fff" opacity="0.89"/>
        </g>
        <g id="Retângulo_4357-24" data-name="Retângulo 4357" transform="translate(-0.427 -0.192)" fill="none" stroke="#ff00b2" stroke-width="1.5" opacity="0.89">
          <rect width="57" height="61" rx="28.5" stroke="none"/>
          <rect x="0.75" y="0.75" width="55.5" height="59.5" rx="27.75" fill="none"/>
        </g>
      </g>
    </g>
    <text id="Ecossistema_Digital" data-name="Ecossistema
Digital" transform="translate(187.817 472.231)" fill="#ff0070" font-size="10" font-family="CabinetGrotesk-Extrabold, Cabinet Grotesk" font-weight="800" letter-spacing="0.1em"><tspan x="-38.03" y="0">ECOSSISTEMA</tspan><tspan x="-20.85" y="11">DIGITAL</tspan></text>
    <text id="Novos_Mercados" data-name="Novos
Mercados" transform="translate(189 299)" fill="#e3e3e3" font-size="10" font-family="CabinetGrotesk-Bold, Cabinet Grotesk" font-weight="700" letter-spacing="0.05em"><tspan x="-17.73" y="0">NOVOS</tspan><tspan x="-28.645" y="11">MERCADOS</tspan></text>
    <text id="Novos_Modelos_de_Negócio" data-name="Novos
Modelos de
Negócio" transform="translate(294 336)" fill="#e3e3e3" font-size="10" font-family="CabinetGrotesk-Bold, Cabinet Grotesk" font-weight="700" letter-spacing="0.05em"><tspan x="0" y="0">NOVOS</tspan><tspan x="0" y="11">MODELOS DE</tspan><tspan x="0" y="22">NEGÓCIO</tspan></text>
    <text id="Novas_Experências_Do_cliente" data-name="Novas
Experências
Do cliente" transform="translate(294 531)" fill="#e3e3e3" font-size="10" font-family="CabinetGrotesk-Bold, Cabinet Grotesk" font-weight="700" letter-spacing="0.05em"><tspan x="0" y="0">NOVAS</tspan><tspan x="0" y="11">EXPERÊNCIAS</tspan><tspan x="0" y="22">DO CLIENTE</tspan></text>
    <text id="Novas_Fontes_de_Receita" data-name="Novas
Fontes de
Receita" transform="translate(87 336)" fill="#e3e3e3" font-size="10" font-family="CabinetGrotesk-Bold, Cabinet Grotesk" font-weight="700" letter-spacing="0.05em"><tspan x="-34.15" y="0">NOVAS</tspan><tspan x="-54.66" y="11">FONTES DE</tspan><tspan x="-40.52" y="22">RECEITA</tspan></text>
    <text id="Novas_Tecnologias" data-name="Novas
Tecnologias" transform="translate(85 531)" fill="#e3e3e3" font-size="10" font-family="CabinetGrotesk-Bold, Cabinet Grotesk" font-weight="700" letter-spacing="0.05em"><tspan x="-34.15" y="0">NOVAS</tspan><tspan x="-70.85" y="11">TECNOLOGIAS</tspan></text>
    <text id="Novas_Capacidades" data-name="Novas
Capacidades" transform="translate(189 584)" fill="#e3e3e3" font-size="10" font-family="CabinetGrotesk-Bold, Cabinet Grotesk" font-weight="700" letter-spacing="0.05em"><tspan x="-17.075" y="0">NOVAS</tspan><tspan x="-35.435" y="11">CAPACIDADES</tspan></text>
    <g id="Grupo_8146" data-name="Grupo 8146" transform="translate(163.366 398.848)" style="isolation: isolate">
      <g id="Grupo_8145" data-name="Grupo 8145" transform="translate(0 0)" clip-path="url(#clip-path)">
        <g id="Grupo_8138" data-name="Grupo 8138" transform="translate(14.422 0)">
          <path id="Caminho_9093" data-name="Caminho 9093" d="M-.167-5.134A.559.559,0,0,0,.6-5.363,15.2,15.2,0,0,1,1.6-6.812,15.9,15.9,0,0,1,4.054-9.368a14.408,14.408,0,0,1,3.9-2.41,15.81,15.81,0,0,1,6.751-1.294,11.737,11.737,0,0,1,1.881.246,3.482,3.482,0,0,1,.48.137.241.241,0,0,1,.117.051l.024.019a.555.555,0,0,0,.729-.335.724.724,0,0,0-.427-.76h0a9.258,9.258,0,0,0-2.879-.473,16.752,16.752,0,0,0-7.223,1.4,15.7,15.7,0,0,0-4.145,2.573A17.858,17.858,0,0,0,.68-7.487,13.37,13.37,0,0,0-.4-5.9a.559.559,0,0,0,.229.764" transform="translate(0.462 14.201)" fill="#ff0070"/>
        </g>
        <g id="Grupo_8139" data-name="Grupo 8139" transform="translate(14.273 3.157)">
          <path id="Caminho_9094" data-name="Caminho 9094" d="M-.244-7.724A.566.566,0,0,0,.43-8.139a15.088,15.088,0,0,1,.742-2.318A18.581,18.581,0,0,1,3.68-15a10.978,10.978,0,0,1,1.71-1.8,13.741,13.741,0,0,1,8.249-3.378,13.157,13.157,0,0,1,7.583,1.97.559.559,0,0,0,.769-.185.558.558,0,0,0-.186-.769,13.735,13.735,0,0,0-8.247-2.172h0a14.906,14.906,0,0,0-8.9,3.615,13.8,13.8,0,0,0-1.886,1.979A18.646,18.646,0,0,0,.09-10.827,16.18,16.18,0,0,0-.66-8.4a.566.566,0,0,0,.416.674" transform="translate(0.675 21.365)" fill="#ff0070"/>
        </g>
        <g id="Grupo_8140" data-name="Grupo 8140" transform="translate(16.432 6.241)">
          <path id="Caminho_9095" data-name="Caminho 9095" d="M-7.481-.007a11.52,11.52,0,0,0-7.961,2.7h0A11.975,11.975,0,0,0-17.195,4.5,14.715,14.715,0,0,0-19.9,11.123c-.183.992-.266,1.905-.395,2.627a7.386,7.386,0,0,1-.15.9,1.9,1.9,0,0,1-.162.461.558.558,0,0,0,.185.769.558.558,0,0,0,.769-.185,2.652,2.652,0,0,0,.3-.787c.132-.523.186-1.147.29-1.887a25.233,25.233,0,0,1,.734-3.77,11.983,11.983,0,0,1,2-4.041,9.7,9.7,0,0,1,1.578-1.631A10.571,10.571,0,0,1-7.517,1.1,11.768,11.768,0,0,1-.825,3.511,9.452,9.452,0,0,1,1.567,6.226.56.56,0,0,0,2.558,5.7a10.232,10.232,0,0,0-2.7-3.072A13.011,13.011,0,0,0-7.481-.007" transform="translate(20.693 0.019)" fill="#ff0070"/>
        </g>
        <g id="Grupo_8141" data-name="Grupo 8141" transform="translate(18.872 9.253)">
          <path id="Caminho_9096" data-name="Caminho 9096" d="M-11.4-5.423a.544.544,0,0,0,.375-.686,13.414,13.414,0,0,0-4.444-6.925,9.372,9.372,0,0,0-4.715-1.936,9.572,9.572,0,0,0-4.761.845h0a8.332,8.332,0,0,0-3.086,2.417A9.174,9.174,0,0,0-29.7-8.04a20.989,20.989,0,0,0-.427,3.071,10.637,10.637,0,0,1-.519,2.686,12.418,12.418,0,0,1-.835,1.934.554.554,0,0,0,.248.739A.553.553,0,0,0-30.5.143a12.292,12.292,0,0,0,.88-2.094,12.172,12.172,0,0,0,.573-2.958,17.826,17.826,0,0,1,.381-2.912,8.383,8.383,0,0,1,1.486-3.227,6.975,6.975,0,0,1,2.686-2.1,7.741,7.741,0,0,1,4.226-.711,8.3,8.3,0,0,1,4.138,1.723A12.24,12.24,0,0,1-12.089-5.8a.545.545,0,0,0,.686.375" transform="translate(31.542 15.002)" fill="#ff0070"/>
        </g>
        <g id="Grupo_8142" data-name="Grupo 8142" transform="translate(21.42 12.455)">
          <path id="Caminho_9097" data-name="Caminho 9097" d="M-8.478-6.292a.552.552,0,0,0,.654.468.552.552,0,0,0,.468-.654A23.577,23.577,0,0,0-9.179-12.7a9.577,9.577,0,0,0-2.615-3.435,5.82,5.82,0,0,0-2.774-1.213h0a6.646,6.646,0,0,0-2.6.174,5.655,5.655,0,0,0-1.649.715,4.932,4.932,0,0,0-1.223,1.124,6.016,6.016,0,0,0-1.043,2.2,11.09,11.09,0,0,0-.329,2.795,13.076,13.076,0,0,1-.609,4.063,12.054,12.054,0,0,1-1.348,2.747.557.557,0,0,0,.185.769.558.558,0,0,0,.769-.186,13.237,13.237,0,0,0,1.451-2.981,14.343,14.343,0,0,0,.676-4.4,9.875,9.875,0,0,1,.319-2.529,5.176,5.176,0,0,1,.85-1.8,3.649,3.649,0,0,1,.948-.868,4.371,4.371,0,0,1,1.338-.566,5.131,5.131,0,0,1,2.141-.139,4.761,4.761,0,0,1,2.24.994,8.311,8.311,0,0,1,2.3,3.035A20.578,20.578,0,0,1-8.478-6.292" transform="translate(23.453 17.405)" fill="#ff0070"/>
        </g>
        <g id="Grupo_8143" data-name="Grupo 8143" transform="translate(24.278 15.555)">
          <path id="Caminho_9098" data-name="Caminho 9098" d="M-4.672-1.135h0a4.821,4.821,0,0,0-1.146-1.4A2.862,2.862,0,0,0-7.1-3.1a3,3,0,0,0-1.4.089,2.16,2.16,0,0,0-.772.34,2.256,2.256,0,0,0-.571.535,3.536,3.536,0,0,0-.51,1.011,6.751,6.751,0,0,0-.3,1.645c-.04.555-.061,1.087-.074,1.507A23.075,23.075,0,0,1-11.108,5.6a8.973,8.973,0,0,1-1.7,3.65.554.554,0,0,0,.1.78.554.554,0,0,0,.78-.1,10.117,10.117,0,0,0,1.9-4.116,23.875,23.875,0,0,0,.407-3.751c.053-.623.052-1.328.124-1.976A5.127,5.127,0,0,1-9.3-.814a2.277,2.277,0,0,1,.332-.681,1.556,1.556,0,0,1,.295-.28,1.759,1.759,0,0,1,.418-.185,2.465,2.465,0,0,1,.916-.072,1.751,1.751,0,0,1,.773.365,3.526,3.526,0,0,1,.86,1.059A11.42,11.42,0,0,1-4.6,2.6a44.684,44.684,0,0,1,.8,5.315.578.578,0,0,0,.616.517.578.578,0,0,0,.517-.616A36.976,36.976,0,0,0-3.853.985a8.346,8.346,0,0,0-.819-2.12" transform="translate(12.922 3.14)" fill="#ff0070"/>
        </g>
        <g id="Grupo_8144" data-name="Grupo 8144" transform="translate(0 19.011)">
          <path id="Caminho_9099" data-name="Caminho 9099" d="M-32.771-9.977a5.158,5.158,0,0,1-1.058.458,8.534,8.534,0,0,1-1.122.261c-.67.111-1.349.167-2.032.239H-37c-.584-.045-1.17-.053-1.75-.044s-1.159.033-1.734.054-1.144.036-1.709.031a14.405,14.405,0,0,1-1.67-.1c-.273-.031-.543-.08-.81-.132-.066-.014-.133-.031-.2-.045s-.133-.03-.2-.049l-.2-.052c-.066-.016-.133-.038-.2-.057-.265-.075-.533-.163-.8-.252l-.816-.276c-.275-.093-.556-.185-.842-.273l-.216-.063-.108-.032-.11-.029-.221-.057c-.074-.019-.15-.035-.225-.052-.149-.036-.3-.063-.457-.093l-.057-.011-.059-.009-.234-.034c-.04-.005-.079-.012-.118-.015l-.239-.024c-.04,0-.08-.008-.12-.01l-.119-.006c-.16-.01-.319-.01-.479-.011-.317,0-.63.025-.938.057s-.609.077-.907.127c-.594.1-1.168.226-1.725.34-.28.057-.554.112-.824.159s-.538.09-.8.118a7.62,7.62,0,0,1-.767.054,5.467,5.467,0,0,1-.723-.034l-.172-.024c-.057-.01-.113-.022-.169-.032s-.11-.025-.165-.038l-.082-.02c-.027-.007-.053-.016-.08-.024l-.08-.025-.04-.012-.039-.015-.154-.057-.147-.064-.143-.072a3.3,3.3,0,0,1-.547-.365c0-.061,0-.125,0-.19,0-.09-.014-.182-.021-.278s-.023-.194-.042-.292a23.578,23.578,0,0,1-.328-4.245c0-.646.034-1.951.034-1.951.2-7.1-.6-9.553-.63-9.658h0a.579.579,0,0,0-.686-.375.548.548,0,0,0-.375.686,10.327,10.327,0,0,1,.208,2.859c-.071,1.7-1.062,3.706-1.869,6.292a14.662,14.662,0,0,0-.161,2.268c-.061.718-.149,1.438-.262,2.154s-.246,1.427-.4,2.131c-.013.057-.025.113-.034.17a3.35,3.35,0,0,1-.978.79l-.144.072-.147.064-.155.058c-.013,0-.026.01-.039.014l-.04.013-.08.024-.08.025-.081.02c-.056.013-.109.029-.165.038s-.112.022-.169.031l-.173.024a5.688,5.688,0,0,1-.723.034c-.25,0-.506-.025-.767-.054s-.528-.071-.8-.118-.545-.1-.824-.159c-.557-.114-1.131-.239-1.726-.34-.3-.05-.6-.1-.907-.127s-.621-.054-.938-.057c-.159,0-.318,0-.479.011l-.119.006c-.04,0-.08.007-.119.011l-.239.023c-.041,0-.079.01-.119.015l-.234.034-.058.009-.058.011c-.153.029-.308.056-.457.093l-.225.052-.222.058-.11.029-.109.031-.216.063c-.285.087-.567.178-.841.272l-.817.276c-.268.088-.535.176-.8.252-.066.019-.133.04-.2.056l-.2.052c-.066.019-.133.033-.2.049l-.2.045c-.266.052-.535.1-.81.132a14.547,14.547,0,0,1-1.67.1c-.565,0-1.135-.011-1.709-.032s-1.152-.044-1.734-.053-1.166,0-1.749.043h-.019c-.684-.072-1.363-.127-2.033-.239a8.333,8.333,0,0,1-1.122-.261,5.161,5.161,0,0,1-1.058-.459c-.034-.019-.05.006-.017.027a5.283,5.283,0,0,0,1.033.548,8.59,8.59,0,0,0,1.119.355c.286.072.573.132.861.188l-.074.016-.215.045c-.072.016-.143.036-.214.054l-.107.027-.054.013-.053.017-.211.064c-.071.02-.14.046-.209.071l-.207.075-.2.085-.1.042-.1.047-.2.1c-.033.015-.064.033-.1.051l-.086.059c-.209.115-.124.264.085.169l.1-.043c.031-.014.064-.03.1-.042l.2-.077.1-.038.1-.033.2-.066c.068-.02.136-.038.2-.056s.135-.038.2-.052L-88.2-8.4l.052-.009.1-.018c.069-.011.139-.025.208-.034l.21-.027.1-.013.105-.01.211-.019L-87-8.541c.071,0,.141-.009.212-.01.141,0,.282-.008.424-.006.566,0,1.133.038,1.7.093.368.035.738.077,1.109.119a5.545,5.545,0,0,0-.605.452,11.721,11.721,0,0,0-1.37,1.441A17.56,17.56,0,0,1-86.77-5.059.2.2,0,0,0-86.839-5l-.009.013a5.409,5.409,0,0,1-.718.575,3.7,3.7,0,0,1-.861.427c-.061.022-.049.07.015.052A3.831,3.831,0,0,0-87.5-4.3c.121-.066.238-.139.352-.215-.024.045-.046.089-.068.134a3.284,3.284,0,0,0-.22.687A7.482,7.482,0,0,0-87.6-2.287c0,.024.017.025.019,0a7.441,7.441,0,0,1,.273-1.373,3.091,3.091,0,0,1,.259-.635,3.864,3.864,0,0,1,.4-.556.2.2,0,0,0,.037-.064,18.07,18.07,0,0,0,1.354-1.3c.226-.232.455-.46.69-.675a8.222,8.222,0,0,1,.731-.6,4.726,4.726,0,0,1,.791-.47,2.911,2.911,0,0,1,.795-.24c.343.036.689.068,1.038.093a15.4,15.4,0,0,0,1.779.033c.3-.011.6-.039.9-.075l.225-.033c.075-.011.151-.022.225-.036l.223-.04c.075-.013.147-.029.22-.044.294-.059.58-.13.865-.2l.839-.212.306-.076q-.143.131-.28.266c-.052.05-.1.1-.152.153-.011.01-.022.019-.033.03a.678.678,0,0,0-.054.058c-.178.185-.35.372-.517.562-.481.545-.92,1.1-1.374,1.619-.057.064-.114.128-.172.19s-.116.125-.174.186l-.009.009a4.885,4.885,0,0,1-.967.074,5.26,5.26,0,0,1-1.237-.176,5.2,5.2,0,0,1-.752-.26A.139.139,0,0,0-81.4-6.1l-.019-.005c-.119-.054-.237-.111-.352-.174A4.94,4.94,0,0,1-82.8-7.024c-.032-.029-.055-.006-.025.025a5.036,5.036,0,0,0,.855.744,2.856,2.856,0,0,0-.442-.059,2.473,2.473,0,0,0-.519.033,3.676,3.676,0,0,0-.5.127c-.016.005-.013.018,0,.014a3.476,3.476,0,0,1,.5-.087,2.289,2.289,0,0,1,.5.008,4.19,4.19,0,0,1,.969.282l.007,0a5.433,5.433,0,0,0,.782.344,5.629,5.629,0,0,0,1.285.287c.185.019.37.027.556.027-.22.221-.443.434-.672.633-.128.11-.258.217-.391.317s-.27.195-.41.281a5.143,5.143,0,0,1-.9.434,7.738,7.738,0,0,1-.981.291c-.337.079-.68.143-1.027.2-.458.08-.922.151-1.386.241a2.345,2.345,0,0,1-1.843-.817c-.012-.013-.022-.005-.012.009a2.361,2.361,0,0,0,.808.7,2.436,2.436,0,0,0,.543.214c-.07.015-.139.033-.208.05a7.647,7.647,0,0,0-1.025.331,4.872,4.872,0,0,0-.947.511c-.119.083-.059.169.063.1a4.735,4.735,0,0,1,.953-.421,7.38,7.38,0,0,1,1.015-.241c.688-.116,1.389-.162,2.1-.227.354-.033.711-.071,1.069-.126.245-.037.49-.082.734-.139-.088.123-.172.248-.253.371-.16.241-.311.481-.472.711a4.933,4.933,0,0,1-.522.644,3.751,3.751,0,0,1-.643.518A5.286,5.286,0,0,1-83.97-.3a13.487,13.487,0,0,1-1.614.559c-.056.017-.045.058.012.046A13.661,13.661,0,0,0-83.9-.126a5.6,5.6,0,0,0,.8-.349c.058-.031.116-.064.174-.1-.139.293-.271.591-.384.9a5.159,5.159,0,0,0-.338,1.484c0,.026.017.027.02,0A5.057,5.057,0,0,1-83.182.376a13.557,13.557,0,0,1,.676-1.239c.047-.037.093-.074.139-.114a5.367,5.367,0,0,0,.612-.642c.187-.226.359-.457.534-.681a7.531,7.531,0,0,1,.538-.633,3.266,3.266,0,0,1,.381-.336c.118-.05.236-.1.352-.163.168-.086.33-.181.488-.281s.31-.206.46-.315c.3-.22.578-.453.85-.687l.2-.176.1-.088.1-.089c.069-.061.138-.123.2-.186s.133-.126.2-.188q.238-.232.467-.465c0,.172,0,.343.016.51.015.19.036.375.061.559.036.272.078.54.109.8L-76.754-4c-.057.031-.116.061-.172.1l-.169.1c-.056.035-.11.072-.167.108l-.082.054-.08.057-.16.116c-.21.159-.407.329-.6.5-.381.345-.741.7-1.135,1.014a4.418,4.418,0,0,1-.622.419,3.04,3.04,0,0,1-.339.159,2.45,2.45,0,0,1-.358.113c-.1.023-.089.1.016.082a2.656,2.656,0,0,0,.379-.088,3.39,3.39,0,0,0,.365-.138,4.622,4.622,0,0,0,.678-.382c.094-.063.186-.129.277-.195A5.036,5.036,0,0,0-79.406.064c0,.024.016.024.019,0a4.929,4.929,0,0,1,.894-2.373c.174-.138.345-.275.519-.409.2-.155.4-.3.61-.436l.158-.1c.027-.015.052-.033.079-.047l.081-.044c.054-.029.108-.06.163-.088l.166-.082.069-.033a3.747,3.747,0,0,1-.041.829l-.022.129c-.009.043-.02.085-.029.128-.017.086-.045.17-.069.254-.011.043-.027.084-.043.126l-.044.126-.051.123c-.017.041-.033.082-.053.123a5.6,5.6,0,0,1-.544.928,7.6,7.6,0,0,1-.7.83c-.051.053-.014.093.042.043a7.691,7.691,0,0,0,.777-.783,5.678,5.678,0,0,0,.636-.914c.024-.04.044-.082.066-.124l.038-.075a4.666,4.666,0,0,0,.117.736,5.2,5.2,0,0,0,.54,1.353c.012.022.028.013.017-.009a5.14,5.14,0,0,1-.426-1.37,4.267,4.267,0,0,1-.016-1.281v0c.015-.045.029-.091.043-.136l.036-.139.017-.069c.006-.024.01-.047.015-.07l.026-.141.007-.036,0-.036.01-.071c.006-.047.013-.094.016-.142a4.841,4.841,0,0,0,.022-.5c.074-.031.149-.061.226-.088.232-.088.469-.166.709-.24.48-.147.969-.276,1.465-.413.123-.033.248-.069.372-.1s.248-.072.374-.111c.25-.077.5-.162.747-.255q.307-.116.61-.255c-.046.112-.092.224-.135.336-.128.331-.241.665-.343,1q-.24.218-.455.451c-.184.2-.356.4-.522.6-.33.409-.63.824-.928,1.229-.149.2-.3.4-.448.6s-.3.385-.462.568c-.041.045-.079.092-.12.136l-.122.133-.125.13c-.041.043-.085.084-.127.126a5.993,5.993,0,0,1-.537.462l-.143.1c-.024.017-.049.033-.073.049l-.073.048c-.025.015-.049.033-.074.047L-76.6.93c-.026.015-.052.029-.079.043-.209.117-.427.223-.651.322s-.454.19-.687.276-.47.169-.708.25c-.477.162-.96.317-1.44.492-.239.088-.478.181-.715.282-.142.061-.283.125-.421.193a5.921,5.921,0,0,1-.678.083,5.336,5.336,0,0,1-.714,0,5.374,5.374,0,0,1-.711-.105l-.175-.044c-.029-.006-.057-.015-.087-.024l-.086-.027c-.116-.033-.227-.079-.341-.121-.023-.009-.031.008-.008.019.11.05.219.107.333.147l.085.034c.028.011.056.022.086.032l.174.057A5.125,5.125,0,0,0-82.7,3a5.44,5.44,0,0,0,.735.059h.155c-.143.084-.282.172-.417.269a4.849,4.849,0,0,0-.594.5c-.149.149-.04.253.112.122a4.824,4.824,0,0,1,.6-.43,5.9,5.9,0,0,1,.661-.337c.227-.1.458-.188.7-.266s.475-.151.716-.218c.482-.133.972-.25,1.464-.375.161-.041.322-.082.483-.126-.072.077-.14.156-.206.239a4.269,4.269,0,0,0-.421.651c-.119.225-.225.451-.333.672-.054.11-.11.218-.169.324s-.112.194-.174.286a.159.159,0,0,0-.043.064,3.612,3.612,0,0,1-.441.509,7.29,7.29,0,0,1-1.184.878c-.043.026-.025.058.02.035a7.361,7.361,0,0,0,1.269-.794c.058-.049.116-.1.171-.15a1.465,1.465,0,0,0-.036.159,1.794,1.794,0,0,0-.026.333c0,.028,0,.055,0,.082l0,.082c0,.053,0,.107.008.161a2.591,2.591,0,0,0,.12.64,3.031,3.031,0,0,0,.265.589c.011.019.024.011.015-.008a3.069,3.069,0,0,1-.215-.6,2.455,2.455,0,0,1-.066-.624c0-.052,0-.105.005-.159l0-.08c0-.026,0-.052,0-.079a1.635,1.635,0,0,1,.048-.3,1.837,1.837,0,0,1,.1-.287c.042-.1.088-.194.132-.293l0,0c.08-.1.155-.2.225-.309s.137-.213.2-.321c.128-.215.25-.43.38-.633a3.939,3.939,0,0,1,.432-.564,3.693,3.693,0,0,1,1.124-.822.4.4,0,0,0,.147-.111c.123-.049.245-.1.366-.156l.091-.042.089-.044c.06-.029.119-.059.179-.092l.089-.049c.03-.016.06-.032.088-.05l.174-.105A7.535,7.535,0,0,0-74.4.213c.187-.185.366-.375.541-.567s.343-.385.509-.577c.182-.211.361-.419.54-.623l-.069.319-.127.6c-.042.2-.084.394-.129.587s-.092.381-.146.566a5.618,5.618,0,0,1-.184.538c-.069.172-.152.346-.24.517s-.186.338-.291.5c-.141.225-.292.448-.449.669l-1.1.667c-.21.128-.421.253-.633.386a5.628,5.628,0,0,0-.617.439c-.054.044-.105.089-.155.137a5.441,5.441,0,0,1-1.884.441c-.016,0-.016.013,0,.014a5.51,5.51,0,0,0,1.642-.2c-.045.052-.091.105-.133.159-.158.2-.3.4-.436.6s-.276.407-.425.6a3.559,3.559,0,0,1-.5.533c-.038.033-.015.062.026.032a3.617,3.617,0,0,0,.549-.5c.167-.183.322-.377.476-.569s.308-.382.472-.557c.083-.087.167-.172.256-.251a3,3,0,0,1,.278-.22,5.428,5.428,0,0,1,.616-.368c.215-.112.436-.221.656-.332l.308-.155c-.109.158-.217.317-.321.481a7.027,7.027,0,0,0-.586,1.113,5.29,5.29,0,0,0-.206.6c-.056.2-.1.407-.136.607s-.076.4-.121.592a3.9,3.9,0,0,1-.171.564,2.317,2.317,0,0,1-.278.511,1.679,1.679,0,0,1-.19.22c-.034.034-.072.065-.109.1l-.057.044c-.019.015-.041.027-.06.041a.409.409,0,0,0-.042.032.121.121,0,0,0-.026.031.059.059,0,0,0-.008.054.053.053,0,0,0,.047.025.133.133,0,0,0,.043,0,.2.2,0,0,0,.053-.021c.024-.013.047-.025.07-.04l.067-.042c.043-.031.087-.062.127-.1a1.829,1.829,0,0,0,.227-.223,2.5,2.5,0,0,0,.345-.531c.031-.062.058-.125.085-.188a4.581,4.581,0,0,0,.137.7,4.845,4.845,0,0,0,.72,1.513c.015.023.033.011.019-.013a4.783,4.783,0,0,1-.589-1.536,4.073,4.073,0,0,1-.024-1.471c.017-.062.034-.124.052-.185.054-.195.109-.387.176-.569a4.761,4.761,0,0,1,.234-.536,6.607,6.607,0,0,1,.629-.994c.474-.634,1.034-1.223,1.535-1.9.125-.169.246-.344.36-.524.061-.1.119-.195.176-.294.022.214.045.426.067.637a13.034,13.034,0,0,1,.1,2.262,6.023,6.023,0,0,1-.179,1.1,5.574,5.574,0,0,1-.395,1.053c-.082.17-.174.337-.269.5s-.2.327-.3.487c-.21.321-.434.633-.658.946-.045.063,0,.1.05.039.25-.294.5-.589.734-.9.119-.153.234-.309.345-.469s.218-.323.317-.492a5.912,5.912,0,0,0,.5-1.071c.064-.182.118-.367.163-.554a6.206,6.206,0,0,0,.586,1.172c.044.069.091.138.138.206-.109.391-.217.782-.329,1.17-.133.458-.273.914-.43,1.363-.077.225-.163.446-.251.668s-.185.438-.289.651c-.084.174.04.245.14.074.123-.208.236-.422.345-.637s.211-.435.308-.656c.143-.323.276-.651.4-.979,0,.091-.008.183-.009.275,0,.19,0,.382.017.571a5.9,5.9,0,0,0,.2,1.119,5.844,5.844,0,0,0,.406,1.052c.017.034.042.022.028-.013a5.819,5.819,0,0,1-.319-1.067,5.911,5.911,0,0,1-.108-1.1,6.5,6.5,0,0,1,.1-1.1c.05-.3.116-.591.185-.886.057.064.115.128.174.191s.133.137.2.2l.212.193.222.182c.075.058.153.114.229.17.031.023.047,0,.019-.025-.072-.061-.143-.123-.213-.185l-.2-.2-.193-.206c-.062-.071-.122-.144-.182-.215-.077-.1-.151-.193-.222-.292,0-.006,0-.012.005-.019a.319.319,0,0,0,0-.142c.193-.526.385-1.048.594-1.562.178-.439.369-.87.58-1.285.1-.208.218-.411.333-.61s.241-.392.374-.576l.049-.069.025-.034.026-.034.1-.135c.033-.045.07-.088.105-.132s.071-.087.108-.129l.113-.126c.037-.041.074-.083.114-.124l.118-.121c.02-.02.039-.041.06-.061l.045-.043A10.477,10.477,0,0,1-68.4,2.938c0,.252-.009.5-.031.753a6.672,6.672,0,0,1-.107.747,6.191,6.191,0,0,1-.2.73c-.02.059-.039.119-.063.179l-.068.177-.075.174c-.025.058-.054.115-.081.172a4.738,4.738,0,0,1-.874,1.243c-.072.074-.022.132.058.061a4.844,4.844,0,0,0,1-1.205c.033-.057.067-.113.1-.171l.093-.175.086-.178c.028-.059.053-.121.08-.181.047-.111.091-.224.132-.338.024.087.049.174.079.259a4.514,4.514,0,0,0,.4.863,6.62,6.62,0,0,0,.545.766c.064.079.129.155.2.231-.047.119-.1.239-.149.357-.2.459-.44.911-.674,1.369a14.416,14.416,0,0,0-.65,1.411,5.319,5.319,0,0,0-.355,1.515c-.008.105.077.112.093.01a5.165,5.165,0,0,1,.471-1.436c.135-.279.287-.55.446-.817,0,.034,0,.069,0,.1a4.43,4.43,0,0,0,.165,1.08,4.887,4.887,0,0,0,.4,1,4.429,4.429,0,0,0,.618.872c.024.027.046.008.024-.02a4.334,4.334,0,0,1-.531-.906,4.827,4.827,0,0,1-.306-.995,4.2,4.2,0,0,1-.066-1.025,3.121,3.121,0,0,1,.072-.5A2.114,2.114,0,0,1-67.4,8.6a.291.291,0,0,0,.02-.057c.189-.3.377-.609.552-.928.029-.052.056-.1.084-.155a.642.642,0,0,1,.044.049c.021.023.041.006.021-.019l-.049-.063c.089-.17.174-.344.251-.523a6.578,6.578,0,0,0,.275-.759,7.283,7.283,0,0,0,.265-1.592,10.1,10.1,0,0,0-.047-1.6A20.2,20.2,0,0,0-66.552.062q.129-.111.258-.225a9.07,9.07,0,0,0,1.071-1.11c.02-.025.041-.052.061-.079l.059-.079.06-.08c.02-.027.038-.054.057-.081l.112-.163.107-.165.028-.045c.038.087.079.173.12.258A7.963,7.963,0,0,0-63.546-.089,9.108,9.108,0,0,0-62.892.6l.17.162.174.157,0,0c0,.045-.009.09-.011.135s0,.064,0,.1c-.04.135-.084.269-.132.4A8.007,8.007,0,0,1-63.259,2.8c-.058.1-.116.2-.174.294l-.188.287-.2.278q-.1.136-.215.273a11.187,11.187,0,0,0-.88,1.163c-.066.107-.127.218-.183.331s-.105.227-.149.342a7.03,7.03,0,0,0-.227.7c-.129.465-.228.928-.369,1.377-.036.111-.074.222-.115.331s-.088.216-.139.321a3.412,3.412,0,0,1-.169.306l-.024.037-.024.036-.05.072c-.036.046-.069.094-.107.139-.059.073,0,.128.064.057.043-.042.082-.088.123-.133l.058-.07L-66.2,8.9l.027-.037a3.188,3.188,0,0,0,.2-.3c.063-.1.119-.212.173-.321s.1-.22.149-.331c.035-.083.067-.167.1-.252,0,.054.006.105.013.158a3.394,3.394,0,0,0,.193.788,6.747,6.747,0,0,0,.324.731c.012.024.031.015.022-.01a6.666,6.666,0,0,1-.257-.75,3.259,3.259,0,0,1-.119-.771,2.694,2.694,0,0,1,.1-.761,7.062,7.062,0,0,1,.248-.741.2.2,0,0,0,.015-.092,4.076,4.076,0,0,1,.48-.863A11.079,11.079,0,0,1-63.6,4.314c.084-.087.168-.176.25-.268l.243-.281.23-.292c.073-.1.144-.2.217-.3.118-.173.231-.351.337-.533.072.23.153.448.231.658s.158.427.227.634a5.709,5.709,0,0,1,.167.612,4.636,4.636,0,0,1,.075.549c-.165.193-.334.386-.5.58a15.415,15.415,0,0,0-1.062,1.317,6.486,6.486,0,0,0-.442.727,4.784,4.784,0,0,0-.326.785c-.034.11.054.138.1.034A4.626,4.626,0,0,1-63.48,7.8a6.7,6.7,0,0,1,.488-.664,15.36,15.36,0,0,1,1.149-1.2l.243-.232c0,.487-.029.993-.033,1.5,0,.193-.006.385-.007.578a.408.408,0,0,0-.046.1,5.29,5.29,0,0,1-.269.665,4.441,4.441,0,0,1-.369.612c-.017.025-.036.047-.052.071s-.034.047-.054.069c-.038.045-.075.091-.115.135-.079.089-.163.173-.252.256-.177.165-.369.32-.566.473s-.4.3-.6.465a5.629,5.629,0,0,0-.565.518l-.064.072-.032.036-.031.036-.061.073-.059.077-.029.038-.028.04-.055.079-.077.122-.024.043-.052.087-.042.087-.02.043-.019.045c-.012.029-.024.059-.035.089l-.03.091a.383.383,0,0,0-.014.046l-.011.046c-.008.031-.017.061-.022.093l-.017.094c-.009.051.032.057.045.009l.024-.09c.009-.029.02-.058.03-.087l.015-.044c.006-.014.013-.028.018-.042l.036-.086.042-.082.021-.041.023-.04.047-.079.052-.077.026-.038.028-.037.056-.073.059-.071.029-.036.031-.034.062-.068.1-.1.034-.031.068-.063a5.509,5.509,0,0,1,.585-.45c.071-.048.142-.095.214-.141a2.789,2.789,0,0,0-.234.753,2.792,2.792,0,0,0-.033.4c0,.133.005.264.013.393a5.258,5.258,0,0,1,.017.776c0,.026.019.029.023,0a5.329,5.329,0,0,0,.051-.78c0-.129.008-.257.02-.385a2.537,2.537,0,0,1,.064-.374,2.585,2.585,0,0,1,.608-1.127c.174-.114.347-.234.516-.366.1-.08.2-.163.3-.255.049-.044.1-.092.142-.14.024-.023.046-.049.068-.073s.046-.05.066-.075a5.008,5.008,0,0,0,.345-.453c.005.336.015.672.027,1.008q.05,1.385.174,2.765c.016.186.167.179.167-.008q0-.937.028-1.871a5.675,5.675,0,0,0,.382.773,5.423,5.423,0,0,0,1.218,1.424c.024.02.041,0,.019-.02a5.364,5.364,0,0,1-1.568-3.233.091.091,0,0,0,0-.019q.069-1.277.2-2.548c.023-.228.05-.455.077-.682.014-.123.029-.246.043-.369.073.128.15.255.229.379.05.076.1.153.149.227l.077.112.077.111c.051.074.1.146.158.22.026.036.054.072.082.109s.056.074.085.109a9.751,9.751,0,0,0,.728.8,20.645,20.645,0,0,1,1.458,1.512c.055.066.107.136.159.2s.1.139.149.212.093.146.139.218.087.149.125.227c.02.038.041.077.058.117s.036.078.054.117l.049.121c.017.04.029.082.044.123a2.953,2.953,0,0,1,.127.505c.011.069.069.065.063-.008a2.906,2.906,0,0,0-.085-.529c-.011-.043-.02-.087-.034-.13l-.04-.129c-.014-.043-.03-.084-.045-.126s-.032-.084-.049-.126c-.033-.083-.072-.165-.11-.246s-.08-.162-.125-.239-.089-.156-.135-.234-.1-.153-.146-.226-.1-.148-.155-.22-.107-.144-.162-.215-.13-.165-.2-.246a4.845,4.845,0,0,0,.881.3,4.8,4.8,0,0,0,1.779.091c.03,0,.027-.028,0-.026a4.736,4.736,0,0,1-3.23-1.068.293.293,0,0,0-.054-.034c-.068-.079-.135-.158-.2-.238a9.359,9.359,0,0,1-.623-.821c-.024-.035-.046-.071-.069-.107s-.045-.071-.068-.108c-.044-.074-.089-.148-.133-.223l-.064-.112-.063-.112c-.042-.075-.082-.151-.122-.227a8.891,8.891,0,0,1-.419-.93q-.1-.261-.183-.528c.021-.023.042-.046.063-.07l.072-.081c.025-.027.047-.055.07-.083.047-.056.093-.111.139-.168.088-.114.178-.229.262-.348s.163-.239.245-.359.153-.246.224-.374c.029-.047.056-.1.082-.144.487.353.963.715,1.412,1.108A9.093,9.093,0,0,1-58,7.223c-.011.116.081.133.1.016a9.3,9.3,0,0,0,.153-2.576l.008.008.158.155.079.079.076.08c.05.054.1.106.153.162l.147.165.036.042.036.043.071.085c.1.112.183.231.273.349.044.06.085.121.128.181.021.031.043.061.063.091l.059.094.06.094c.02.032.041.062.057.094l.11.193c.009.016.019.032.027.049l.026.05.028.056-.011.018c-.174.255-.359.5-.551.746-.019.025,0,.041.021.019.2-.218.405-.441.6-.674l.017.034c.017.033.031.067.046.1l.089.2.079.209c.042.113.137.087.1-.033l-.061-.22-.073-.216c-.013-.036-.024-.073-.038-.108l-.045-.1,0-.011a6.378,6.378,0,0,0,.45-.647,4.442,4.442,0,0,0,.4-.863c.032-.094.061-.19.086-.287q.065.185.142.366c.026.061.051.122.08.181l.086.178.093.175c.031.058.066.114.1.172a5,5,0,0,0,.843,1.066c-.027.149-.06.3-.1.444l-.067.239-.079.236c-.025.079-.056.156-.087.234s-.064.155-.1.231c-.137.307-.292.612-.444.92l-.912,1.843c-.031.063.019.089.055.03l1.068-1.757.125-.206a3.754,3.754,0,0,0,.053.868,3.381,3.381,0,0,0,.664,1.5c.016.022.034.009.02-.015a3.292,3.292,0,0,1-.518-1.507,3.537,3.537,0,0,1,.206-1.552l.009-.028c.032-.059.064-.119.095-.179.04-.079.08-.157.114-.239l.106-.244.093-.248a7.574,7.574,0,0,0,.278-1.024,10.043,10.043,0,0,0,.145-1.046l.011-.132c0-.043.007-.088.009-.132l.017-.262c0-.088.008-.175.011-.263q.095.219.185.439c.209.513.4,1.036.594,1.562a.32.32,0,0,0,0,.142c0,.006,0,.012,0,.019-.071.1-.144.2-.221.292-.061.072-.121.144-.183.215l-.193.206-.2.2c-.07.063-.142.124-.213.186-.029.025-.012.047.019.024.076-.056.153-.112.229-.17l.221-.182.212-.193c.068-.066.135-.135.2-.2s.117-.127.174-.192c.07.3.135.59.186.886a6.509,6.509,0,0,1,.1,1.1,5.819,5.819,0,0,1-.108,1.1,5.813,5.813,0,0,1-.319,1.066c-.014.036.011.047.028.013a5.925,5.925,0,0,0,.407-1.052,6,6,0,0,0,.2-1.118q.023-.285.018-.572,0-.138-.01-.274c.128.328.262.656.4.979.1.221.2.439.308.656s.222.43.346.637c.1.17.223.1.139-.074-.1-.213-.2-.432-.289-.651s-.172-.443-.251-.667c-.158-.449-.3-.9-.43-1.363-.112-.388-.22-.778-.329-1.17.047-.067.093-.136.139-.206A6.11,6.11,0,0,0-50.966,5.2c.046.187.1.372.164.554a5.847,5.847,0,0,0,.5,1.071c.1.169.206.333.317.493s.226.315.345.469c.237.306.485.6.734.9.05.06.1.025.05-.039-.225-.312-.449-.624-.658-.945q-.158-.24-.3-.487c-.1-.165-.187-.331-.269-.5a5.526,5.526,0,0,1-.395-1.053,5.968,5.968,0,0,1-.179-1.1,13.079,13.079,0,0,1,.1-2.262c.022-.211.045-.424.068-.637.056.1.114.2.176.294.114.181.235.355.359.525.5.676,1.061,1.264,1.535,1.9a6.709,6.709,0,0,1,.63.994,4.985,4.985,0,0,1,.233.536c.066.183.123.374.176.569.017.061.034.123.052.185a4.059,4.059,0,0,1-.025,1.471,4.747,4.747,0,0,1-.589,1.537c-.014.024,0,.036.019.012a4.829,4.829,0,0,0,.719-1.513,4.521,4.521,0,0,0,.137-.7c.027.063.055.126.085.188a2.562,2.562,0,0,0,.345.531,1.966,1.966,0,0,0,.227.223c.04.035.084.066.127.1l.068.043c.022.014.046.026.069.04a.173.173,0,0,0,.053.02.161.161,0,0,0,.043.005.051.051,0,0,0,.047-.026.059.059,0,0,0-.008-.054.18.18,0,0,0-.026-.031c-.011-.01-.025-.02-.042-.032s-.041-.026-.059-.041l-.058-.043c-.036-.031-.074-.062-.109-.1a1.822,1.822,0,0,1-.19-.219,2.374,2.374,0,0,1-.278-.511,3.956,3.956,0,0,1-.171-.564c-.045-.194-.082-.391-.121-.591s-.08-.4-.137-.608a5.332,5.332,0,0,0-.206-.6A7.1,7.1,0,0,0-48,4.081c-.1-.164-.211-.324-.321-.482l.308.155c.22.111.441.22.656.333a5.436,5.436,0,0,1,.616.368,3.046,3.046,0,0,1,.278.22c.089.078.174.163.255.25.165.176.319.366.472.557s.308.385.476.569a3.656,3.656,0,0,0,.55.5c.04.03.061,0,.025-.032a3.553,3.553,0,0,1-.5-.533c-.15-.193-.287-.4-.426-.6s-.278-.408-.435-.6c-.044-.054-.088-.107-.134-.159a5.514,5.514,0,0,0,1.642.2c.017,0,.017-.012,0-.013a5.446,5.446,0,0,1-1.884-.442c-.05-.047-.1-.093-.154-.137a5.811,5.811,0,0,0-.617-.439c-.212-.133-.423-.257-.633-.386l-1.1-.668c-.156-.222-.308-.444-.449-.669q-.155-.25-.291-.5c-.088-.17-.171-.344-.24-.516a5.63,5.63,0,0,1-.184-.539c-.054-.185-.1-.373-.146-.565s-.086-.388-.129-.587l-.127-.6c-.022-.107-.046-.213-.069-.319q.269.306.54.622c.167.193.335.386.509.578s.354.382.541.567A7.622,7.622,0,0,0-47.727,1.23l.174.105q.043.026.088.05l.089.049c.059.033.119.063.179.092l.09.044.091.041c.121.055.243.108.365.156a.4.4,0,0,0,.148.111,3.714,3.714,0,0,1,1.124.823,3.923,3.923,0,0,1,.432.564c.131.2.252.419.381.634.064.108.13.215.2.321s.144.209.225.309l0,0c.043.1.088.2.132.294a1.789,1.789,0,0,1,.1.287,1.674,1.674,0,0,1,.048.3c0,.026,0,.052,0,.079l0,.08c0,.054,0,.107.005.159a2.517,2.517,0,0,1-.066.625,2.992,2.992,0,0,1-.215.6c-.009.02.005.027.016.008a3.046,3.046,0,0,0,.265-.588,2.561,2.561,0,0,0,.119-.64c0-.055.006-.109.008-.162l0-.081c0-.027,0-.055,0-.082a1.906,1.906,0,0,0-.026-.333,1.462,1.462,0,0,0-.036-.158c.056.051.113.1.171.149a7.35,7.35,0,0,0,1.269.795c.045.023.063-.009.02-.036a7.263,7.263,0,0,1-1.184-.878,3.537,3.537,0,0,1-.441-.508.169.169,0,0,0-.044-.064c-.061-.092-.119-.188-.174-.285s-.114-.215-.169-.325c-.109-.22-.214-.446-.333-.671a4.407,4.407,0,0,0-.421-.651c-.065-.082-.134-.162-.206-.239.162.044.322.085.483.126.493.126.982.241,1.464.375.241.067.48.139.716.218s.468.167.7.267a5.593,5.593,0,0,1,.661.337,4.591,4.591,0,0,1,.6.43c.152.13.261.026.112-.123a4.9,4.9,0,0,0-.594-.5c-.135-.1-.274-.185-.417-.269h.155a5.546,5.546,0,0,0,.735-.059,5.313,5.313,0,0,0,.716-.165l.174-.058c.029-.009.057-.02.086-.032l.085-.034c.115-.042.223-.1.333-.148.022-.01.015-.026-.008-.019-.114.042-.225.088-.341.121l-.086.027-.087.025-.175.043a4.956,4.956,0,0,1-.711.105,5.444,5.444,0,0,1-.714,0,6.4,6.4,0,0,1-.678-.084c-.139-.068-.28-.132-.421-.193-.236-.1-.475-.193-.715-.281-.48-.175-.963-.331-1.44-.493-.238-.081-.474-.163-.708-.25s-.462-.179-.687-.276-.442-.2-.651-.321c-.026-.015-.054-.029-.079-.044l-.154-.091C-46.956.829-46.98.813-47,.8L-47.078.75C-47.1.734-47.127.718-47.151.7l-.143-.1a6.111,6.111,0,0,1-.537-.462c-.042-.042-.086-.082-.127-.126l-.125-.129L-48.2-.252c-.041-.044-.08-.091-.12-.137-.158-.183-.312-.374-.462-.568s-.3-.4-.448-.6c-.3-.4-.6-.82-.928-1.229-.165-.2-.338-.407-.522-.6-.143-.155-.3-.305-.455-.451-.1-.334-.216-.669-.344-1-.044-.112-.088-.225-.135-.336q.3.139.61.255c.248.094.5.178.747.255.125.039.249.074.374.111l.372.1c.495.137.985.264,1.465.412.239.074.477.153.709.241.077.027.151.057.226.087a4.677,4.677,0,0,0,.022.5c0,.047.01.094.016.142l.01.071,0,.035.007.036.026.141c.005.023.008.047.015.07l.017.07.036.138c.013.045.028.091.043.136v0a4.267,4.267,0,0,1-.016,1.281A5.116,5.116,0,0,1-47.36.285c-.011.022.005.031.017.009a5.156,5.156,0,0,0,.54-1.353,4.8,4.8,0,0,0,.117-.736l.038.075c.022.041.041.084.066.124a5.82,5.82,0,0,0,.636.914A7.688,7.688,0,0,0-45.168.1c.056.05.093.01.041-.044a7.527,7.527,0,0,1-.7-.829,5.588,5.588,0,0,1-.544-.928c-.02-.041-.036-.082-.053-.123l-.051-.123-.044-.125c-.015-.042-.031-.083-.043-.126-.024-.085-.052-.169-.069-.255-.01-.043-.02-.085-.029-.128l-.022-.129a3.743,3.743,0,0,1-.041-.829l.069.033.166.082c.055.027.109.058.163.087l.081.044c.027.015.052.032.079.048l.158.1c.208.133.41.281.61.435.172.133.345.272.519.409A4.927,4.927,0,0,1-43.986.071c0,.022.019.022.019,0a5.037,5.037,0,0,0-.485-2.046c.091.067.183.132.277.195A4.718,4.718,0,0,0-43.5-1.4a3.53,3.53,0,0,0,.365.137,2.657,2.657,0,0,0,.379.088c.1.015.115-.059.016-.082a2.673,2.673,0,0,1-.358-.113,3.217,3.217,0,0,1-.339-.159,4.382,4.382,0,0,1-.622-.419c-.395-.312-.753-.669-1.135-1.014-.19-.173-.388-.344-.6-.5l-.16-.116c-.027-.019-.053-.039-.08-.057l-.082-.054c-.056-.036-.11-.073-.167-.108l-.169-.1c-.056-.035-.114-.066-.172-.1l-.063-.034c.031-.264.073-.532.109-.8q.038-.275.061-.559c.014-.168.019-.338.017-.511.152.155.307.311.466.465.066.063.132.127.2.188s.135.125.2.187c.034.031.068.059.1.089l.1.088.2.176c.272.234.553.468.85.687.149.109.3.216.46.315s.321.195.488.28c.116.059.232.113.352.163a3.22,3.22,0,0,1,.381.336,7.318,7.318,0,0,1,.538.633c.174.223.347.455.534.681a5.221,5.221,0,0,0,.612.642c.045.039.091.077.139.114A13.326,13.326,0,0,1-40.191.381a5.085,5.085,0,0,1,.448,1.432c0,.025.022.024.02,0A5.144,5.144,0,0,0-40.062.327c-.114-.306-.246-.6-.384-.9.057.034.115.068.174.1a5.669,5.669,0,0,0,.8.349A13.6,13.6,0,0,0-37.8.313c.057.012.067-.029.011-.045A13.342,13.342,0,0,1-39.4-.291a5.354,5.354,0,0,1-.743-.395,3.746,3.746,0,0,1-.643-.518,4.985,4.985,0,0,1-.522-.644c-.161-.229-.312-.47-.472-.711-.081-.124-.165-.248-.253-.371.245.057.49.1.734.14.358.054.714.093,1.069.125.708.066,1.41.112,2.1.227a7.338,7.338,0,0,1,1.015.242,4.769,4.769,0,0,1,.953.421c.122.071.183-.015.063-.1a4.944,4.944,0,0,0-.947-.511,7.647,7.647,0,0,0-1.025-.331l-.208-.05a2.485,2.485,0,0,0,.543-.213,2.376,2.376,0,0,0,.808-.7c.011-.014,0-.022-.011-.009a2.347,2.347,0,0,1-1.843.817c-.464-.09-.928-.162-1.386-.241-.347-.06-.691-.125-1.027-.2a7.987,7.987,0,0,1-.981-.291,5.258,5.258,0,0,1-.9-.434c-.141-.087-.276-.182-.41-.281s-.264-.208-.391-.317c-.23-.2-.452-.412-.672-.634a5.387,5.387,0,0,0,.556-.027,5.522,5.522,0,0,0,1.285-.287,5.507,5.507,0,0,0,.782-.344l.007,0a4.188,4.188,0,0,1,.969-.282,2.29,2.29,0,0,1,.5-.008,3.459,3.459,0,0,1,.5.086c.017,0,.02-.008,0-.014a3.582,3.582,0,0,0-.5-.126,2.388,2.388,0,0,0-.519-.033,2.779,2.779,0,0,0-.442.058,5.06,5.06,0,0,0,.855-.744c.03-.031.007-.054-.025-.024a4.971,4.971,0,0,1-1.033.741c-.115.063-.233.12-.352.174l-.019.005a.162.162,0,0,0-.05.025,5.449,5.449,0,0,1-.752.261,5.284,5.284,0,0,1-1.237.176,5.037,5.037,0,0,1-.967-.074l-.009-.01c-.059-.061-.116-.123-.174-.186s-.114-.126-.172-.19c-.454-.516-.893-1.074-1.374-1.619q-.25-.284-.517-.562c-.018-.02-.036-.04-.054-.058s-.022-.02-.033-.03c-.05-.051-.1-.1-.152-.153-.091-.089-.185-.178-.28-.265l.306.075.839.212c.285.07.571.14.865.2.073.014.146.031.22.044l.223.04c.073.015.149.025.225.036s.15.023.225.033c.3.036.6.064.9.075A15.542,15.542,0,0,0-42.16-8.1c.349-.025.694-.057,1.038-.093a2.926,2.926,0,0,1,.795.24,4.7,4.7,0,0,1,.791.469,8.313,8.313,0,0,1,.731.6c.236.216.463.443.69.676a18.591,18.591,0,0,0,1.354,1.3.232.232,0,0,0,.037.064,3.845,3.845,0,0,1,.4.555,3.157,3.157,0,0,1,.259.635,7.4,7.4,0,0,1,.273,1.374c0,.024.02.022.019,0a7.474,7.474,0,0,0-.167-1.405,3.307,3.307,0,0,0-.22-.687c-.021-.045-.044-.089-.068-.133.114.076.231.149.352.215a3.838,3.838,0,0,0,.914.367c.064.018.077-.028.015-.051a3.776,3.776,0,0,1-.861-.427,5.361,5.361,0,0,1-.718-.575.054.054,0,0,0-.009-.012.189.189,0,0,0-.069-.063,17.555,17.555,0,0,1-1.245-1.394,11.724,11.724,0,0,0-1.37-1.441,5.631,5.631,0,0,0-.605-.452c.37-.043.741-.084,1.109-.118.568-.055,1.135-.091,1.7-.093.142,0,.283,0,.424.006.071,0,.141.006.212.01l.211.013.211.019.105.01.1.014.21.027c.07.01.139.024.208.035l.1.017.052.009.259.057c.07.014.137.034.206.052s.137.036.2.056l.2.066.1.033c.033.011.066.025.1.038l.2.077a1.012,1.012,0,0,1,.1.042l.1.044c.209.094.294-.055.085-.17l-.1-.053c-.032-.018-.064-.036-.1-.051l-.2-.1-.1-.047-.1-.043-.2-.084-.207-.075c-.069-.025-.138-.052-.208-.071l-.211-.064L-35.1-8.7l-.053-.014-.107-.027c-.072-.017-.142-.038-.214-.053l-.215-.046-.074-.015c.287-.056.575-.117.861-.188A9.634,9.634,0,0,0-33.786-9.4h0a5.214,5.214,0,0,0,1.033-.548c.033-.022.017-.045-.017-.027M-72.684-5.668h0c-.222.105-.449.2-.679.294-.115.046-.234.089-.351.135s-.236.087-.356.13c-.476.173-.962.342-1.444.534-.241.1-.481.2-.717.308l-.045.02c-.011-.216-.026-.429-.038-.639-.01-.181-.016-.358-.016-.534a5.076,5.076,0,0,1,.026-.517,3.635,3.635,0,0,1,.091-.5c.019-.072.039-.144.061-.215q.149-.15.3-.3c.247-.239.5-.469.755-.684a9.2,9.2,0,0,1,.794-.6,7.135,7.135,0,0,1,1.733-.854.031.031,0,0,1,.011,0c.191.023.384.053.577.089.262.048.526.11.792.176.513.13,1.036.286,1.575.442-.072.068-.143.136-.211.206a8.42,8.42,0,0,0-.858,1.029c-.041.058-.081.116-.121.176a4.6,4.6,0,0,1-.637.571,7.379,7.379,0,0,1-1.243.73m3.521,6.7h0l-.063.071-.061.072-.122.146c-.041.047-.079.1-.118.149l-.116.152c-.038.051-.073.1-.11.156s-.073.1-.107.158l-.1.16-.026.04-.024.041-.049.082c-.131.215-.246.438-.358.661s-.211.45-.3.678c-.188.455-.35.917-.5,1.379-.142.446-.271.895-.4,1.342-.01-.018-.02-.036-.029-.054a5.838,5.838,0,0,1-.624-1.861c.016-.132.03-.264.04-.395.014-.2.025-.394.029-.59.01-.393,0-.783-.008-1.17-.02-.772-.047-1.532.008-2.273,0-.013,0-.026,0-.04l.1-.341.174-.584c.116-.388.232-.773.356-1.152q.149-.461.314-.909a4.31,4.31,0,0,1,.492-.308l.036-.02.038-.019.074-.036c.05-.024.1-.05.149-.073l.155-.066.078-.034.08-.029.161-.061c.054-.02.111-.037.165-.056l.084-.028.041-.014.043-.013.171-.052.174-.05.155-.043a5.27,5.27,0,0,0-.094.7,6.392,6.392,0,0,0,0,.835c.019.275.052.543.1.808.087.529.209,1.039.324,1.539.045.2.091.4.132.594-.154.162-.312.329-.465.5m-.045-6.5h0c-.366.128-.749.264-1.133.427l.031-.054c.046-.083.1-.162.146-.243a8.269,8.269,0,0,1,.656-.907,6.024,6.024,0,0,1,1.628-1.4,1.431,1.431,0,0,0,.311-.234c.232.041.469.075.713.1a7.531,7.531,0,0,0,1,.031h.043c-.029.04-.056.08-.086.119a5.566,5.566,0,0,1-.868.972c-.039.033-.078.068-.119.1s-.08.064-.123.093c-.086.058-.167.121-.261.172-.046.027-.091.056-.138.082l-.145.077-.073.039-.076.036-.153.072c-.414.189-.875.349-1.355.517M-66.818,6h0l-.039.179c-.014.059-.03.117-.045.177-.031.118-.066.235-.105.352-.027.082-.057.164-.087.246-.049-.067-.1-.135-.143-.2A6.569,6.569,0,0,1-67.7,5.96a4.241,4.241,0,0,1-.312-.849,3.918,3.918,0,0,1-.112-.886.27.27,0,0,0-.005-.051,8.162,8.162,0,0,0,.181-1.218,11.306,11.306,0,0,0-.005-1.584c0-.046-.007-.093-.011-.139.153-.132.31-.262.47-.393a17.453,17.453,0,0,1,.622,2.248,9.208,9.208,0,0,1,.171,1.461A6.525,6.525,0,0,1-66.818,6M-64.826-5.84c-.128.464-.25.923-.383,1.366a12.746,12.746,0,0,1-.449,1.283,6.673,6.673,0,0,1-.61,1.153,7.846,7.846,0,0,1-.848,1.027c-.314.328-.656.649-1,.979-.008-.053-.016-.107-.024-.16-.077-.513-.155-1.016-.2-1.512-.02-.248-.031-.493-.028-.734a5.319,5.319,0,0,1,.054-.711,3.789,3.789,0,0,1,.335-1.119c.11-.031.222-.066.333-.1.032-.009.064-.02.1-.031l.1-.033c.066-.022.13-.042.2-.066l.2-.074.1-.038.1-.042.2-.086.2-.1c.131-.062.26-.14.389-.215.066-.036.128-.079.19-.119s.123-.085.183-.128a6.383,6.383,0,0,0,.672-.567c.1-.1.2-.2.295-.3Zm7.3-1.906h0a7.739,7.739,0,0,0,1-.031c.244-.024.481-.058.713-.1a1.409,1.409,0,0,0,.311.234,6.06,6.06,0,0,1,1.628,1.4,8.267,8.267,0,0,1,.656.907c.05.08.1.16.146.243l.031.054c-.383-.163-.766-.3-1.133-.427-.48-.168-.941-.327-1.356-.515l-.152-.072-.077-.036-.073-.038-.145-.077c-.047-.027-.091-.055-.137-.082-.094-.052-.176-.115-.262-.172-.043-.028-.082-.061-.123-.093s-.08-.066-.12-.1a5.59,5.59,0,0,1-.868-.972c-.029-.04-.057-.08-.086-.119a.338.338,0,0,1,.044,0m-4.83,7.427c0,.02,0,.04-.005.059q-.19-.231-.361-.472a6.8,6.8,0,0,1-.8-1.46,4.537,4.537,0,0,1-.324-1.543c0-.019,0-.038,0-.057.026-.063.05-.125.074-.187.179-.463.34-.919.5-1.368l.674-1.868c.007.035.014.07.02.105l.013.073c0,.025.008.049.011.072.016.1.026.186.034.276s.011.171.011.253a2.362,2.362,0,0,1-.017.244c-.01.086-.026.18-.046.28s-.044.206-.069.319-.054.232-.08.359-.052.26-.07.4c-.009.07-.017.141-.024.211s-.012.14-.013.209a5.641,5.641,0,0,0,.026.8,14.162,14.162,0,0,0,.243,1.436,10.147,10.147,0,0,1,.2,1.27A3.8,3.8,0,0,1-62.355-.319Zm2.11,3.337c-.054.123-.117.242-.177.363s-.127.237-.2.352-.141.229-.213.342c-.011.017-.023.034-.036.051-.026-.153-.056-.3-.091-.447-.057-.236-.12-.464-.18-.685s-.118-.436-.165-.645c-.035-.163-.064-.322-.083-.477q.323.241.647.473c.2.144.4.287.6.428C-60.172,2.857-60.208,2.938-60.246,3.019Zm.361-.911h0c-.134-.113-.268-.227-.4-.341q-.342-.291-.672-.589c-.119-.108-.237-.216-.353-.326.022-.085.046-.172.072-.262a7.469,7.469,0,0,0,.178-.729A5.021,5.021,0,0,0-60.993-.8c.063.088.128.176.193.26.366.477.755.9,1.086,1.349q.068.09.132.182a10.349,10.349,0,0,1-.3,1.113M-59.4-.08h0c0,.02,0,.039-.008.058-.235-.347-.475-.678-.687-1.011-.076-.117-.146-.234-.215-.352s-.13-.236-.185-.354a3.568,3.568,0,0,1-.149-.36l-.033-.091c-.011-.03-.019-.062-.029-.093-.019-.063-.038-.124-.055-.186a5.553,5.553,0,0,1-.137-.774,7.771,7.771,0,0,1-.031-.8c.005-.271.022-.545.046-.82q.035-.369.085-.743c.022-.084.045-.17.064-.261a3.967,3.967,0,0,0,.071-.441c.014-.149.022-.295.022-.436v-.078l.044.124.488,1.354c.163.449.323.905.5,1.368q.105.273.222.548a.869.869,0,0,0,0,.122A14.977,14.977,0,0,1-59.4-.08m.832,3.33h0c-.113-.1-.225-.2-.34-.3s-.241-.212-.363-.317c.011-.024.022-.046.032-.07.062-.132.116-.266.174-.4.026-.066.052-.133.079-.2a8.931,8.931,0,0,1,.616,1.475c-.065-.062-.132-.123-.2-.185m3.3.973h0a3.865,3.865,0,0,1-.111.887,4.3,4.3,0,0,1-.312.849,6.037,6.037,0,0,1-.339.6l0-.011L-56.06,6.5l-.1-.208c-.015-.036-.034-.069-.051-.1l-.106-.2c-.019-.034-.038-.066-.057-.1-.039-.066-.076-.133-.116-.2-.082-.129-.162-.261-.251-.385L-56.8,5.2l-.033-.047-.034-.046-.138-.185c-.046-.061-.1-.119-.142-.18l-.072-.09c-.024-.03-.05-.058-.074-.087l-.149-.175-.154-.171c-.074-.081-.149-.16-.225-.239A9.609,9.609,0,0,0-58.1,2.746a4.938,4.938,0,0,0,.666.524,5.005,5.005,0,0,0,.92.476c.081.029.162.059.243.087l.246.074.25.058c.083.016.168.029.252.044.034.006.039-.022.006-.03-.082-.022-.164-.042-.245-.065L-56,3.835l-.235-.093c-.077-.034-.153-.07-.229-.1a4.764,4.764,0,0,1-.846-.534A4.646,4.646,0,0,1-58.386,1.9c-.1-.251-.209-.5-.33-.739,0-.008,0-.014.007-.022l.031-.1.029-.105c.08-.279.146-.561.206-.844q.148-.712.226-1.433l0,0c.02.027.04.053.061.079a9.113,9.113,0,0,0,1.071,1.11c.374.333.754.636,1.122.937.186.152.369.3.548.457,0,.046-.008.093-.011.139a11.124,11.124,0,0,0-.006,1.585,8.361,8.361,0,0,0,.173,1.185.233.233,0,0,0-.014.081m.227-5.927h0c-.041.5-.119,1-.2,1.512-.008.053-.015.107-.024.16-.347-.331-.688-.652-1-.98a7.855,7.855,0,0,1-.848-1.027,6.692,6.692,0,0,1-.61-1.153,12.906,12.906,0,0,1-.449-1.283c-.133-.443-.255-.9-.383-1.366l-.088-.324q.142.152.295.3a6.387,6.387,0,0,0,.672.567c.061.043.121.088.184.128s.125.084.19.119c.129.075.257.154.389.215.066.033.131.066.2.1l.2.086.1.043.1.038.2.074c.066.025.13.044.2.066l.1.033.1.031c.111.033.223.068.333.1a3.764,3.764,0,0,1,.335,1.119,5.334,5.334,0,0,1,.054.711c0,.241-.008.487-.029.734m1.477,7.209a9.456,9.456,0,0,1-.051,1h0q-.023.2-.057.406a4.893,4.893,0,0,1-.683-1.038c-.027-.057-.056-.113-.081-.171l-.075-.174-.068-.177c-.023-.059-.042-.119-.063-.179a6.441,6.441,0,0,1-.2-.73,6.536,6.536,0,0,1-.107-.747c-.022-.25-.032-.5-.031-.753a10.242,10.242,0,0,1,.087-1.234l.045.043.06.061.118.121c.041.04.077.082.114.124l.113.125c.037.043.072.087.108.13s.072.086.105.132l.1.135.026.034.025.035.049.069c.128.176.243.363.358.551a.555.555,0,0,0-.02.223Q-53.633,4-53.6,4.5c.012.168.019.335.026.5l.007.251c0,.042,0,.084,0,.125Zm2.1-6.492h0l.174.584q.05.17.1.341c0,.013,0,.027,0,.04a22.66,22.66,0,0,1,.008,2.274c-.01.386-.018.776-.008,1.169,0,.2.015.394.029.59q.015.2.04.395a5.8,5.8,0,0,1-.624,1.861c-.009.018-.02.036-.029.054-.125-.448-.254-.9-.4-1.342-.146-.463-.308-.923-.5-1.379-.093-.228-.2-.453-.3-.678s-.227-.445-.358-.661l-.049-.082-.024-.041-.026-.04-.1-.16c-.033-.054-.071-.105-.108-.158s-.072-.105-.11-.156l-.116-.152c-.039-.05-.077-.1-.118-.149l-.122-.146-.061-.072-.063-.07c-.153-.173-.311-.34-.47-.5.041-.2.086-.395.132-.594.115-.5.237-1.011.324-1.539.044-.264.077-.534.1-.808a6.285,6.285,0,0,0,0-.835,5.334,5.334,0,0,0-.094-.7l.155.043.174.05.171.052.043.013.041.014.083.028c.056.019.112.036.165.056l.16.061.08.029.077.033.155.066c.052.022.1.049.149.073l.074.036.038.019.036.02a4.66,4.66,0,0,1,.492.308c.11.3.215.6.313.909.128.379.246.764.361,1.152m3.931-5.96h0q.151.147.3.3c.022.072.043.144.061.216a3.662,3.662,0,0,1,.091.5,5.1,5.1,0,0,1,.027.517c0,.176-.006.353-.017.534-.011.21-.026.423-.038.639l-.044-.02c-.236-.112-.477-.213-.718-.308-.481-.191-.967-.361-1.444-.534-.119-.042-.238-.087-.356-.13s-.236-.089-.35-.135c-.231-.092-.458-.19-.68-.294a7.4,7.4,0,0,1-1.243-.73,4.531,4.531,0,0,1-.638-.571c-.04-.058-.08-.117-.121-.176a8.213,8.213,0,0,0-.858-1.029c-.069-.07-.14-.138-.211-.206.539-.156,1.061-.312,1.575-.441.266-.066.53-.128.792-.176.193-.036.386-.066.577-.089l.01,0a7.066,7.066,0,0,1,1.733.854,9.13,9.13,0,0,1,.794.6c.258.215.508.445.755.684" transform="translate(90.653 27.598)" fill="#ff0070"/>
        </g>
      </g>
    </g>
    <g id="novas_capacidades-2" data-name="novas_capacidades" transform="translate(178.341 519.67)">
      <path id="Caminho_9102" data-name="Caminho 9102" d="M19.853,35.553a2.382,2.382,0,0,0-1.841.87V31.8H8.223A2.483,2.483,0,0,0,5.74,34.3v9.79h4.544a2.4,2.4,0,1,1,3.187,0h4.541V39.439a2.379,2.379,0,1,0,1.841-3.886Z" transform="translate(-5.74 -24.764)" fill="none" stroke="#f4f4f4" stroke-linecap="round" stroke-linejoin="round" stroke-width="2"/>
      <path id="Caminho_9103" data-name="Caminho 9103" d="M10.284,77H5.74v9.79a2.48,2.48,0,0,0,2.483,2.48h9.79V84.728a2.4,2.4,0,1,1,0-3.187V77H13.471" transform="translate(-5.74 -57.673)" fill="none" stroke="#f4f4f4" stroke-linecap="round" stroke-linejoin="round" stroke-width="2"/>
      <path id="Caminho_9104" data-name="Caminho 9104" d="M50.87,84.718v4.541h9.79a2.48,2.48,0,0,0,2.483-2.469V77H58.6a2.4,2.4,0,1,1-3.187,0H50.87v4.53" transform="translate(-38.597 -57.673)" fill="none" stroke="#f4f4f4" stroke-linecap="round" stroke-linejoin="round" stroke-width="2"/>
      <path id="Caminho_9105" data-name="Caminho 9105" d="M78.881,7.718a2.483,2.483,0,0,0-3.065-1.694L66.41,8.743,67.658,13.1a2.4,2.4,0,1,1,.884,3.062l1.265,4.365L74.065,19.3a2.431,2.431,0,1,0,3.285-.946L81.6,17.127Z" transform="translate(-49.912 -5.928)" fill="none" stroke="#f4f4f4" stroke-linecap="round" stroke-linejoin="round" stroke-width="2"/>
    </g>
    <g id="novas_experiencias" transform="translate(257.245 473.368)">
      <path id="Caminho_9106" data-name="Caminho 9106" d="M53.317,13.074l2.13-1.31,2.129,1.31-.543-2.5,1.855-1.694-2.46-.238-.981-2.356L54.465,8.64,52,8.878l1.86,1.694Z" transform="translate(-37.078 -6.284)" fill="#f4f4f4"/>
      <path id="Caminho_9107" data-name="Caminho 9107" d="M84.317,21.074l2.129-1.31,2.13,1.31-.543-2.5,1.855-1.694-2.46-.238-.981-2.356-.981,2.356L83,16.878l1.86,1.694Z" transform="translate(-59.182 -11.988)" fill="#f4f4f4"/>
      <path id="Caminho_9108" data-name="Caminho 9108" d="M110.887,39.878l-2.46-.238-.981-2.356-.981,2.356L104,39.878l1.86,1.694-.543,2.5,2.129-1.31,2.13,1.31-.543-2.5Z" transform="translate(-74.156 -28.388)" fill="#f4f4f4"/>
      <path id="Caminho_9109" data-name="Caminho 9109" d="M22.317,21.074l2.129-1.31,2.13,1.31-.543-2.5,1.855-1.694-2.46-.238-.981-2.356-.981,2.356L21,16.878l1.861,1.694Z" transform="translate(-14.974 -11.988)" fill="#f4f4f4"/>
      <path id="Caminho_9110" data-name="Caminho 9110" d="M6.887,39.878l-2.46-.238-.981-2.356L2.465,39.64,0,39.878l1.861,1.694-.544,2.5,2.129-1.31,2.13,1.31-.543-2.5Z" transform="translate(0 -28.388)" fill="#f4f4f4"/>
      <path id="Caminho_9111" data-name="Caminho 9111" d="M52.593,51.148a4.591,4.591,0,1,0,4.59,4.593A4.6,4.6,0,0,0,52.593,51.148Zm0,8.035a3.444,3.444,0,1,1,3.442-3.442A3.448,3.448,0,0,1,52.593,59.183Z" transform="translate(-34.226 -38.274)" fill="#f4f4f4"/>
      <path id="Caminho_9112" data-name="Caminho 9112" d="M34.052,37.716A12.053,12.053,0,1,0,46.1,49.769,12.066,12.066,0,0,0,34.052,37.716ZM40.579,58.5A10.948,10.948,0,0,1,34.6,60.659c-.06,0-.12,0-.18,0-.122,0-.243.009-.365.009q-.275,0-.547-.014a10.872,10.872,0,0,1-7.222-3.249,7.071,7.071,0,0,1,4.766-3.959,11.492,11.492,0,0,1,6.007,0,7.073,7.073,0,0,1,4.768,3.958A11.047,11.047,0,0,1,40.579,58.5Zm2.075-2.04a8.447,8.447,0,0,0-5.292-4.114,12.636,12.636,0,0,0-6.621,0,8.44,8.44,0,0,0-5.289,4.114,10.9,10.9,0,1,1,17.2,0Z" transform="translate(-15.687 -28.696)" fill="#f4f4f4"/>
    </g>
    <g id="novas_fontes_de_receita-2" data-name="novas_fontes_de_receita" transform="translate(94.88 384.481)">
      <g id="Grupo_8164" data-name="Grupo 8164" transform="translate(8.099 18.135)">
        <path id="Caminho_9113" data-name="Caminho 9113" d="M65.016,150.212a2.731,2.731,0,1,1,2.731-2.731A2.735,2.735,0,0,1,65.016,150.212Zm0-4.251a1.52,1.52,0,1,0,1.52,1.52A1.521,1.521,0,0,0,65.016,145.961Z" transform="translate(-62.285 -144.749)" fill="#f4f4f4"/>
      </g>
      <g id="Grupo_8165" data-name="Grupo 8165" transform="translate(17.871 18.135)">
        <path id="Caminho_9114" data-name="Caminho 9114" d="M134.7,150.212a2.731,2.731,0,1,1,2.731-2.731A2.735,2.735,0,0,1,134.7,150.212Zm0-4.251a1.52,1.52,0,1,0,1.52,1.52A1.521,1.521,0,0,0,134.7,145.961Z" transform="translate(-131.971 -144.749)" fill="#f4f4f4"/>
      </g>
      <g id="Grupo_8166" data-name="Grupo 8166" transform="translate(0 0)">
        <path id="Caminho_9115" data-name="Caminho 9115" d="M13.348,33.063a1.872,1.872,0,0,1-1.792-1.486L8.739,16.64H4.934a.4.4,0,0,1-.4-.4v-.4a.4.4,0,0,1,.4-.4h3.9a1.108,1.108,0,0,1,1.074.89l.809,4.292H29.906A1.364,1.364,0,0,1,31.27,22.34l-2.222,9.277a1.954,1.954,0,0,1-1.834,1.446H13.348Zm-2.4-11.241,1.8,9.531a.664.664,0,0,0,.6.5H27.213a.739.739,0,0,0,.656-.517l2.222-9.277a.163.163,0,0,0-.185-.235Z" transform="translate(-4.53 -15.428)" fill="#f4f4f4"/>
      </g>
    </g>
    <g id="Layer_3" transform="translate(93 473.866)">
      <g id="Grupo_8171" data-name="Grupo 8171" transform="translate(0 0)">
        <rect id="Retângulo_4391" data-name="Retângulo 4391" width="21.102" height="21.102" transform="translate(6.526 6.468)" fill="none" stroke="#f4f4f4" stroke-linecap="round" stroke-linejoin="round" stroke-miterlimit="10" stroke-width="2"/>
        <rect id="Retângulo_4392" data-name="Retângulo 4392" width="9.889" height="9.889" transform="translate(12.132 12.074)" fill="none" stroke="#f4f4f4" stroke-linecap="round" stroke-linejoin="round" stroke-miterlimit="10" stroke-width="2"/>
        <g id="Grupo_8167" data-name="Grupo 8167" transform="translate(11.825)">
          <line id="Linha_706" data-name="Linha 706" y1="4.377" transform="translate(9.555 2.031)" fill="none" stroke="#f4f4f4" stroke-linecap="round" stroke-linejoin="round" stroke-miterlimit="10" stroke-width="2"/>
          <circle id="Elipse_2164" data-name="Elipse 2164" cx="0.875" cy="0.875" r="0.875" transform="translate(8.754)" fill="none" stroke="#f4f4f4" stroke-linecap="round" stroke-linejoin="round" stroke-miterlimit="10" stroke-width="2"/>
          <line id="Linha_707" data-name="Linha 707" y1="4.377" transform="translate(5.179 2.031)" fill="none" stroke="#f4f4f4" stroke-linecap="round" stroke-linejoin="round" stroke-miterlimit="10" stroke-width="2"/>
          <circle id="Elipse_2165" data-name="Elipse 2165" cx="0.875" cy="0.875" r="0.875" transform="translate(4.377)" fill="none" stroke="#f4f4f4" stroke-linecap="round" stroke-linejoin="round" stroke-miterlimit="10" stroke-width="2"/>
          <line id="Linha_708" data-name="Linha 708" y1="4.377" transform="translate(0.802 2.031)" fill="none" stroke="#f4f4f4" stroke-linecap="round" stroke-linejoin="round" stroke-miterlimit="10" stroke-width="2"/>
          <circle id="Elipse_2166" data-name="Elipse 2166" cx="0.875" cy="0.875" r="0.875" fill="none" stroke="#f4f4f4" stroke-linecap="round" stroke-linejoin="round" stroke-miterlimit="10" stroke-width="2"/>
        </g>
        <g id="Grupo_8168" data-name="Grupo 8168" transform="translate(11.825 27.745)">
          <line id="Linha_709" data-name="Linha 709" y2="4.377" transform="translate(0.88)" fill="none" stroke="#f4f4f4" stroke-linecap="round" stroke-linejoin="round" stroke-miterlimit="10" stroke-width="2"/>
          <circle id="Elipse_2167" data-name="Elipse 2167" cx="0.875" cy="0.875" r="0.875" transform="translate(0 4.659)" fill="none" stroke="#f4f4f4" stroke-linecap="round" stroke-linejoin="round" stroke-miterlimit="10" stroke-width="2"/>
          <line id="Linha_710" data-name="Linha 710" y2="4.377" transform="translate(5.257)" fill="none" stroke="#f4f4f4" stroke-linecap="round" stroke-linejoin="round" stroke-miterlimit="10" stroke-width="2"/>
          <circle id="Elipse_2168" data-name="Elipse 2168" cx="0.875" cy="0.875" r="0.875" transform="translate(4.377 4.659)" fill="none" stroke="#f4f4f4" stroke-linecap="round" stroke-linejoin="round" stroke-miterlimit="10" stroke-width="2"/>
          <line id="Linha_711" data-name="Linha 711" y2="4.377" transform="translate(9.634)" fill="none" stroke="#f4f4f4" stroke-linecap="round" stroke-linejoin="round" stroke-miterlimit="10" stroke-width="2"/>
          <circle id="Elipse_2169" data-name="Elipse 2169" cx="0.875" cy="0.875" r="0.875" transform="translate(8.754 4.659)" fill="none" stroke="#f4f4f4" stroke-linecap="round" stroke-linejoin="round" stroke-miterlimit="10" stroke-width="2"/>
        </g>
        <g id="Grupo_8169" data-name="Grupo 8169" transform="translate(0 11.825)">
          <line id="Linha_712" data-name="Linha 712" x1="4.377" transform="translate(2.037 0.953)" fill="none" stroke="#f4f4f4" stroke-linecap="round" stroke-linejoin="round" stroke-miterlimit="10" stroke-width="2"/>
          <circle id="Elipse_2170" data-name="Elipse 2170" cx="0.875" cy="0.875" r="0.875" fill="none" stroke="#f4f4f4" stroke-linecap="round" stroke-linejoin="round" stroke-miterlimit="10" stroke-width="2"/>
          <line id="Linha_713" data-name="Linha 713" x1="4.377" transform="translate(2.037 5.329)" fill="none" stroke="#f4f4f4" stroke-linecap="round" stroke-linejoin="round" stroke-miterlimit="10" stroke-width="2"/>
          <circle id="Elipse_2171" data-name="Elipse 2171" cx="0.875" cy="0.875" r="0.875" transform="translate(0 4.377)" fill="none" stroke="#f4f4f4" stroke-linecap="round" stroke-linejoin="round" stroke-miterlimit="10" stroke-width="2"/>
          <line id="Linha_714" data-name="Linha 714" x1="4.377" transform="translate(2.037 9.706)" fill="none" stroke="#f4f4f4" stroke-linecap="round" stroke-linejoin="round" stroke-miterlimit="10" stroke-width="2"/>
          <circle id="Elipse_2172" data-name="Elipse 2172" cx="0.875" cy="0.875" r="0.875" transform="translate(0 8.754)" fill="none" stroke="#f4f4f4" stroke-linecap="round" stroke-linejoin="round" stroke-miterlimit="10" stroke-width="2"/>
        </g>
        <g id="Grupo_8170" data-name="Grupo 8170" transform="translate(27.75 11.825)">
          <line id="Linha_715" data-name="Linha 715" x2="4.377" transform="translate(0 9.628)" fill="none" stroke="#f4f4f4" stroke-linecap="round" stroke-linejoin="round" stroke-miterlimit="10" stroke-width="2"/>
          <circle id="Elipse_2173" data-name="Elipse 2173" cx="0.875" cy="0.875" r="0.875" transform="translate(4.653 8.754)" fill="none" stroke="#f4f4f4" stroke-linecap="round" stroke-linejoin="round" stroke-miterlimit="10" stroke-width="2"/>
          <line id="Linha_716" data-name="Linha 716" x2="4.377" transform="translate(0 5.251)" fill="none" stroke="#f4f4f4" stroke-linecap="round" stroke-linejoin="round" stroke-miterlimit="10" stroke-width="2"/>
          <circle id="Elipse_2174" data-name="Elipse 2174" cx="0.875" cy="0.875" r="0.875" transform="translate(4.653 4.377)" fill="none" stroke="#f4f4f4" stroke-linecap="round" stroke-linejoin="round" stroke-miterlimit="10" stroke-width="2"/>
          <line id="Linha_717" data-name="Linha 717" x2="4.377" transform="translate(0 0.874)" fill="none" stroke="#f4f4f4" stroke-linecap="round" stroke-linejoin="round" stroke-miterlimit="10" stroke-width="2"/>
          <circle id="Elipse_2175" data-name="Elipse 2175" cx="0.875" cy="0.875" r="0.875" transform="translate(4.653)" fill="none" stroke="#f4f4f4" stroke-linecap="round" stroke-linejoin="round" stroke-miterlimit="10" stroke-width="2"/>
        </g>
      </g>
    </g>
    <g id="Add" transform="translate(179.8 337.629)">
      <path id="Caminho_9116" data-name="Caminho 9116" d="M28.553,3.33V21.883h-5.64V9.517H10V3.33Z" transform="translate(-4.36 -3.33)" fill="none" stroke="#f4f4f4" stroke-linecap="round" stroke-linejoin="round" stroke-width="2"/>
      <rect id="Retângulo_4393" data-name="Retângulo 4393" width="18.553" height="18.553" transform="translate(0 6.187)" fill="none" stroke="#f4f4f4" stroke-linecap="round" stroke-linejoin="round" stroke-width="2"/>
      <line id="Linha_718" data-name="Linha 718" x2="4.638" transform="translate(6.957 15.464)" fill="none" stroke="#f4f4f4" stroke-linecap="round" stroke-linejoin="round" stroke-width="2"/>
      <line id="Linha_719" data-name="Linha 719" y2="4.638" transform="translate(9.277 13.145)" fill="none" stroke="#f4f4f4" stroke-linecap="round" stroke-linejoin="round" stroke-width="2"/>
    </g>
    <g id="novos_modelos_negocio" transform="translate(261.792 381.065)">
      <rect id="Retângulo_4394" data-name="Retângulo 4394" width="6.006" height="12.011" transform="translate(0 16.038)" fill="none" stroke="#f4f4f4" stroke-linecap="round" stroke-linejoin="round" stroke-width="2"/>
      <rect id="Retângulo_4395" data-name="Retângulo 4395" width="6.006" height="15.014" transform="translate(9.009 13.035)" fill="none" stroke="#f4f4f4" stroke-linecap="round" stroke-linejoin="round" stroke-width="2"/>
      <path id="Caminho_9117" data-name="Caminho 9117" d="M26.359,11.3,18.952,2.818,11.429,11.3" transform="translate(2.068 -2.818)" fill="none" stroke="#f4f4f4" stroke-linecap="round" stroke-linejoin="round" stroke-width="2"/>
      <path id="Caminho_9118" data-name="Caminho 9118" d="M6.644,8.5h4.322V28.019h6.006V8.5h4.436" transform="translate(7.051 0.031)" fill="none" stroke="#f4f4f4" stroke-linecap="round" stroke-linejoin="round" stroke-width="2"/>
    </g>
  </g>
</svg>
